<?xml version="1.0" encoding="UTF-8"?>
<svg xmlns="http://www.w3.org/2000/svg" xmlns:xlink="http://www.w3.org/1999/xlink" version="1.2" >
<font id="Maxwell SmCaps Light">
<font-face  font-family="Maxwell SmCaps" units-per-em="1000" ascent="750" descent="-250" font-style="normal" font-weight="300" font-stretch="normal" cap-height="621" x-height="743" underline-position="-75" underline-thickness="50" />
<missing-glyph  horiz-adv-x="173" d="" />
<glyph glyph-name="space" unicode="&#x20;" horiz-adv-x="173" d="" />
<glyph glyph-name="exclam" unicode="&#x21;" horiz-adv-x="138" d="M40 -1 L82 -1 L82 46 L40 46 L40 -1 L40 -1 Z M71 814 L40 814 L40 156 L71 156 L71 814 L71 814 Z " />
<glyph glyph-name="quotedbl" unicode="&#x22;" horiz-adv-x="197" d="M97 725 L126 725 L130 810 L94 810 L97 725 L97 725 Z M52 725 L79 725 L84 810 L48 810 L52 725 L52 725 Z " />
<glyph glyph-name="numbersign" unicode="&#x23;" horiz-adv-x="574" d="M426 811 L394 811 L394 578 L191 578 L191 811 L160 811 L160 578 L40 578 L40 547 L160 547 L160 301 L40 301 L40 270 L160 270 L160 6 L191 6 L191 270 L394 270 L394 6 L426 6 L426 270 L526 270 L526 301 L426 301 L426 547 L526 547 L526 578 L426 578 L426 811 L426 811 Z M394 301 L191 301 L191 547 L394 547 L394 301 L394 301 Z " />
<glyph glyph-name="dollar" unicode="&#x24;" horiz-adv-x="414" d="M209 382 L209 712 C268 704 313 653 313 592 L346 592 C346 671 286 736 209 743 L209 851 L176 851 L176 743 C100 736 41 676 40 601 C38 493 108 428 176 367 L176 31 C118 38 73 89 73 150 L41 150 C41 72 101 7 176 -1 L176 -104 L209 -104 L209 -1 C292 5 343 59 346 143 C348 253 278 319 209 382 L209 382 Z M176 410 C119 463 71 517 71 601 C72 658 118 704 176 712 L176 410 L176 410 Z M313 144 C312 76 274 35 209 30 L209 340 C266 286 316 230 313 144 L313 144 Z " />
<glyph glyph-name="percent" unicode="&#x25;" horiz-adv-x="840" d="M326 564 L326 660 C326 743 268 810 194 810 C122 810 64 743 64 660 L64 564 C64 481 122 414 194 414 C268 414 326 481 326 564 L326 564 Z M194 445 C140 445 95 498 95 564 L95 660 C95 726 140 779 194 779 C250 779 294 726 294 660 L294 564 C294 498 250 445 194 445 L194 445 Z M494 403 C421 403 362 335 362 252 L362 157 C362 73 421 6 494 6 C566 6 625 73 625 157 L625 252 C625 335 566 403 494 403 L494 403 Z M594 157 C594 91 548 37 494 37 C439 37 395 91 395 157 L395 252 C395 318 439 371 494 371 C548 371 594 318 594 252 L594 157 L594 157 Z M463 805 L179 0 L210 0 L494 805 L463 805 L463 805 Z " />
<glyph glyph-name="ampersand" unicode="&#x26;" horiz-adv-x="527" d="M402 160 C419 238 431 359 431 455 L400 455 C400 366 389 251 373 176 C312 283 251 398 206 493 C229 523 248 548 263 565 C271 577 278 584 282 589 C335 666 323 724 311 750 C296 784 268 808 234 812 C209 816 184 808 162 788 C131 762 113 719 113 676 C113 640 136 575 170 497 C110 412 40 293 40 191 C40 137 56 91 86 58 C114 26 152 7 194 2 C240 -2 284 10 322 35 C346 52 366 74 380 101 C434 6 476 -64 482 -72 L509 -56 C476 -2 437 65 396 137 C398 144 401 152 402 160 L402 160 Z M144 676 C144 709 158 744 182 764 C191 773 205 781 222 781 C224 781 227 781 229 781 C252 778 272 761 282 738 C292 716 300 672 256 607 C253 604 246 595 238 586 C226 570 210 550 192 526 C162 593 144 647 144 676 L144 676 Z M198 35 C139 41 71 85 71 191 C71 280 131 384 186 464 C236 359 304 235 361 133 C330 56 258 28 198 35 L198 35 Z " />
<glyph glyph-name="quotesingle" unicode="&#x27;" horiz-adv-x="120" d="M43 727 L71 727 L76 812 L40 812 L43 727 L43 727 Z " />
<glyph glyph-name="parenleft" unicode="&#x28;" horiz-adv-x="268" d="M206 869 C175 869 200 869 168 869 C40 580 40 238 168 -52 C200 -52 175 -52 206 -52 C77 238 77 580 206 869 L206 869 Z " />
<glyph glyph-name="parenright" unicode="&#x29;" horiz-adv-x="241" d="M40 869 C169 580 169 238 40 -52 C71 -52 46 -52 78 -52 C206 238 206 580 78 869 C46 869 71 869 40 869 L40 869 Z " />
<glyph glyph-name="asterisk" unicode="&#x2a;" horiz-adv-x="306" d="M185 778 L136 749 L136 805 L104 805 L104 749 L55 778 L40 750 L89 722 L41 694 L56 666 L104 695 L104 638 L136 638 L136 695 L184 667 L199 695 L152 722 L200 750 L185 778 L185 778 Z " />
<glyph glyph-name="plus" unicode="&#x2b;" horiz-adv-x="372" d="M217 564 L186 564 L186 419 L40 419 L40 387 L186 387 L186 242 L217 242 L217 387 L364 387 L364 419 L217 419 L217 564 L217 564 Z " />
<glyph glyph-name="comma" unicode="&#x2c;" horiz-adv-x="132" d="M79 113 L40 113 L40 69 L58 69 L58 69 C58 48 46 51 46 51 L46 34 C79 34 79 69 79 69 L79 113 L79 113 Z " />
<glyph glyph-name="hyphen" unicode="&#x2d;" horiz-adv-x="356" d="M40 392 L344 392 L344 425 L40 425 L40 392 L40 392 Z " />
<glyph glyph-name="period" unicode="&#x2e;" horiz-adv-x="118" d="M40 71 L79 71 L79 118 L40 118 L40 71 L40 71 Z " />
<glyph glyph-name="slash" unicode="&#x2f;" horiz-adv-x="422" d="M361 804 L323 804 L40 -1 L77 -1 L361 804 L361 804 Z " />
<glyph glyph-name="zero" unicode="0" horiz-adv-x="484" d="M262 809 L205 809 C121 809 54 742 54 658 L54 151 C54 68 121 1 205 1 L262 1 C344 1 412 68 412 151 L412 658 C412 742 344 809 262 809 L262 809 Z M380 151 C380 85 326 32 262 32 L205 32 C139 32 85 85 85 151 L85 658 C85 724 139 778 205 778 L262 778 C326 778 380 724 380 658 L380 151 Z " />
<glyph glyph-name="one" unicode="1" horiz-adv-x="257" d="M131 809 L128 809 L54 732 L77 710 L131 766 L131 1 L162 1 L162 799 L162 809 L162 810 L131 810 L131 809 L131 809 Z " />
<glyph glyph-name="two" unicode="2" horiz-adv-x="432" d="M223 316 C294 398 368 485 367 628 C366 732 296 814 210 814 C124 814 54 725 54 616 L85 616 C85 707 142 782 210 782 C280 782 335 714 335 628 C336 496 270 419 199 336 C126 252 52 164 54 16 L54 1 L382 1 L382 32 L85 32 C89 160 154 235 223 316 L223 316 Z " />
<glyph glyph-name="three" unicode="3" horiz-adv-x="432" d="M185 569 L362 810 L54 810 L54 779 L300 779 L124 540 L155 540 C281 540 350 446 350 277 C350 202 336 138 311 94 C288 54 257 32 224 32 C156 32 101 107 101 198 L70 198 C70 89 139 1 224 1 C317 1 382 114 382 277 C382 451 311 556 185 569 L185 569 Z " />
<glyph glyph-name="four" unicode="4" horiz-adv-x="493" d="M332 810 L296 810 L54 302 L301 302 L301 -11 L332 -11 L332 302 L452 302 L452 335 L332 335 L332 810 L332 810 Z M301 335 L104 335 L301 751 L301 335 L301 335 Z " />
<glyph glyph-name="five" unicode="5" horiz-adv-x="430" d="M277 554 C234 586 176 592 107 571 L107 779 L356 779 L356 810 L76 810 L76 528 L96 535 C166 559 220 557 259 529 C310 493 337 409 337 287 C337 170 314 32 210 32 C169 32 131 59 108 103 C94 132 85 164 85 198 L54 198 C54 160 62 121 79 89 C108 34 157 1 210 1 C257 1 296 23 324 66 C353 114 368 188 368 287 C368 421 337 511 277 554 L277 554 Z " />
<glyph glyph-name="six" unicode="6" horiz-adv-x="383" d="M193 782 C253 782 301 722 301 648 L332 648 C332 739 270 814 193 814 C116 814 54 739 54 648 L54 376 L54 160 L54 155 C54 139 56 124 61 108 C79 42 132 -6 193 -6 C256 -6 307 42 325 108 C330 124 332 139 332 155 L332 376 C332 458 270 526 193 526 C150 526 112 504 85 470 L85 648 C85 722 134 782 193 782 L193 782 Z M193 494 C253 494 301 440 301 376 L301 160 C301 145 299 131 295 119 C282 71 241 36 193 36 C145 36 104 71 91 119 C88 131 85 145 85 160 L85 376 C85 440 134 494 193 494 L193 494 Z " />
<glyph glyph-name="seven" unicode="7" horiz-adv-x="437" d="M407 812 L54 812 L54 780 L373 780 C352 745 312 677 272 577 C220 446 157 254 157 1 L188 1 C188 248 250 436 301 564 C346 673 389 748 407 775 L407 812 L407 812 Z " />
<glyph glyph-name="eight" unicode="8" horiz-adv-x="424" d="M265 528 C313 551 347 602 347 662 C347 744 286 810 210 810 C133 810 72 744 72 662 C72 602 106 551 154 528 C96 508 54 451 54 386 L54 151 C54 68 121 1 205 1 L214 1 C298 1 365 68 365 151 L365 386 C365 451 323 508 265 528 L265 528 Z M103 662 C103 726 151 778 210 778 C268 778 316 726 316 662 C316 599 268 547 210 547 C151 547 103 599 103 662 L103 662 Z M334 151 C334 85 280 32 214 32 L205 32 C139 32 85 85 85 151 L85 386 C85 452 139 505 205 505 L214 505 C280 505 334 452 334 386 L334 151 L334 151 Z " />
<glyph glyph-name="nine" unicode="9" horiz-adv-x="388" d="M193 811 C193 811 193 811 193 811 L193 811 L193 811 C116 811 54 744 54 661 L54 450 C54 367 116 299 193 299 C236 299 275 320 301 354 L301 164 C301 91 253 32 193 32 C134 32 85 91 85 164 L54 164 C54 74 116 1 193 1 C270 1 332 74 332 164 L332 450 L332 648 L332 661 C332 744 270 811 193 811 L193 811 Z M301 450 C301 384 253 331 193 331 C134 331 85 384 85 450 L85 648 C85 721 134 780 193 780 C193 780 193 780 193 780 C253 780 301 721 301 648 L301 450 L301 450 Z " />
<glyph glyph-name="colon" unicode="&#x3a;" horiz-adv-x="138" d="M40 69 L79 69 L79 117 L40 117 L40 69 L40 69 Z M40 364 L79 364 L79 412 L40 412 L40 364 L40 364 Z " />
<glyph glyph-name="semicolon" unicode="&#x3b;" horiz-adv-x="139" d="M79 413 L40 413 L40 366 L79 366 L79 413 L79 413 Z M79 118 L40 118 L40 72 L58 72 L58 72 C58 53 46 54 46 54 L46 39 C79 39 79 72 79 72 L79 118 L79 118 Z " />
<glyph glyph-name="less" unicode="&#x3c;" horiz-adv-x="349" d="M258 88 L282 108 L103 394 L294 683 L269 702 L62 394 L258 88 Z " />
<glyph glyph-name="equal" unicode="&#x3d;" horiz-adv-x="356" d="M40 460 L344 460 L344 491 L40 491 L40 460 L40 460 Z M40 308 L344 308 L344 340 L40 340 L40 308 L40 308 Z " />
<glyph glyph-name="greater" unicode="&#x3e;" horiz-adv-x="349" d="M294 394 L88 702 L62 683 L253 394 L74 108 L98 88 L294 394 Z " />
<glyph glyph-name="question" unicode="&#x3f;" horiz-adv-x="398" d="M143 2 L175 2 L175 32 L143 32 L143 2 L143 2 Z M196 790 C109 790 40 707 40 607 L71 607 C71 690 127 757 196 757 C265 757 320 696 320 618 C322 498 280 451 234 401 C186 348 137 293 139 157 L172 157 C169 282 212 329 258 380 C305 432 354 486 353 618 C352 714 282 790 196 790 L196 790 Z " />
<glyph glyph-name="at" unicode="&#x40;" horiz-adv-x="649" d="M576 400 C576 547 456 667 307 667 C160 667 40 547 40 400 L40 194 C40 47 160 -73 307 -73 L307 -42 C178 -42 71 65 71 194 L71 400 C71 529 178 636 307 636 C438 636 544 529 544 400 L544 194 L545 194 L545 156 C545 122 514 88 476 80 C461 78 448 80 437 90 C422 102 414 121 414 144 L414 227 L414 371 L414 539 L383 539 L383 474 C362 503 332 521 301 521 C238 521 187 454 187 371 L187 227 C187 144 238 77 301 77 C334 77 364 95 384 125 C388 101 400 79 416 66 C431 54 448 48 466 48 C472 48 476 48 482 49 C534 60 576 108 576 156 L576 232 L576 232 L576 400 L576 400 Z M383 227 C383 163 346 108 301 108 C257 108 218 163 218 227 L218 371 C218 434 257 490 301 490 C346 490 383 434 383 371 L383 227 L383 227 Z " />
<glyph glyph-name="A" unicode="A" horiz-adv-x="462" d="M210 810 L54 0 L86 0 L133 247 L319 247 L366 0 L397 0 L246 810 L210 810 L210 810 Z M140 280 L228 734 L313 280 L140 280 L140 280 Z " />
<glyph glyph-name="B" unicode="B" horiz-adv-x="396" d="M240 505 C281 532 308 584 308 644 L308 646 L307 655 C306 742 250 810 181 810 L54 810 L54 0 L54 0 L194 0 C271 0 334 72 334 161 L334 354 C334 425 295 484 240 505 L240 505 Z M85 779 L181 779 C233 779 276 722 276 654 L276 653 L277 643 C277 575 234 520 182 520 L85 520 L85 779 L85 779 Z M302 161 C302 90 253 32 194 32 L85 32 L85 484 L194 484 C253 484 302 426 302 354 L302 161 L302 161 Z " />
<glyph glyph-name="C" unicode="C" horiz-adv-x="421" d="M205 778 L214 778 C245 778 275 764 298 740 C312 725 323 704 329 683 L359 691 C352 718 338 743 320 762 C292 792 254 810 214 810 L205 810 C121 810 54 737 54 647 L54 162 C54 72 121 0 205 0 L214 0 C277 0 335 43 356 107 L326 118 C308 66 264 31 214 31 L205 31 C139 31 85 90 85 162 L85 647 C85 719 139 778 205 778 L205 778 Z " />
<glyph glyph-name="D" unicode="D" horiz-adv-x="424" d="M204 810 L54 810 L54 0 L206 0 C284 0 347 67 347 150 L347 662 C347 744 283 810 204 810 L204 810 Z M316 150 C316 84 266 31 206 31 L85 31 L85 779 L204 779 C265 779 316 726 316 662 L316 150 L316 150 Z " />
<glyph glyph-name="E" unicode="E" horiz-adv-x="355" d="M54 0 L280 0 L280 31 L85 31 L85 353 L230 353 L230 385 L85 385 L85 780 L280 780 L280 811 L54 811 L54 0 L54 0 Z " />
<glyph glyph-name="F" unicode="F" horiz-adv-x="344" d="M54 0 L85 0 L85 355 L230 355 L230 386 L85 386 L85 779 L278 779 L278 810 L54 810 L54 0 L54 0 Z " />
<glyph glyph-name="G" unicode="G" horiz-adv-x="424" d="M192 353 L334 353 L334 162 C334 90 280 31 214 31 L205 31 C139 31 85 90 85 162 L85 648 C85 720 139 779 205 779 L214 779 C245 779 275 766 298 742 C312 726 323 706 329 685 L359 692 C352 719 338 744 320 763 C292 793 254 810 214 810 L205 810 C121 810 54 738 54 648 L54 162 C54 72 121 0 205 0 L214 0 C298 0 365 72 365 162 L365 384 L192 384 L192 353 L192 353 Z " />
<glyph glyph-name="H" unicode="H" horiz-adv-x="428" d="M320 388 L85 388 L85 809 L54 809 L54 0 L85 0 L85 356 L320 356 L320 1 L352 1 L352 809 L320 809 L320 388 L320 388 Z " />
<glyph glyph-name="I" unicode="I" horiz-adv-x="175" d="M54 0 L85 0 L85 810 L54 810 L54 0 L54 0 Z " />
<glyph glyph-name="J" unicode="J" horiz-adv-x="426" d="M325 156 C325 88 271 31 205 31 C139 31 85 88 85 156 L85 350 L54 350 L54 156 C54 70 122 0 205 0 C288 0 356 70 356 156 L356 810 L325 810 L325 156 L325 156 Z " />
<glyph glyph-name="K" unicode="K" horiz-adv-x="456" d="M396 811 L359 811 L85 383 L85 811 L54 811 L54 0 L85 0 L85 324 L186 482 L367 0 L401 0 L208 515 L396 811 L396 811 Z " />
<glyph glyph-name="L" unicode="L" horiz-adv-x="355" d="M85 811 L54 811 L54 0 L278 0 L278 31 L85 31 L85 811 L85 811 Z " />
<glyph glyph-name="M" unicode="M" horiz-adv-x="516" d="M382 811 L234 311 L88 811 L54 811 L54 811 L54 0 L85 0 L85 707 L222 242 L247 242 L383 704 L383 0 L414 0 L414 811 L414 811 L414 811 L382 811 Z " />
<glyph glyph-name="N" unicode="N" horiz-adv-x="464" d="M89 812 L56 812 L56 812 L56 0 L88 0 L88 719 L329 0 L364 0 L364 0 L364 811 L331 811 L331 90 L89 812 Z " />
<glyph glyph-name="O" unicode="O" horiz-adv-x="428" d="M214 811 L205 811 C121 811 54 744 54 661 L55 150 C55 67 122 0 206 0 L216 0 C299 0 366 67 366 150 L365 661 C365 744 298 811 214 811 L214 811 Z M216 31 L206 31 C140 31 86 84 86 150 L85 661 C85 726 139 780 205 780 L214 780 C280 780 334 726 334 661 L335 150 C335 84 281 31 216 31 L216 31 Z " />
<glyph glyph-name="P" unicode="P" horiz-adv-x="421" d="M206 811 L54 811 L53 0 L84 0 L85 311 L206 311 C283 311 346 380 346 466 L346 656 C346 742 283 811 206 811 L206 811 Z M314 466 C314 397 266 342 206 342 L85 342 L85 780 L206 780 C266 780 314 725 314 656 L314 466 L314 466 Z " />
<glyph glyph-name="Q" unicode="Q" horiz-adv-x="445" d="M365 151 L365 660 C365 743 298 811 214 811 L205 811 C121 811 54 743 54 660 L54 151 C54 68 121 0 205 0 L214 0 C250 0 282 12 307 34 L353 -16 L377 6 L330 55 C352 82 365 115 365 151 L365 151 Z M252 139 L228 118 L286 56 C266 41 241 32 214 32 L205 32 C139 32 85 85 85 151 L85 660 C85 726 139 779 205 779 L214 779 C280 779 334 726 334 660 L334 151 C334 124 324 98 308 78 L252 139 L252 139 Z " />
<glyph glyph-name="R" unicode="R" horiz-adv-x="424" d="M266 328 C314 353 347 406 347 468 L347 656 C347 742 284 811 206 811 L54 811 L54 0 L86 0 L86 313 L198 313 C264 313 318 259 318 193 L318 0 L349 0 L349 193 C349 252 316 302 266 328 L266 328 Z M86 344 L86 780 L206 780 C266 780 316 725 316 656 L316 468 C316 400 266 344 206 344 L86 344 L86 344 Z " />
<glyph glyph-name="S" unicode="S" horiz-adv-x="428" d="M217 421 C149 487 84 551 85 656 C86 725 140 779 208 779 C274 779 328 720 328 647 L360 647 C360 737 292 811 208 811 C122 811 55 743 54 656 C53 538 125 467 196 398 C265 331 330 265 328 156 C326 77 282 31 208 31 C142 31 88 90 88 163 L55 163 C55 73 124 0 208 0 C299 0 358 59 360 156 C362 278 289 352 217 421 L217 421 Z " />
<glyph glyph-name="T" unicode="T" horiz-adv-x="402" d="M54 780 L175 780 L175 0 L206 0 L206 780 L326 780 L326 811 L54 811 L54 780 Z " />
<glyph glyph-name="U" unicode="U" horiz-adv-x="432" d="M334 150 C334 84 280 31 214 31 L205 31 C139 31 85 84 85 150 L85 811 L54 811 L54 150 C54 67 121 0 205 0 L214 0 C298 0 365 67 365 150 L365 811 L334 811 L334 150 L334 150 Z " />
<glyph glyph-name="V" unicode="V" horiz-adv-x="432" d="M86 811 L54 811 L200 0 L228 0 L374 811 L342 811 L214 101 L86 811 Z " />
<glyph glyph-name="W" unicode="W" horiz-adv-x="674" d="M457 116 L449 48 L440 116 L347 684 L317 684 L222 114 L214 48 L205 114 L86 811 L54 811 L204 0 L224 0 L331 587 L438 0 L458 0 L608 811 L576 811 L457 116 L457 116 Z " />
<glyph glyph-name="X" unicode="X" horiz-adv-x="456" d="M346 811 L217 432 L88 811 L54 811 L200 384 L68 0 L102 0 L217 335 L331 0 L365 0 L233 384 L379 811 L346 811 L346 811 Z " />
<glyph glyph-name="Y" unicode="Y" horiz-adv-x="440" d="M86 811 L54 811 L204 305 L204 0 L235 0 L235 307 L379 811 L347 811 L218 365 L86 811 Z " />
<glyph glyph-name="Z" unicode="Z" horiz-adv-x="445" d="M73 811 L73 779 L312 779 L54 0 L343 0 L343 0 L343 31 L97 31 L355 811 L73 811 Z " />
<glyph glyph-name="bracketleft" unicode="&#x5b;" horiz-adv-x="293" d="M199 796 L199 828 L40 828 L40 -10 L199 -10 L199 22 L71 22 L71 796 L199 796 L199 796 Z " />
<glyph glyph-name="backslash" unicode="&#x5c;" horiz-adv-x="438" d="M40 809 L324 4 L361 4 L78 809 L40 809 L40 809 Z " />
<glyph glyph-name="bracketright" unicode="&#x5d;" horiz-adv-x="296" d="M100 796 L228 796 L228 22 L100 22 L100 -10 L259 -10 L259 828 L100 828 L100 796 L100 796 Z " />
<glyph glyph-name="asciicircum" unicode="&#x5e;" horiz-adv-x="509" d="M47 688 L88 640 L262 787 L442 640 L481 688 L262 869 L47 688 L47 688 Z " />
<glyph glyph-name="underscore" unicode="&#x5f;" horiz-adv-x="527" d="M40 9 L515 9 L515 40 L40 40 L40 9 L40 9 Z " />
<glyph glyph-name="grave" unicode="&#x60;" horiz-adv-x="145" d="M40 776 L58 688 L85 688 L76 776 L40 776 L40 776 Z " />
<glyph glyph-name="a" unicode="a" horiz-adv-x="396" d="M184 743 L54 71 L86 71 L125 279 L271 279 L310 71 L341 71 L216 743 L184 743 Z M265 310 L131 310 L199 637 L265 310 L265 310 Z " />
<glyph glyph-name="b" unicode="b" horiz-adv-x="337" d="M210 478 C220 485 228 494 235 504 C253 532 264 569 264 605 C264 681 217 742 160 742 L55 742 L55 742 L54 742 L54 490 L54 486 L54 459 L54 455 L54 104 L54 72 L54 71 L169 71 C233 71 284 131 284 203 L284 356 C284 412 253 459 210 478 L210 478 Z M85 711 L160 711 C199 711 233 661 233 605 C233 545 197 490 158 490 L85 490 L85 711 L85 711 Z M253 203 C253 148 215 104 169 104 L85 104 L85 455 L169 455 C215 455 253 411 253 356 L253 203 L253 203 Z " />
<glyph glyph-name="c" unicode="c" horiz-adv-x="359" d="M178 711 L185 711 C209 711 232 700 248 681 C260 667 269 652 272 635 L304 642 C298 665 287 685 271 702 C248 727 217 742 185 742 L178 742 C109 742 54 681 54 605 L54 207 C54 131 109 71 178 71 L185 71 C236 71 283 107 301 161 L271 171 C258 130 223 102 185 102 L178 102 C127 102 85 149 85 207 L85 605 C85 663 127 711 178 711 L178 711 Z " />
<glyph glyph-name="d" unicode="d" horiz-adv-x="347" d="M176 742 L54 742 L54 71 L179 71 C242 71 294 130 294 202 L294 612 C294 684 241 742 176 742 L176 742 Z M263 202 C263 147 224 102 179 102 L85 102 L85 709 L176 709 C224 709 263 666 263 612 L263 202 L263 202 Z " />
<glyph glyph-name="e" unicode="e" horiz-adv-x="295" d="M54 76 L240 76 L240 107 L85 107 L85 364 L199 364 L199 396 L85 396 L85 712 L240 712 L240 743 L54 743 L54 76 L54 76 Z " />
<glyph glyph-name="f" unicode="f" horiz-adv-x="290" d="M54 71 L85 71 L85 354 L199 354 L199 386 L85 386 L85 711 L239 711 L239 743 L54 743 L54 71 L54 71 Z " />
<glyph glyph-name="g" unicode="g" horiz-adv-x="364" d="M167 359 L276 359 L276 207 C276 149 235 102 185 102 L176 102 C126 102 85 149 85 207 L85 606 C85 664 126 710 176 710 L185 710 C208 710 230 700 247 680 C259 668 268 652 272 635 L302 642 C296 665 286 685 271 702 C248 727 217 742 185 742 L176 742 C109 742 54 680 54 606 L54 207 C54 131 109 71 176 71 L185 71 C252 71 307 131 307 207 L307 390 L167 390 L167 359 L167 359 Z " />
<glyph glyph-name="h" unicode="h" horiz-adv-x="352" d="M268 390 L85 390 L85 742 L54 742 L54 71 L85 71 L85 359 L268 359 L268 71 L299 71 L299 742 L268 742 L268 390 L268 390 Z " />
<glyph glyph-name="i" unicode="i" horiz-adv-x="132" d="M54 71 L85 71 L85 743 L54 743 L54 71 L54 71 Z " />
<glyph glyph-name="j" unicode="j" horiz-adv-x="367" d="M275 227 C275 159 233 102 180 102 C128 102 85 158 85 227 L85 368 L54 368 L54 227 C54 141 110 71 180 71 C250 71 307 141 307 227 L307 742 L275 742 L275 227 L275 227 Z " />
<glyph glyph-name="k" unicode="k" horiz-adv-x="419" d="M337 742 L85 345 L85 742 L54 742 L54 71 L85 71 L85 286 L186 444 L328 71 L361 71 L208 478 L374 742 L337 742 L337 742 Z " />
<glyph glyph-name="l" unicode="l" horiz-adv-x="288" d="M85 742 L54 742 L54 71 L239 71 L239 102 L85 102 L85 742 L85 742 Z " />
<glyph glyph-name="m" unicode="m" horiz-adv-x="428" d="M366 742 L366 742 L332 742 L212 339 L91 742 L59 742 L60 72 L54 72 L54 72 L60 72 L60 71 L92 71 L92 630 L196 285 L199 272 L224 272 L228 285 L334 638 L334 72 L372 72 L372 72 L366 72 L366 742 L366 742 Z " />
<glyph glyph-name="n" unicode="n" horiz-adv-x="407" d="M324 742 L293 742 L293 159 L94 742 L61 742 L60 742 L60 742 L60 742 L60 71 L54 71 L54 71 L91 71 L91 650 L289 71 L324 71 L324 742 L324 742 Z " />
<glyph glyph-name="o" unicode="o" horiz-adv-x="374" d="M181 742 C112 742 54 675 54 592 L54 221 C54 138 112 71 181 71 C251 71 308 138 308 221 L308 592 C308 675 251 742 181 742 L181 742 Z M277 221 C277 155 234 102 181 102 C128 102 85 155 85 221 L85 592 C85 657 128 711 181 711 C234 711 277 657 277 592 L277 221 L277 221 Z " />
<glyph glyph-name="p" unicode="p" horiz-adv-x="359" d="M181 742 L54 742 L54 365 L54 333 L54 71 L85 71 L85 333 L181 333 C246 333 299 390 299 461 L299 613 C299 684 246 742 181 742 L181 742 Z M268 461 C268 408 229 365 181 365 L85 365 L85 710 L181 710 C229 710 268 667 268 613 L268 461 L268 461 Z " />
<glyph glyph-name="q" unicode="q" horiz-adv-x="368" d="M310 222 L310 592 C310 676 252 743 182 743 C112 743 54 676 54 592 L54 222 C54 139 112 71 182 71 C210 71 235 82 257 100 L296 55 L320 77 L278 123 C298 150 310 184 310 222 L310 222 Z M257 147 L216 191 L193 171 L235 124 C220 111 202 103 182 103 C128 103 85 156 85 222 L85 592 C85 658 128 712 182 712 C235 712 278 658 278 592 L278 222 C278 193 270 167 257 147 L257 147 Z " />
<glyph glyph-name="r" unicode="r" horiz-adv-x="359" d="M232 333 C270 354 296 400 296 452 L296 611 C296 683 245 743 180 743 L54 743 L54 742 L54 710 L54 352 L54 320 L54 71 L54 71 L85 71 L85 71 L85 320 L170 320 C223 320 268 267 268 201 L268 71 L299 71 L299 201 C299 258 271 308 232 333 L232 333 Z M85 352 L85 710 L180 710 C227 710 265 666 265 611 L265 452 C265 396 227 352 180 352 L85 352 L85 352 Z " />
<glyph glyph-name="s" unicode="s" horiz-adv-x="366" d="M191 419 C137 473 85 527 85 612 C86 667 128 709 181 709 C233 709 275 662 275 604 L307 604 C307 679 251 742 181 742 C110 742 55 684 54 612 C53 514 112 454 169 398 C224 342 277 291 275 202 C274 138 240 102 181 102 C130 102 86 149 86 208 L55 208 C55 132 112 71 181 71 C257 71 305 120 307 202 C308 304 250 363 191 419 L191 419 Z " />
<glyph glyph-name="t" unicode="t" horiz-adv-x="328" d="M54 712 L151 712 L151 71 L182 71 L182 712 L277 712 L277 743 L54 743 L54 712 L54 712 Z " />
<glyph glyph-name="u" unicode="u" horiz-adv-x="368" d="M282 221 C282 155 238 102 184 102 C130 102 85 155 85 221 L85 743 L54 743 L54 221 C54 138 113 71 184 71 C256 71 313 138 313 221 L313 743 L282 743 L282 221 L282 221 Z " />
<glyph glyph-name="v" unicode="v" horiz-adv-x="398" d="M86 742 L54 742 L174 71 L203 71 L323 742 L290 742 L188 168 L86 742 Z " />
<glyph glyph-name="w" unicode="w" horiz-adv-x="574" d="M299 626 L298 633 L269 633 L268 626 L188 166 L86 742 L54 742 L173 71 L203 71 L283 533 L362 71 L394 71 L512 742 L480 742 L378 166 L299 626 Z " />
<glyph glyph-name="x" unicode="x" horiz-adv-x="394" d="M301 742 L194 428 L88 742 L54 742 L178 380 L72 71 L106 71 L194 330 L283 71 L317 71 L211 380 L334 742 L301 742 L301 742 Z " />
<glyph glyph-name="y" unicode="y" horiz-adv-x="391" d="M193 382 L86 742 L54 742 L178 322 L178 72 L178 71 L210 71 L210 72 L210 324 L329 742 L296 742 L193 382 L193 382 Z " />
<glyph glyph-name="z" unicode="z" horiz-adv-x="368" d="M70 743 L70 712 L264 712 L54 71 L296 71 L296 102 L97 102 L307 743 L70 743 L70 743 Z " />
<glyph glyph-name="braceleft" unicode="&#x7b;" horiz-adv-x="296" d="M124 701 L124 600 C124 552 100 496 71 474 C50 460 40 439 40 419 C40 397 52 376 73 361 C103 340 128 283 128 236 L128 118 C128 55 161 7 202 7 L259 7 L259 38 L202 38 C182 38 160 71 160 118 L160 236 C160 294 130 360 91 388 C78 396 71 407 71 419 C71 430 77 440 89 449 C126 475 155 542 155 600 L155 701 C155 748 179 780 199 780 L259 780 L259 811 L199 811 C157 811 124 763 124 701 L124 701 Z " />
<glyph glyph-name="bar" unicode="&#x7c;" horiz-adv-x="139" d="M40 -68 L71 -68 L71 887 L40 887 L40 -68 L40 -68 Z " />
<glyph glyph-name="braceright" unicode="&#x7d;" horiz-adv-x="296" d="M175 701 C175 763 142 811 100 811 L40 811 L40 780 L100 780 C120 780 144 748 144 701 L144 600 C144 542 173 475 210 449 C222 440 228 430 228 419 C228 407 221 396 208 388 C169 360 139 294 139 236 L139 118 C139 71 116 38 97 38 L40 38 L40 7 L97 7 C138 7 170 55 170 118 L170 236 C170 283 196 340 226 361 C247 376 259 397 259 419 C259 439 248 460 228 474 C199 496 175 552 175 600 L175 701 L175 701 Z " />
<glyph glyph-name="asciitilde" unicode="&#x7e;" horiz-adv-x="486" d="M247 354 C198 385 142 421 40 320 L62 298 C145 380 185 356 230 328 C256 312 282 295 316 295 C348 295 386 311 436 360 L413 383 C331 301 295 325 247 354 L247 354 Z " />
<glyph glyph-name="exclamdown" unicode="&#xa1;" horiz-adv-x="138" d="M82 640 L40 640 L40 600 L82 600 L82 640 L82 640 Z M50 -172 L82 -172 L82 486 L50 486 L50 -172 L50 -172 Z " />
<glyph glyph-name="cent" unicode="&#xa2;" horiz-adv-x="364" d="M235 644 C246 634 254 620 258 606 L289 616 C283 635 272 653 257 667 C235 689 206 701 175 702 L175 803 L144 803 L144 701 C85 692 40 642 40 582 L40 236 C40 176 85 126 144 118 L144 16 L175 16 L175 116 C224 119 269 150 286 196 L257 206 C244 173 212 150 175 148 L175 671 C198 670 218 660 235 644 L235 644 Z M144 150 C102 158 71 194 71 236 L71 582 C71 624 102 660 144 668 L144 150 L144 150 Z " />
<glyph glyph-name="sterling" unicode="&#xa3;" horiz-adv-x="470" d="M325 37 L120 37 C124 42 128 48 132 53 C154 84 164 124 164 167 L164 316 L316 316 L316 347 L164 347 L164 649 C164 721 210 779 264 779 C286 779 306 770 323 754 L346 776 C322 799 294 811 264 811 C192 811 133 738 133 649 L133 347 L40 347 L40 316 L133 316 L133 167 C133 90 91 37 54 37 L54 6 L325 6 C413 6 436 94 436 139 L404 139 C404 136 403 37 325 37 L325 37 Z " />
<glyph glyph-name="currency" unicode="&#xa4;" horiz-adv-x="422" d="M358 557 L330 571 L276 469 C257 493 229 509 200 509 C170 509 143 493 124 468 L67 575 L40 560 L103 437 C92 414 86 386 86 358 L86 215 C86 185 94 157 104 134 L43 16 L71 1 L124 103 C144 79 170 64 200 64 C229 64 256 78 276 102 L326 5 L354 19 L296 132 L294 131 C306 155 313 184 313 215 L313 358 C313 388 307 416 295 439 L296 439 L358 557 L358 557 Z M282 215 C282 150 245 96 200 96 C156 96 119 150 119 215 L119 358 C119 422 156 478 200 478 C245 478 282 422 282 358 L282 215 L282 215 Z " />
<glyph glyph-name="yen" unicode="&#xa5;" horiz-adv-x="457" d="M347 826 L216 367 L205 367 L70 826 L40 816 L172 367 L71 367 L71 336 L181 336 L193 298 L193 244 L71 244 L71 211 L193 211 L193 -17 L224 -17 L224 211 L347 211 L347 244 L224 244 L224 282 L240 336 L347 336 L347 367 L250 367 L378 816 L347 826 L347 826 Z " />
<glyph glyph-name="brokenbar" unicode="&#xa6;" horiz-adv-x="161" d="M40 463 L71 463 L71 778 L40 778 L40 463 L40 463 Z M40 82 L71 82 L71 396 L40 396 L40 82 L40 82 Z " />
<glyph glyph-name="section" unicode="&#xa7;" horiz-adv-x="568" d="M352 455 C283 512 220 565 221 654 C221 713 275 757 342 757 C409 757 463 708 463 646 L494 646 C494 725 426 790 342 790 C257 790 190 730 188 655 C188 606 204 566 229 532 C217 534 204 536 192 536 C108 536 41 476 40 401 C38 298 110 236 181 178 C250 120 314 65 312 -26 C310 -122 228 -133 192 -133 C126 -133 73 -83 73 -20 L41 -20 C41 -100 109 -164 192 -164 C283 -164 342 -112 343 -28 C344 20 331 59 308 92 C319 90 331 89 342 89 C434 89 492 142 494 226 C497 334 424 395 352 455 L352 455 Z M463 227 C461 131 378 121 342 121 C310 121 280 132 257 154 L257 154 C239 170 220 186 202 202 C134 258 70 312 71 401 C72 458 125 504 192 504 C227 504 263 491 283 472 L284 472 C299 457 316 444 331 431 C400 373 466 319 463 227 L463 227 Z " />
<glyph glyph-name="dieresis" unicode="&#xa8;" horiz-adv-x="246" d="M40 721 L79 721 L79 768 L40 768 L40 721 L40 721 Z M104 721 L143 721 L143 768 L104 768 L104 721 L104 721 Z " />
<glyph glyph-name="copyright" unicode="&#xa9;" horiz-adv-x="611" d="M289 823 C151 823 40 703 40 556 L40 268 C40 120 151 0 289 0 C427 0 539 120 539 268 L539 556 C539 703 427 823 289 823 L289 823 Z M508 268 C508 137 409 31 289 31 C169 31 71 137 71 268 L71 556 C71 686 169 792 289 792 C409 792 508 686 508 556 L508 268 L508 268 Z M295 653 C324 653 352 637 371 608 L396 626 C371 664 335 685 295 685 C223 685 164 613 164 527 L164 296 C164 210 223 138 295 138 C334 138 370 160 395 194 L370 212 C350 186 323 170 295 170 C240 170 196 227 196 296 L196 527 C196 596 240 653 295 653 L295 653 Z " />
<glyph glyph-name="ordfeminine" unicode="&#xaa;" horiz-adv-x="226" d="M103 790 L99 790 L99 790 C67 788 40 761 40 728 L59 728 C59 752 77 772 100 772 C124 771 143 750 143 724 L143 657 C129 676 109 688 86 688 C45 688 12 650 12 604 L12 548 C12 501 45 464 86 464 C109 464 129 476 143 495 L143 464 L160 464 L161 724 C161 759 134 788 103 790 L103 790 Z M141 548 C141 511 117 481 86 481 C55 481 30 511 30 548 L30 604 C30 640 55 671 86 671 C117 671 141 640 141 604 L141 548 L141 548 Z " />
<glyph glyph-name="guillemotleft" unicode="&#xab;" horiz-adv-x="419" d="M167 598 L40 395 L166 187 L193 203 L77 394 L193 581 L167 598 Z M275 598 L148 395 L274 187 L301 203 L185 394 L301 581 L275 598 Z " />
<glyph glyph-name="logicalnot" unicode="&#xac;" horiz-adv-x="604" d="M535 192 L566 192 L566 378 L40 378 L40 346 L535 346 L535 192 Z " />
<glyph glyph-name="uni00AD" unicode="&#xad;" horiz-adv-x="349" d="M32 371 L337 371 L337 409 L32 409 L32 371 Z " />
<glyph glyph-name="registered" unicode="&#xae;" horiz-adv-x="544" d="M316 409 C338 425 354 452 354 482 L354 577 C354 624 316 664 270 664 L179 664 L179 662 L179 632 L179 427 L179 396 L179 256 L210 256 L210 395 L263 395 C296 395 324 367 324 332 L324 254 L355 254 L355 332 C355 365 340 392 316 409 L316 409 Z M270 427 L210 427 L210 632 L270 632 C299 632 322 607 322 577 L322 482 C322 451 299 427 270 427 L270 427 Z M308 799 L214 799 C118 799 40 722 40 626 L40 280 C40 185 118 107 214 107 L308 107 C404 107 482 185 482 280 L482 626 C482 722 404 799 308 799 L308 799 Z M451 280 C451 202 388 138 308 138 L214 138 C134 138 71 202 71 280 L71 626 C71 704 134 768 214 768 L308 768 C388 768 451 704 451 626 L451 280 L451 280 Z " />
<glyph glyph-name="macron" unicode="&#xaf;" horiz-adv-x="451" d="M40 680 L395 680 L395 713 L40 713 L40 680 Z " />
<glyph glyph-name="degree" unicode="&#xb0;" horiz-adv-x="217" d="M112 797 C72 797 40 764 40 725 C40 685 72 653 112 653 C152 653 185 685 185 725 C185 764 152 797 112 797 L112 797 Z M112 684 C90 684 71 702 71 725 C71 748 90 766 112 766 C134 766 154 748 154 725 C154 702 134 684 112 684 L112 684 Z " />
<glyph glyph-name="plusminus" unicode="&#xb1;" horiz-adv-x="368" d="M40 204 L364 204 L364 236 L40 236 L40 204 L40 204 Z M217 628 L186 628 L186 482 L40 482 L40 450 L186 450 L186 304 L217 304 L217 450 L364 450 L364 482 L217 482 L217 628 L217 628 Z " />
<glyph glyph-name="twosuperior" unicode="&#xb2;" horiz-adv-x="259" d="M216 708 C215 766 176 811 128 811 C82 811 43 762 43 702 L74 702 C74 744 100 780 128 780 C160 780 184 748 184 708 C185 643 152 602 118 560 C80 516 42 469 43 390 L43 374 L215 374 L215 406 L76 406 C79 464 109 502 142 541 C179 586 216 631 216 708 L216 708 Z " />
<glyph glyph-name="threesuperior" unicode="&#xb3;" horiz-adv-x="234" d="M113 680 L203 808 L34 808 L34 776 L142 776 L53 652 L84 652 C142 652 174 605 174 521 C174 443 145 402 119 402 C90 402 65 437 65 480 L34 480 C34 419 72 370 119 370 C170 370 205 432 205 521 C205 610 172 667 113 680 L113 680 Z " />
<glyph glyph-name="acute" unicode="&#xb4;" horiz-adv-x="146" d="M40 697 L67 697 L85 786 L50 786 L40 697 L40 697 Z " />
<glyph glyph-name="&amp;#xb5;" unicode="&#xb5;" horiz-adv-x="368" d="M270 542 L270 181 C270 116 226 62 170 62 C116 62 71 116 71 181 L71 582 L71 582 L40 582 L40 582 L40 181 L40 -127 L71 -127 L71 84 C95 52 131 31 170 31 C211 31 246 52 270 84 L270 -1 L302 -1 L302 181 L302 542 L302 582 L270 582 L270 542 L270 542 Z " />
<glyph glyph-name="&amp;#x3bc;" unicode="&#x3bc;" horiz-adv-x="368" d="M270 542 L270 181 C270 116 226 62 170 62 C116 62 71 116 71 181 L71 582 L71 582 L40 582 L40 582 L40 181 L40 -127 L71 -127 L71 84 C95 52 131 31 170 31 C211 31 246 52 270 84 L270 -1 L302 -1 L302 181 L302 542 L302 582 L270 582 L270 542 L270 542 Z " />
<glyph glyph-name="paragraph" unicode="&#xb6;" horiz-adv-x="532" d="M385 -13 L416 -13 L416 829 L331 829 L331 832 L180 832 C102 832 40 758 40 670 L40 475 C40 385 102 313 180 313 L300 313 L300 -13 L331 -13 L331 313 L331 344 L331 798 L385 798 L385 -13 L385 -13 Z " />
<glyph glyph-name="periodcentered" unicode="&#xb7;" horiz-adv-x="146" d="M84 476 C55 476 31 452 31 422 C31 394 55 370 84 370 C113 370 137 394 137 422 C137 452 113 476 84 476 L84 476 Z " />
<glyph glyph-name="cedilla" unicode="&#xb8;" horiz-adv-x="182" d="M97 25 L66 25 C66 -13 83 -35 96 -50 C106 -62 110 -68 110 -77 C110 -101 74 -114 40 -114 L40 -145 C100 -145 142 -118 142 -77 C142 -58 131 -44 121 -31 C109 -17 97 -2 97 25 L97 25 Z " />
<glyph glyph-name="onesuperior" unicode="&#xb9;" horiz-adv-x="161" d="M70 810 L36 772 L59 750 L76 769 L76 372 L107 372 L107 810 L70 810 Z " />
<glyph glyph-name="ordmasculine" unicode="&#xba;" horiz-adv-x="367" d="M169 583 L167 583 C97 583 40 526 40 456 L40 335 C40 264 97 206 167 206 L169 206 C240 206 298 264 298 335 L298 456 C298 526 240 583 169 583 L169 583 Z M270 335 C270 278 226 234 169 234 L167 234 C112 234 66 278 66 335 L66 456 C66 511 112 557 167 557 L169 557 C226 557 270 511 270 456 L270 335 L270 335 Z " />
<glyph glyph-name="guillemotright" unicode="&#xbb;" horiz-adv-x="425" d="M148 581 L264 394 L148 203 L175 187 L301 395 L174 598 L148 581 Z M40 581 L156 394 L40 203 L67 187 L193 395 L66 598 L40 581 Z " />
<glyph glyph-name="onequarter" unicode="&#xbc;" horiz-adv-x="532" d="M94 810 L60 772 L83 750 L100 769 L100 372 L131 372 L131 810 L94 810 Z M404 438 L373 438 L246 152 L373 152 L373 0 L404 0 L404 152 L456 152 L456 184 L404 184 L404 438 L404 438 Z M373 184 L294 184 L373 361 L373 184 L373 184 Z M392 804 L108 -1 L71 -1 L354 804 L392 804 L392 804 Z " />
<glyph glyph-name="onehalf" unicode="&#xbd;" horiz-adv-x="498" d="M94 810 L60 772 L83 750 L100 769 L100 372 L131 372 L131 810 L94 810 L94 810 Z M439 334 C438 391 400 437 352 437 C305 437 266 388 266 328 L298 328 C298 370 323 406 352 406 C383 406 407 373 407 334 C408 269 376 228 341 186 C304 142 265 95 266 16 L266 0 L438 0 L438 31 L299 31 C302 90 332 127 365 167 C402 211 439 257 439 334 L439 334 Z M379 804 L95 -1 L58 -1 L341 804 L379 804 L379 804 Z " />
<glyph glyph-name="threequarters" unicode="&#xbe;" horiz-adv-x="529" d="M137 680 L227 808 L58 808 L58 776 L166 776 L77 652 L108 652 C166 652 198 605 198 521 C198 443 169 402 143 402 C114 402 89 437 89 480 L58 480 C58 419 96 370 143 370 C194 370 229 432 229 521 C229 610 196 667 137 680 L137 680 Z M418 440 L386 440 L259 155 L386 155 L386 2 L418 2 L418 155 L469 155 L469 186 L418 186 L418 440 Z M386 186 L307 186 L386 364 L386 186 Z M420 804 L136 -1 L99 -1 L382 804 L420 804 L420 804 Z " />
<glyph glyph-name="questiondown" unicode="&#xbf;" horiz-adv-x="398" d="M251 588 L218 588 L218 552 L251 552 L251 588 L251 588 Z M198 -202 C284 -202 354 -119 354 -19 L323 -19 C323 -102 266 -169 198 -169 C128 -169 73 -108 73 -30 C72 90 114 137 160 187 C208 240 257 295 254 431 L222 431 C224 306 181 259 136 208 C89 156 40 102 41 -30 C42 -126 112 -202 198 -202 L198 -202 Z " />
<glyph glyph-name="Agrave" unicode="&#xc0;" horiz-adv-x="434" d="M191 810 L35 0 L67 0 L114 247 L300 247 L347 0 L378 0 L227 810 L191 810 L191 810 Z M121 280 L209 734 L294 280 L121 280 L121 280 Z M186 1000 L204 912 L231 912 L222 1000 L186 1000 L186 1000 Z " />
<glyph glyph-name="Aacute" unicode="&#xc1;" horiz-adv-x="434" d="M191 810 L35 0 L67 0 L114 247 L300 247 L347 0 L378 0 L227 810 L191 810 L191 810 Z M121 280 L209 734 L294 280 L121 280 L121 280 Z M186 921 L213 921 L231 1010 L196 1010 L186 921 L186 921 Z " />
<glyph glyph-name="Acircumflex" unicode="&#xc2;" horiz-adv-x="434" d="M191 810 L35 0 L67 0 L114 247 L300 247 L347 0 L378 0 L227 810 L191 810 L191 810 Z M121 280 L209 734 L294 280 L121 280 L121 280 Z M60 869 L80 845 L205 952 L328 850 L348 875 L205 993 L60 869 L60 869 Z " />
<glyph glyph-name="Atilde" unicode="&#xc3;" horiz-adv-x="434" d="M191 810 L35 0 L67 0 L114 247 L300 247 L347 0 L378 0 L227 810 L191 810 L191 810 Z M121 280 L209 734 L294 280 L121 280 L121 280 Z M224 952 C175 984 117 1018 17 918 L39 895 C122 979 162 954 207 925 C233 909 259 894 291 894 C324 894 363 909 413 958 L390 981 C308 900 271 922 224 952 L224 952 Z " />
<glyph glyph-name="Adieresis" unicode="&#xc4;" horiz-adv-x="434" d="M191 810 L35 0 L67 0 L114 247 L300 247 L347 0 L378 0 L227 810 L191 810 L191 810 Z M121 280 L209 734 L294 280 L121 280 L121 280 Z M155 861 L194 861 L194 908 L155 908 L155 861 L155 861 Z M219 861 L258 861 L258 908 L219 908 L219 861 L219 861 Z " />
<glyph glyph-name="Aring" unicode="&#xc5;" horiz-adv-x="434" d="M191 810 L35 0 L67 0 L114 247 L300 247 L347 0 L378 0 L227 810 L191 810 L191 810 Z M121 280 L209 734 L294 280 L121 280 L121 280 Z M220 999 C180 999 148 966 148 927 C148 887 180 855 220 855 C260 855 293 887 293 927 C293 966 260 999 220 999 L220 999 Z M220 886 C198 886 179 904 179 927 C179 950 198 968 220 968 C242 968 262 950 262 927 C262 904 242 886 220 886 L220 886 Z " />
<glyph glyph-name="AE" unicode="&#xc6;" horiz-adv-x="653" d="M592 780 L592 811 L366 811 L366 810 L356 810 L58 1 L90 1 L180 247 L366 247 L366 242 L366 1 L370 1 L401 1 L592 1 L592 32 L401 32 L397 318 L397 353 L542 353 L542 385 L397 385 L397 780 L592 780 L592 780 Z M193 280 L361 734 L366 280 L193 280 L193 280 Z " />
<glyph glyph-name="Ccedilla" unicode="&#xc7;" horiz-adv-x="413" d="M186 778 L195 778 C226 778 256 764 279 740 C293 725 304 704 310 683 L340 691 C333 718 319 743 301 762 C273 792 235 810 195 810 L186 810 C102 810 35 737 35 647 L35 162 C35 72 102 0 186 0 L195 0 C258 0 316 43 337 107 L307 118 C289 66 245 31 195 31 L186 31 C120 31 66 90 66 162 L66 647 C66 719 120 778 186 778 L186 778 Z M224 -5 L193 -5 C193 -43 210 -65 223 -80 C233 -92 237 -98 237 -107 C237 -131 201 -144 167 -144 L167 -175 C227 -175 269 -148 269 -107 C269 -88 258 -74 248 -61 C236 -47 224 -32 224 -5 L224 -5 Z " />
<glyph glyph-name="Egrave" unicode="&#xc8;" horiz-adv-x="335" d="M35 0 L261 0 L261 31 L66 31 L66 353 L211 353 L211 385 L66 385 L66 780 L261 780 L261 811 L35 811 L35 0 L35 0 Z M136 1000 L154 912 L181 912 L172 1000 L136 1000 L136 1000 Z " />
<glyph glyph-name="Eacute" unicode="&#xc9;" horiz-adv-x="335" d="M35 0 L261 0 L261 31 L66 31 L66 353 L211 353 L211 385 L66 385 L66 780 L261 780 L261 811 L35 811 L35 0 L35 0 Z M136 921 L163 921 L181 1010 L146 1010 L136 921 L136 921 Z " />
<glyph glyph-name="Ecircumflex" unicode="&#xca;" horiz-adv-x="335" d="M35 0 L261 0 L261 31 L66 31 L66 353 L211 353 L211 385 L66 385 L66 780 L261 780 L261 811 L35 811 L35 0 L35 0 Z M12 950 L32 926 L157 1033 L280 931 L300 956 L157 1074 L12 950 L12 950 Z " />
<glyph glyph-name="Edieresis" unicode="&#xcb;" horiz-adv-x="335" d="M35 0 L261 0 L261 31 L66 31 L66 353 L211 353 L211 385 L66 385 L66 780 L261 780 L261 811 L35 811 L35 0 L35 0 Z M88 866 L127 866 L127 913 L88 913 L88 866 L88 866 Z M152 866 L191 866 L191 913 L152 913 L152 866 L152 866 Z " />
<glyph glyph-name="Igrave" unicode="&#xcc;" horiz-adv-x="145" d="M35 0 L66 0 L66 810 L35 810 L35 0 L35 0 Z M41 1000 L59 912 L86 912 L77 1000 L41 1000 L41 1000 Z " />
<glyph glyph-name="Iacute" unicode="&#xcd;" horiz-adv-x="145" d="M35 0 L66 0 L66 810 L35 810 L35 0 L35 0 Z M41 921 L68 921 L86 1010 L51 1010 L41 921 L41 921 Z " />
<glyph glyph-name="Icircumflex" unicode="&#xce;" horiz-adv-x="145" d="M35 0 L66 0 L66 810 L35 810 L35 0 L35 0 Z M-84 950 L-64 926 L61 1033 L184 931 L204 956 L61 1074 L-84 950 L-84 950 Z " />
<glyph glyph-name="Idieresis" unicode="&#xcf;" horiz-adv-x="145" d="M35 0 L66 0 L66 810 L35 810 L35 0 L35 0 Z M-22 945 L17 945 L17 992 L-22 992 L-22 945 L-22 945 Z M42 945 L81 945 L81 992 L42 992 L42 945 L42 945 Z " />
<glyph glyph-name="Eth" unicode="&#xd0;" horiz-adv-x="421" d="M204 810 L85 810 L54 810 L54 425 L4 425 L4 392 L54 392 L54 1 L65 1 L206 1 C284 1 347 68 347 151 L347 662 C347 744 283 810 204 810 L204 810 Z M316 151 C316 85 266 32 206 32 L85 32 L85 392 L248 392 L248 425 L85 425 L85 779 L204 779 C265 779 316 726 316 662 L316 151 L316 151 Z " />
<glyph glyph-name="Ntilde" unicode="&#xd1;" horiz-adv-x="430" d="M70 812 L37 812 L37 812 L37 0 L69 0 L69 719 L310 0 L345 0 L345 0 L345 811 L312 811 L312 90 L70 812 Z M222 952 C173 984 115 1018 15 918 L37 895 C120 979 160 954 205 925 C231 909 257 894 289 894 C322 894 361 909 411 958 L388 981 C306 900 269 922 222 952 L222 952 Z " />
<glyph glyph-name="Ograve" unicode="&#xd2;" horiz-adv-x="414" d="M195 811 L186 811 C102 811 35 744 35 661 L36 150 C36 67 103 0 187 0 L197 0 C280 0 347 67 347 150 L346 661 C346 744 279 811 195 811 L195 811 Z M197 31 L187 31 C121 31 67 84 67 150 L66 661 C66 726 120 780 186 780 L195 780 C261 780 315 726 315 661 L316 150 C316 84 262 31 197 31 L197 31 Z M176 1000 L194 912 L221 912 L212 1000 L176 1000 L176 1000 Z " />
<glyph glyph-name="Oacute" unicode="&#xd3;" horiz-adv-x="414" d="M195 811 L186 811 C102 811 35 744 35 661 L36 150 C36 67 103 0 187 0 L197 0 C280 0 347 67 347 150 L346 661 C346 744 279 811 195 811 L195 811 Z M197 31 L187 31 C121 31 67 84 67 150 L66 661 C66 726 120 780 186 780 L195 780 C261 780 315 726 315 661 L316 150 C316 84 262 31 197 31 L197 31 Z M176 901 L203 901 L221 990 L186 990 L176 901 L176 901 Z " />
<glyph glyph-name="Ocircumflex" unicode="&#xd4;" horiz-adv-x="414" d="M195 811 L186 811 C102 811 35 744 35 661 L36 150 C36 67 103 0 187 0 L197 0 C280 0 347 67 347 150 L346 661 C346 744 279 811 195 811 L195 811 Z M197 31 L187 31 C121 31 67 84 67 150 L66 661 C66 726 120 780 186 780 L195 780 C261 780 315 726 315 661 L316 150 C316 84 262 31 197 31 L197 31 Z M51 950 L71 926 L196 1033 L319 931 L339 956 L196 1074 L51 950 L51 950 Z " />
<glyph glyph-name="Otilde" unicode="&#xd5;" horiz-adv-x="414" d="M195 811 L186 811 C102 811 35 744 35 661 L36 150 C36 67 103 0 187 0 L197 0 C280 0 347 67 347 150 L346 661 C346 744 279 811 195 811 L195 811 Z M197 31 L187 31 C121 31 67 84 67 150 L66 661 C66 726 120 780 186 780 L195 780 C261 780 315 726 315 661 L316 150 C316 84 262 31 197 31 L197 31 Z M215 952 C166 984 108 1018 8 918 L30 895 C113 979 153 954 198 925 C224 909 250 894 282 894 C315 894 354 909 404 958 L381 981 C299 900 262 922 215 952 L215 952 Z " />
<glyph glyph-name="Odieresis" unicode="&#xd6;" horiz-adv-x="414" d="M195 811 L186 811 C102 811 35 744 35 661 L36 150 C36 67 103 0 187 0 L197 0 C280 0 347 67 347 150 L346 661 C346 744 279 811 195 811 L195 811 Z M197 31 L187 31 C121 31 67 84 67 150 L66 661 C66 726 120 780 186 780 L195 780 C261 780 315 726 315 661 L316 150 C316 84 262 31 197 31 L197 31 Z M147 890 L186 890 L186 937 L147 937 L147 890 L147 890 Z M211 890 L250 890 L250 937 L211 937 L211 890 L211 890 Z " />
<glyph glyph-name="multiply" unicode="&#xd7;" horiz-adv-x="341" d="M269 528 L166 425 L62 528 L40 507 L143 404 L40 299 L62 278 L166 381 L269 278 L290 299 L187 404 L290 507 L269 528 L269 528 Z " />
<glyph glyph-name="Oslash" unicode="&#xd8;" horiz-adv-x="428" d="M325 778 L301 703 C275 728 239 743 199 743 L191 743 C107 743 40 676 40 593 L40 150 C40 104 59 65 90 37 L62 -50 L92 -60 L118 18 C139 6 164 -1 191 -1 L199 -1 C283 -1 350 66 350 150 L350 593 C350 623 341 652 325 674 L355 768 L325 778 L325 778 Z M101 71 C83 91 71 119 71 150 L71 593 C71 658 125 712 191 712 L199 712 C236 712 269 695 290 670 L101 71 L101 71 Z M319 150 C319 84 265 30 199 30 L191 30 C167 30 145 37 127 48 L312 632 C317 619 319 606 319 593 L319 150 L319 150 Z " />
<glyph glyph-name="Ugrave" unicode="&#xd9;" horiz-adv-x="422" d="M315 150 C315 84 261 31 195 31 L186 31 C120 31 66 84 66 150 L66 811 L35 811 L35 150 C35 67 102 0 186 0 L195 0 C279 0 346 67 346 150 L346 811 L315 811 L315 150 L315 150 Z M179 1000 L197 912 L224 912 L215 1000 L179 1000 L179 1000 Z " />
<glyph glyph-name="Uacute" unicode="&#xda;" horiz-adv-x="422" d="M315 150 C315 84 261 31 195 31 L186 31 C120 31 66 84 66 150 L66 811 L35 811 L35 150 C35 67 102 0 186 0 L195 0 C279 0 346 67 346 150 L346 811 L315 811 L315 150 L315 150 Z M179 921 L206 921 L224 1010 L189 1010 L179 921 L179 921 Z " />
<glyph glyph-name="Ucircumflex" unicode="&#xdb;" horiz-adv-x="422" d="M315 150 C315 84 261 31 195 31 L186 31 C120 31 66 84 66 150 L66 811 L35 811 L35 150 C35 67 102 0 186 0 L195 0 C279 0 346 67 346 150 L346 811 L315 811 L315 150 L315 150 Z M54 950 L74 926 L199 1033 L322 931 L342 956 L199 1074 L54 950 L54 950 Z " />
<glyph glyph-name="Udieresis" unicode="&#xdc;" horiz-adv-x="422" d="M315 150 C315 84 261 31 195 31 L186 31 C120 31 66 84 66 150 L66 811 L35 811 L35 150 C35 67 102 0 186 0 L195 0 C279 0 346 67 346 150 L346 811 L315 811 L315 150 L315 150 Z M137 945 L176 945 L176 992 L137 992 L137 945 L137 945 Z M201 945 L240 945 L240 992 L201 992 L201 945 L201 945 Z " />
<glyph glyph-name="Yacute" unicode="&#xdd;" horiz-adv-x="442" d="M67 811 L35 811 L185 305 L185 0 L216 0 L216 307 L360 811 L328 811 L199 365 L67 811 Z M189 921 L216 921 L234 1010 L199 1010 L189 921 L189 921 Z " />
<glyph glyph-name="Thorn" unicode="&#xde;" horiz-adv-x="366" d="M188 754 C146 754 109 732 85 697 L85 863 L54 863 L54 0 L85 0 L85 224 C109 190 146 168 188 168 C260 168 319 235 319 318 L319 604 C319 686 260 754 188 754 L188 754 Z M288 318 C288 252 242 199 188 199 C133 199 89 252 89 318 L89 604 C89 670 133 722 188 722 C242 722 288 670 288 604 L288 318 Z " />
<glyph glyph-name="germandbls" unicode="&#xdf;" horiz-adv-x="444" d="M373 246 C373 344 348 418 298 462 C277 479 256 490 236 497 C236 497 238 497 239 498 C290 524 322 569 329 624 C341 720 298 767 270 785 C227 816 163 820 113 793 C66 769 40 725 40 673 L40 -4 L71 -4 L71 673 C71 727 106 754 127 764 C167 786 217 784 252 760 C289 734 305 688 298 628 C283 523 175 508 161 505 C161 505 160 505 160 505 L163 474 C163 474 163 474 164 474 C173 475 229 479 277 438 C320 400 342 335 342 246 C342 168 326 113 294 82 C258 46 204 47 166 48 C160 48 154 49 149 49 L149 17 C154 17 158 17 164 17 C206 16 270 14 317 60 C355 97 373 158 373 246 L373 246 Z " />
<glyph glyph-name="agrave" unicode="&#xe0;" horiz-adv-x="376" d="M156 899 L174 811 L201 811 L192 899 L156 899 L156 899 Z M168 743 L38 71 L70 71 L109 279 L255 279 L294 71 L325 71 L200 743 L168 743 Z M249 310 L115 310 L183 637 L249 310 L249 310 Z " />
<glyph glyph-name="aacute" unicode="&#xe1;" horiz-adv-x="376" d="M167 825 L194 825 L212 914 L177 914 L167 825 L167 825 Z M168 743 L38 71 L70 71 L109 279 L255 279 L294 71 L325 71 L200 743 L168 743 Z M249 310 L115 310 L183 637 L249 310 L249 310 Z " />
<glyph glyph-name="acircumflex" unicode="&#xe2;" horiz-adv-x="376" d="M45 782 L65 758 L190 865 L313 763 L333 788 L190 906 L45 782 L45 782 Z M168 743 L38 71 L70 71 L109 279 L255 279 L294 71 L325 71 L200 743 L168 743 Z M249 310 L115 310 L183 637 L249 310 L249 310 Z " />
<glyph glyph-name="atilde" unicode="&#xe3;" horiz-adv-x="376" d="M211 857 C173 881 128 908 50 830 L67 812 C132 878 163 858 198 836 C218 823 238 812 263 812 C289 812 319 823 358 861 L340 879 C276 816 248 833 211 857 L211 857 Z M168 743 L38 71 L70 71 L109 279 L255 279 L294 71 L325 71 L200 743 L168 743 Z M249 310 L115 310 L183 637 L249 310 L249 310 Z " />
<glyph glyph-name="adieresis" unicode="&#xe4;" horiz-adv-x="376" d="M133 808 L172 808 L172 855 L133 855 L133 808 L133 808 Z M197 808 L236 808 L236 855 L197 855 L197 808 L197 808 Z M168 743 L38 71 L70 71 L109 279 L255 279 L294 71 L325 71 L200 743 L168 743 Z M249 310 L115 310 L183 637 L249 310 L249 310 Z " />
<glyph glyph-name="aring" unicode="&#xe5;" horiz-adv-x="360" d="M168 743 L38 71 L70 71 L109 279 L255 279 L294 71 L325 71 L200 743 L168 743 Z M249 310 L115 310 L183 637 L249 310 L249 310 Z M182 902 C142 902 110 869 110 830 C110 790 142 758 182 758 C222 758 255 790 255 830 C255 869 222 902 182 902 L182 902 Z M182 789 C160 789 141 807 141 830 C141 853 160 871 182 871 C204 871 224 853 224 830 C224 807 204 789 182 789 L182 789 Z " />
<glyph glyph-name="ae" unicode="&#xe6;" horiz-adv-x="542" d="M501 711 L501 742 L349 742 L316 742 L315 742 L315 739 L54 71 L86 71 L164 269 L313 269 L314 71 L315 71 L346 71 L501 71 L501 102 L346 102 L347 359 L460 359 L460 391 L347 391 L349 711 L501 711 L501 711 Z M176 298 L311 641 L313 298 L176 298 L176 298 Z " />
<glyph glyph-name="ccedilla" unicode="&#xe7;" horiz-adv-x="328" d="M167 551 C196 551 224 534 243 504 L269 521 C244 560 207 583 167 583 C95 583 36 508 36 414 L36 168 C36 74 95 0 167 0 C207 0 243 22 268 60 L242 77 C222 48 196 31 167 31 C113 31 68 92 68 168 L68 414 C68 490 113 551 167 551 L167 551 Z M175 14 L144 14 C144 -24 161 -46 174 -61 C184 -73 188 -79 188 -88 C188 -112 152 -125 118 -125 L118 -156 C178 -156 220 -129 220 -88 C220 -69 209 -55 199 -42 C187 -28 175 -13 175 14 L175 14 Z " />
<glyph glyph-name="egrave" unicode="&#xe8;" horiz-adv-x="300" d="M66 76 L252 76 L252 107 L97 107 L97 364 L211 364 L211 396 L97 396 L97 712 L252 712 L252 743 L66 743 L66 76 L66 76 Z M142 896 L160 808 L187 808 L178 896 L142 896 L142 896 Z " />
<glyph glyph-name="eacute" unicode="&#xe9;" horiz-adv-x="305" d="M152 785 L179 785 L197 874 L162 874 L152 785 L152 785 Z M66 76 L252 76 L252 107 L97 107 L97 364 L211 364 L211 396 L97 396 L97 712 L252 712 L252 743 L66 743 L66 76 L66 76 Z " />
<glyph glyph-name="ecircumflex" unicode="&#xea;" horiz-adv-x="314" d="M28 787 L48 763 L173 870 L296 768 L316 793 L173 911 L28 787 L28 787 Z M66 76 L252 76 L252 107 L97 107 L97 364 L211 364 L211 396 L97 396 L97 712 L252 712 L252 743 L66 743 L66 76 L66 76 Z " />
<glyph glyph-name="edieresis" unicode="&#xeb;" horiz-adv-x="316" d="M130 794 L169 794 L169 841 L130 841 L130 794 L130 794 Z M194 794 L233 794 L233 841 L194 841 L194 794 L194 794 Z M66 76 L252 76 L252 107 L97 107 L97 364 L211 364 L211 396 L97 396 L97 712 L252 712 L252 743 L66 743 L66 76 L66 76 Z " />
<glyph glyph-name="igrave" unicode="&#xec;" horiz-adv-x="196" d="M-56 709 L98 709 L98 67 L130 67 L130 740 L-56 740 L-56 709 L-56 709 Z M11 876 L29 788 L56 788 L47 876 L11 876 L11 876 Z " />
<glyph glyph-name="iacute" unicode="&#xed;" horiz-adv-x="196" d="M-56 709 L98 709 L98 67 L130 67 L130 740 L-56 740 L-56 709 L-56 709 Z M29 788 L56 788 L74 877 L39 877 L29 788 L29 788 Z " />
<glyph glyph-name="icircumflex" unicode="&#xee;" horiz-adv-x="196" d="M-56 709 L98 709 L98 67 L130 67 L130 740 L-56 740 L-56 709 L-56 709 Z M-97 800 L-77 776 L48 883 L171 781 L191 806 L48 924 L-97 800 L-97 800 Z " />
<glyph glyph-name="idieresis" unicode="&#xef;" horiz-adv-x="188" d="M-56 712 L98 712 L98 70 L130 70 L130 743 L-56 743 L-56 712 L-56 712 Z M11 785 L50 785 L50 832 L11 832 L11 785 L11 785 Z M75 785 L114 785 L114 832 L75 832 L75 785 L75 785 Z " />
<glyph glyph-name="eth" unicode="&#xf0;" horiz-adv-x="378" d="M179 37 C256 37 318 104 318 188 L318 197 L318 371 L318 631 C318 710 263 775 193 782 L193 878 L161 878 L161 782 C92 773 40 709 40 631 L71 631 C71 691 110 740 161 750 L161 630 L193 630 L193 750 C246 743 287 692 287 631 L287 467 C262 500 222 522 179 522 C102 522 40 455 40 371 L40 197 C40 194 40 191 40 188 L40 188 C40 104 102 37 179 37 L179 37 Z M71 371 C71 437 120 491 179 491 C239 491 287 437 287 371 L287 197 C287 131 239 78 179 78 C120 78 71 131 71 197 L71 371 L71 371 Z " />
<glyph glyph-name="ntilde" unicode="&#xf1;" horiz-adv-x="372" d="M327 742 L296 742 L296 159 L97 742 L64 742 L63 742 L63 742 L63 742 L63 71 L57 71 L57 71 L94 71 L94 650 L292 71 L327 71 L327 742 L327 742 Z M204 837 C155 869 97 903 -3 803 L19 780 C102 864 142 839 187 810 C213 794 239 779 271 779 C304 779 343 794 393 843 L370 866 C288 785 251 807 204 837 L204 837 Z " />
<glyph glyph-name="ograve" unicode="&#xf2;" horiz-adv-x="367" d="M161 860 L179 772 L206 772 L197 860 L161 860 L161 860 Z M186 742 C117 742 59 675 59 592 L59 221 C59 138 117 71 186 71 C256 71 313 138 313 221 L313 592 C313 675 256 742 186 742 L186 742 Z M282 221 C282 155 239 102 186 102 C133 102 90 155 90 221 L90 592 C90 657 133 711 186 711 C239 711 282 657 282 592 L282 221 L282 221 Z " />
<glyph glyph-name="oacute" unicode="&#xf3;" horiz-adv-x="367" d="M174 774 L201 774 L219 863 L184 863 L174 774 L174 774 Z M186 742 C117 742 59 675 59 592 L59 221 C59 138 117 71 186 71 C256 71 313 138 313 221 L313 592 C313 675 256 742 186 742 L186 742 Z M282 221 C282 155 239 102 186 102 C133 102 90 155 90 221 L90 592 C90 657 133 711 186 711 C239 711 282 657 282 592 L282 221 L282 221 Z " />
<glyph glyph-name="ocircumflex" unicode="&#xf4;" horiz-adv-x="367" d="M186 742 C117 742 59 675 59 592 L59 221 C59 138 117 71 186 71 C256 71 313 138 313 221 L313 592 C313 675 256 742 186 742 L186 742 Z M282 221 C282 155 239 102 186 102 C133 102 90 155 90 221 L90 592 C90 657 133 711 186 711 C239 711 282 657 282 592 L282 221 L282 221 Z M48 776 L68 752 L193 859 L316 757 L336 782 L193 900 L48 776 L48 776 Z " />
<glyph glyph-name="otilde" unicode="&#xf5;" horiz-adv-x="353" d="M169 742 C100 742 42 675 42 592 L42 221 C42 138 100 71 169 71 C239 71 296 138 296 221 L296 592 C296 675 239 742 169 742 L169 742 Z M265 221 C265 155 222 102 169 102 C116 102 73 155 73 221 L73 592 C73 657 116 711 169 711 C222 711 265 657 265 592 L265 221 L265 221 Z M176 871 C127 903 69 937 -31 837 L-9 814 C74 898 114 873 159 844 C185 828 211 813 243 813 C276 813 315 828 365 877 L342 900 C260 819 223 841 176 871 L176 871 Z " />
<glyph glyph-name="odieresis" unicode="&#xf6;" horiz-adv-x="367" d="M189 742 C120 742 62 675 62 592 L62 221 C62 138 120 71 189 71 C259 71 316 138 316 221 L316 592 C316 675 259 742 189 742 L189 742 Z M285 221 C285 155 242 102 189 102 C136 102 93 155 93 221 L93 592 C93 657 136 711 189 711 C242 711 285 657 285 592 L285 221 L285 221 Z M139 779 L178 779 L178 826 L139 826 L139 779 L139 779 Z M203 779 L242 779 L242 826 L203 826 L203 779 L203 779 Z " />
<glyph glyph-name="divide" unicode="&#xf7;" horiz-adv-x="391" d="M202 462 C221 462 236 479 236 498 C236 517 221 533 202 533 C182 533 167 517 167 498 C167 479 182 462 202 462 L202 462 Z M202 318 C182 318 167 302 167 283 C167 264 182 248 202 248 C221 248 236 264 236 283 C236 302 221 318 202 318 L202 318 Z M40 374 L364 374 L364 406 L40 406 L40 374 L40 374 Z " />
<glyph glyph-name="oslash" unicode="&#xf8;" horiz-adv-x="374" d="M331 804 L293 804 L260 710 C238 730 211 742 181 742 C112 742 54 675 54 592 L54 221 C54 198 58 177 66 158 L10 -1 L47 -1 L89 118 C112 89 145 71 181 71 C251 71 308 138 308 221 L308 592 C308 623 300 652 286 676 L331 804 L331 804 Z M85 221 L85 592 C85 657 128 711 181 711 C207 711 231 698 248 677 L85 213 C85 216 85 218 85 221 L85 221 Z M277 592 L277 221 C277 155 234 102 181 102 C148 102 119 122 102 154 L271 634 C275 621 277 607 277 592 L277 592 Z " />
<glyph glyph-name="ugrave" unicode="&#xf9;" horiz-adv-x="367" d="M269 221 C269 155 225 102 171 102 C117 102 72 155 72 221 L72 743 L41 743 L41 221 C41 138 100 71 171 71 C243 71 300 138 300 221 L300 743 L269 743 L269 221 L269 221 Z M152 858 L170 770 L197 770 L188 858 L152 858 L152 858 Z " />
<glyph glyph-name="uacute" unicode="&#xfa;" horiz-adv-x="367" d="M269 221 C269 155 225 102 171 102 C117 102 72 155 72 221 L72 743 L41 743 L41 221 C41 138 100 71 171 71 C243 71 300 138 300 221 L300 743 L269 743 L269 221 L269 221 Z M152 788 L179 788 L197 877 L162 877 L152 788 L152 788 Z " />
<glyph glyph-name="ucircumflex" unicode="&#xfb;" horiz-adv-x="367" d="M269 221 C269 155 225 102 171 102 C117 102 72 155 72 221 L72 743 L41 743 L41 221 C41 138 100 71 171 71 C243 71 300 138 300 221 L300 743 L269 743 L269 221 L269 221 Z M28 808 L48 784 L173 891 L296 789 L316 814 L173 932 L28 808 L28 808 Z " />
<glyph glyph-name="udieresis" unicode="&#xfc;" horiz-adv-x="367" d="M269 221 C269 155 225 102 171 102 C117 102 72 155 72 221 L72 743 L41 743 L41 221 C41 138 100 71 171 71 C243 71 300 138 300 221 L300 743 L269 743 L269 221 L269 221 Z M128 797 L167 797 L167 844 L128 844 L128 797 L128 797 Z M192 797 L231 797 L231 844 L192 844 L192 797 L192 797 Z " />
<glyph glyph-name="yacute" unicode="&#xfd;" horiz-adv-x="374" d="M167 382 L60 742 L28 742 L152 322 L152 72 L152 71 L184 71 L184 72 L184 324 L303 742 L270 742 L167 382 L167 382 Z M155 783 L182 783 L200 872 L165 872 L155 783 L155 783 Z " />
<glyph glyph-name="thorn" unicode="&#xfe;" horiz-adv-x="382" d="M188 586 C146 586 109 564 85 529 L85 695 L54 695 L54 -168 L85 -168 L85 56 C109 22 146 0 188 0 C260 0 319 67 319 150 L319 436 C319 518 260 586 188 586 L188 586 Z M288 150 C288 84 242 31 188 31 C133 31 89 84 89 150 L89 436 C89 502 133 554 188 554 C242 554 288 502 288 436 L288 150 Z " />
<glyph glyph-name="ydieresis" unicode="&#xff;" horiz-adv-x="374" d="M167 382 L60 742 L28 742 L152 322 L152 72 L152 71 L184 71 L184 72 L184 324 L303 742 L270 742 L167 382 L167 382 Z M117 774 L156 774 L156 821 L117 821 L117 774 L117 774 Z M181 774 L220 774 L220 821 L181 821 L181 774 L181 774 Z " />
<glyph glyph-name="Amacron" unicode="&#x100;" horiz-adv-x="434" d="M191 810 L35 0 L67 0 L114 247 L300 247 L347 0 L378 0 L227 810 L191 810 L191 810 Z M121 280 L209 734 L294 280 L121 280 L121 280 Z M211 997 L88 1050 L76 1020 L211 963 L349 1022 L337 1051 L211 997 L211 997 Z " />
<glyph glyph-name="amacron" unicode="&#x101;" horiz-adv-x="376" d="M195 817 L72 870 L60 840 L195 783 L333 842 L321 871 L195 817 L195 817 Z M184 743 L54 71 L86 71 L125 279 L271 279 L310 71 L341 71 L216 743 L184 743 Z M265 310 L131 310 L199 637 L265 310 L265 310 Z " />
<glyph glyph-name="Abreve" unicode="&#x102;" horiz-adv-x="434" d="M191 810 L35 0 L67 0 L114 247 L300 247 L347 0 L378 0 L227 810 L191 810 L191 810 Z M121 280 L209 734 L294 280 L121 280 L121 280 Z M205 918 C151 918 106 970 106 1036 L75 1036 C75 954 133 885 205 885 C279 885 337 954 337 1036 L305 1036 C305 970 261 918 205 918 L205 918 Z " />
<glyph glyph-name="abreve" unicode="&#x103;" horiz-adv-x="376" d="M206 823 C152 823 107 875 107 941 L76 941 C76 859 134 790 206 790 C280 790 338 859 338 941 L306 941 C306 875 262 823 206 823 L206 823 Z M184 743 L54 71 L86 71 L125 279 L271 279 L310 71 L341 71 L216 743 L184 743 Z M265 310 L131 310 L199 637 L265 310 L265 310 Z " />
<glyph glyph-name="Aogonek" unicode="&#x104;" horiz-adv-x="434" d="M191 810 L35 0 L67 0 L114 247 L300 247 L347 0 L378 0 L227 810 L191 810 L191 810 Z M121 280 L209 734 L294 280 L121 280 L121 280 Z M328 -127 C328 -118 334 -112 342 -100 C355 -85 372 -63 372 -25 L341 -25 C341 -52 329 -67 318 -81 C307 -94 297 -108 297 -127 C297 -168 339 -195 399 -195 L399 -164 C364 -164 328 -151 328 -127 L328 -127 Z " />
<glyph glyph-name="aogonek" unicode="&#x105;" horiz-adv-x="376" d="M174 -29 C174 -20 180 -14 188 -2 C201 13 218 35 218 73 L187 73 C187 46 175 31 164 17 C153 4 143 -10 143 -29 C143 -70 185 -97 245 -97 L245 -66 C210 -66 174 -53 174 -29 L174 -29 Z M184 743 L54 71 L86 71 L125 279 L271 279 L310 71 L341 71 L216 743 L184 743 Z M265 310 L131 310 L199 637 L265 310 L265 310 Z " />
<glyph glyph-name="Cacute" unicode="&#x106;" horiz-adv-x="413" d="M186 778 L195 778 C226 778 256 764 279 740 C293 725 304 704 310 683 L340 691 C333 718 319 743 301 762 C273 792 235 810 195 810 L186 810 C102 810 35 737 35 647 L35 162 C35 72 102 0 186 0 L195 0 C258 0 316 43 337 107 L307 118 C289 66 245 31 195 31 L186 31 C120 31 66 90 66 162 L66 647 C66 719 120 778 186 778 L186 778 Z M174 921 L201 921 L219 1010 L184 1010 L174 921 L174 921 Z " />
<glyph glyph-name="cacute" unicode="&#x107;" horiz-adv-x="328" d="M144 777 L171 777 L189 866 L154 866 L144 777 L144 777 Z M158 711 L165 711 C189 711 212 700 228 681 C240 667 249 652 252 635 L284 642 C278 665 267 685 251 702 C228 727 197 742 165 742 L158 742 C89 742 34 681 34 605 L34 207 C34 131 89 71 158 71 L165 71 C216 71 263 107 281 161 L251 171 C238 130 203 102 165 102 L158 102 C107 102 65 149 65 207 L65 605 C65 663 107 711 158 711 L158 711 Z " />
<glyph glyph-name="Ccircumflex" unicode="&#x108;" horiz-adv-x="413" d="M186 778 L195 778 C226 778 256 764 279 740 C293 725 304 704 310 683 L340 691 C333 718 319 743 301 762 C273 792 235 810 195 810 L186 810 C102 810 35 737 35 647 L35 162 C35 72 102 0 186 0 L195 0 C258 0 316 43 337 107 L307 118 C289 66 245 31 195 31 L186 31 C120 31 66 90 66 162 L66 647 C66 719 120 778 186 778 L186 778 Z M50 950 L70 926 L195 1033 L318 931 L338 956 L195 1074 L50 950 L50 950 Z " />
<glyph glyph-name="ccircumflex" unicode="&#x109;" horiz-adv-x="328" d="M21 780 L41 756 L166 863 L289 761 L309 786 L166 904 L21 780 L21 780 Z M158 711 L165 711 C189 711 212 700 228 681 C240 667 249 652 252 635 L284 642 C278 665 267 685 251 702 C228 727 197 742 165 742 L158 742 C89 742 34 681 34 605 L34 207 C34 131 89 71 158 71 L165 71 C216 71 263 107 281 161 L251 171 C238 130 203 102 165 102 L158 102 C107 102 65 149 65 207 L65 605 C65 663 107 711 158 711 L158 711 Z " />
<glyph glyph-name="Cdotaccent" unicode="&#x10a;" horiz-adv-x="413" d="M186 778 L195 778 C226 778 256 764 279 740 C293 725 304 704 310 683 L340 691 C333 718 319 743 301 762 C273 792 235 810 195 810 L186 810 C102 810 35 737 35 647 L35 162 C35 72 102 0 186 0 L195 0 C258 0 316 43 337 107 L307 118 C289 66 245 31 195 31 L186 31 C120 31 66 90 66 162 L66 647 C66 719 120 778 186 778 L186 778 Z M197 1006 C211 1006 224 1018 224 1034 C224 1050 211 1063 197 1063 C181 1063 168 1050 168 1034 C168 1018 181 1006 197 1006 L197 1006 Z " />
<glyph glyph-name="cdotaccent" unicode="&#x10b;" horiz-adv-x="328" d="M160 782 C174 782 187 794 187 810 C187 826 174 839 160 839 C144 839 131 826 131 810 C131 794 144 782 160 782 L160 782 Z M158 711 L165 711 C189 711 212 700 228 681 C240 667 249 652 252 635 L284 642 C278 665 267 685 251 702 C228 727 197 742 165 742 L158 742 C89 742 34 681 34 605 L34 207 C34 131 89 71 158 71 L165 71 C216 71 263 107 281 161 L251 171 C238 130 203 102 165 102 L158 102 C107 102 65 149 65 207 L65 605 C65 663 107 711 158 711 L158 711 Z " />
<glyph glyph-name="Ccaron" unicode="&#x10c;" horiz-adv-x="413" d="M186 778 L195 778 C226 778 256 764 279 740 C293 725 304 704 310 683 L340 691 C333 718 319 743 301 762 C273 792 235 810 195 810 L186 810 C102 810 35 737 35 647 L35 162 C35 72 102 0 186 0 L195 0 C258 0 316 43 337 107 L307 118 C289 66 245 31 195 31 L186 31 C120 31 66 90 66 162 L66 647 C66 719 120 778 186 778 L186 778 Z M211 997 L88 1050 L76 1020 L211 963 L349 1022 L337 1051 L211 997 L211 997 Z " />
<glyph glyph-name="ccaron" unicode="&#x10d;" horiz-adv-x="328" d="M170 817 L47 870 L35 840 L170 783 L308 842 L296 871 L170 817 L170 817 Z M168 711 L175 711 C199 711 222 700 238 681 C250 667 259 652 262 635 L294 642 C288 665 277 685 261 702 C238 727 207 742 175 742 L168 742 C99 742 44 681 44 605 L44 207 C44 131 99 71 168 71 L175 71 C226 71 273 107 291 161 L261 171 C248 130 213 102 175 102 L168 102 C117 102 75 149 75 207 L75 605 C75 663 117 711 168 711 L168 711 Z " />
<glyph glyph-name="Dcaron" unicode="&#x10e;" horiz-adv-x="398" d="M185 810 L35 810 L35 0 L187 0 C265 0 328 67 328 150 L328 662 C328 744 264 810 185 810 L185 810 Z M297 150 C297 84 247 31 187 31 L66 31 L66 779 L185 779 C246 779 297 726 297 662 L297 150 L297 150 Z M204 997 L81 1050 L69 1020 L204 963 L342 1022 L330 1051 L204 997 L204 997 Z " />
<glyph glyph-name="dcaron" unicode="&#x10f;" horiz-adv-x="496" d="M263 527 C239 562 202 583 160 583 C88 583 29 516 29 433 L29 150 C29 67 88 0 160 0 C202 0 239 22 263 56 L263 0 L294 0 L294 811 L263 811 L263 527 L263 527 Z M259 150 C259 84 215 31 160 31 C106 31 60 84 60 150 L60 433 C60 499 106 552 160 552 C215 552 259 499 259 433 L259 150 L259 150 Z M379 811 L340 811 L340 774 L358 774 L358 774 C358 757 346 758 346 758 L346 745 C379 745 379 774 379 774 L379 811 L379 811 Z " />
<glyph glyph-name="Dcroat" unicode="&#x110;" horiz-adv-x="442" d="M204 810 L85 810 L54 810 L54 425 L4 425 L4 392 L54 392 L54 1 L65 1 L206 1 C284 1 347 68 347 151 L347 662 C347 744 283 810 204 810 L204 810 Z M316 151 C316 85 266 32 206 32 L85 32 L85 392 L248 392 L248 425 L85 425 L85 779 L204 779 C265 779 316 726 316 662 L316 151 Z " />
<glyph glyph-name="dcroat" unicode="&#x111;" horiz-adv-x="397" d="M263 599 C239 634 202 655 160 655 C88 655 29 588 29 505 L29 222 C29 139 88 72 160 72 C202 72 239 94 263 128 L263 72 L294 72 L294 883 L263 883 L263 599 L263 599 Z M259 222 C259 156 215 103 160 103 C106 103 60 156 60 222 L60 505 C60 571 106 624 160 624 C215 624 259 571 259 505 L259 222 L259 222 Z M181 729 L364 729 L364 765 L181 765 L181 729 L181 729 Z " />
<glyph glyph-name="Emacron" unicode="&#x112;" horiz-adv-x="335" d="M35 0 L261 0 L261 31 L66 31 L66 353 L211 353 L211 385 L66 385 L66 780 L261 780 L261 811 L35 811 L35 0 L35 0 Z M164 881 L41 934 L29 904 L164 847 L302 906 L290 935 L164 881 L164 881 Z " />
<glyph glyph-name="emacron" unicode="&#x113;" horiz-adv-x="328" d="M149 821 L26 874 L14 844 L149 787 L287 846 L275 875 L149 821 L149 821 Z M54 76 L240 76 L240 107 L85 107 L85 364 L199 364 L199 396 L85 396 L85 712 L240 712 L240 743 L54 743 L54 76 L54 76 Z " />
<glyph glyph-name="Edotaccent" unicode="&#x116;" horiz-adv-x="335" d="M35 0 L261 0 L261 31 L66 31 L66 353 L211 353 L211 385 L66 385 L66 780 L261 780 L261 811 L35 811 L35 0 L35 0 Z M159 1006 C173 1006 186 1018 186 1034 C186 1050 173 1063 159 1063 C143 1063 130 1050 130 1034 C130 1018 143 1006 159 1006 L159 1006 Z " />
<glyph glyph-name="edotaccent" unicode="&#x117;" horiz-adv-x="298" d="M149 782 C163 782 176 794 176 810 C176 826 163 839 149 839 C133 839 120 826 120 810 C120 794 133 782 149 782 L149 782 Z M54 76 L240 76 L240 107 L85 107 L85 364 L199 364 L199 396 L85 396 L85 712 L240 712 L240 743 L54 743 L54 76 L54 76 Z " />
<glyph glyph-name="Eogonek" unicode="&#x118;" horiz-adv-x="335" d="M35 0 L261 0 L261 31 L66 31 L66 353 L211 353 L211 385 L66 385 L66 780 L261 780 L261 811 L35 811 L35 0 L35 0 Z M136 -127 C136 -118 142 -112 150 -100 C163 -85 180 -63 180 -25 L149 -25 C149 -52 137 -67 126 -81 C115 -94 105 -108 105 -127 C105 -168 147 -195 207 -195 L207 -164 C172 -164 136 -151 136 -127 L136 -127 Z " />
<glyph glyph-name="eogonek" unicode="&#x119;" horiz-adv-x="294" d="M54 76 L240 76 L240 107 L85 107 L85 364 L199 364 L199 396 L85 396 L85 712 L240 712 L240 743 L54 743 L54 76 L54 76 Z M119 -27 C119 -18 125 -12 133 0 C146 15 163 37 163 75 L132 75 C132 48 120 33 109 19 C98 6 88 -8 88 -27 C88 -68 130 -95 190 -95 L190 -64 C155 -64 119 -51 119 -27 L119 -27 Z " />
<glyph glyph-name="Ecaron" unicode="&#x11a;" horiz-adv-x="335" d="M35 0 L261 0 L261 31 L66 31 L66 353 L211 353 L211 385 L66 385 L66 780 L261 780 L261 811 L35 811 L35 0 L35 0 Z M174 997 L51 1050 L39 1020 L174 963 L312 1022 L300 1051 L174 997 L174 997 Z " />
<glyph glyph-name="ecaron" unicode="&#x11b;" horiz-adv-x="298" d="M161 816 L38 869 L26 839 L161 782 L299 841 L287 870 L161 816 L161 816 Z M54 76 L240 76 L240 107 L85 107 L85 364 L199 364 L199 396 L85 396 L85 712 L240 712 L240 743 L54 743 L54 76 L54 76 Z " />
<glyph glyph-name="Gcircumflex" unicode="&#x11c;" horiz-adv-x="416" d="M173 353 L315 353 L315 162 C315 90 261 31 195 31 L186 31 C120 31 66 90 66 162 L66 648 C66 720 120 779 186 779 L195 779 C226 779 256 766 279 742 C293 726 304 706 310 685 L340 692 C333 719 319 744 301 763 C273 793 235 810 195 810 L186 810 C102 810 35 738 35 648 L35 162 C35 72 102 0 186 0 L195 0 C279 0 346 72 346 162 L346 384 L173 384 L173 353 L173 353 Z M52 950 L72 926 L197 1033 L320 931 L340 956 L197 1074 L52 950 L52 950 Z " />
<glyph glyph-name="gcircumflex" unicode="&#x11d;" horiz-adv-x="360" d="M37 779 L57 755 L182 862 L305 760 L325 785 L182 903 L37 779 L37 779 Z M167 359 L276 359 L276 207 C276 149 235 102 185 102 L176 102 C126 102 85 149 85 207 L85 606 C85 664 126 710 176 710 L185 710 C208 710 230 700 247 680 C259 668 268 652 272 635 L302 642 C296 665 286 685 271 702 C248 727 217 742 185 742 L176 742 C109 742 54 680 54 606 L54 207 C54 131 109 71 176 71 L185 71 C252 71 307 131 307 207 L307 390 L167 390 L167 359 L167 359 Z " />
<glyph glyph-name="Gbreve" unicode="&#x11e;" horiz-adv-x="416" d="M173 353 L315 353 L315 162 C315 90 261 31 195 31 L186 31 C120 31 66 90 66 162 L66 648 C66 720 120 779 186 779 L195 779 C226 779 256 766 279 742 C293 726 304 706 310 685 L340 692 C333 719 319 744 301 763 C273 793 235 810 195 810 L186 810 C102 810 35 738 35 648 L35 162 C35 72 102 0 186 0 L195 0 C279 0 346 72 346 162 L346 384 L173 384 L173 353 L173 353 Z M196 918 C142 918 97 970 97 1036 L66 1036 C66 954 124 885 196 885 C270 885 328 954 328 1036 L296 1036 C296 970 252 918 196 918 L196 918 Z " />
<glyph glyph-name="gbreve" unicode="&#x11f;" horiz-adv-x="360" d="M176 807 C122 807 77 859 77 925 L46 925 C46 843 104 774 176 774 C250 774 308 843 308 925 L276 925 C276 859 232 807 176 807 L176 807 Z M167 359 L276 359 L276 207 C276 149 235 102 185 102 L176 102 C126 102 85 149 85 207 L85 606 C85 664 126 710 176 710 L185 710 C208 710 230 700 247 680 C259 668 268 652 272 635 L302 642 C296 665 286 685 271 702 C248 727 217 742 185 742 L176 742 C109 742 54 680 54 606 L54 207 C54 131 109 71 176 71 L185 71 C252 71 307 131 307 207 L307 390 L167 390 L167 359 L167 359 Z " />
<glyph glyph-name="Gdotaccent" unicode="&#x120;" horiz-adv-x="416" d="M173 353 L315 353 L315 162 C315 90 261 31 195 31 L186 31 C120 31 66 90 66 162 L66 648 C66 720 120 779 186 779 L195 779 C226 779 256 766 279 742 C293 726 304 706 310 685 L340 692 C333 719 319 744 301 763 C273 793 235 810 195 810 L186 810 C102 810 35 738 35 648 L35 162 C35 72 102 0 186 0 L195 0 C279 0 346 72 346 162 L346 384 L173 384 L173 353 L173 353 Z M200 1006 C214 1006 227 1018 227 1034 C227 1050 214 1063 200 1063 C184 1063 171 1050 171 1034 C171 1018 184 1006 200 1006 L200 1006 Z " />
<glyph glyph-name="gdotaccent" unicode="&#x121;" horiz-adv-x="362" d="M180 782 C194 782 207 794 207 810 C207 826 194 839 180 839 C164 839 151 826 151 810 C151 794 164 782 180 782 L180 782 Z M167 359 L276 359 L276 207 C276 149 235 102 185 102 L176 102 C126 102 85 149 85 207 L85 606 C85 664 126 710 176 710 L185 710 C208 710 230 700 247 680 C259 668 268 652 272 635 L302 642 C296 665 286 685 271 702 C248 727 217 742 185 742 L176 742 C109 742 54 680 54 606 L54 207 C54 131 109 71 176 71 L185 71 C252 71 307 131 307 207 L307 390 L167 390 L167 359 L167 359 Z " />
<glyph glyph-name="Gcommaaccent" unicode="&#x122;" horiz-adv-x="416" d="M173 353 L315 353 L315 162 C315 90 261 31 195 31 L186 31 C120 31 66 90 66 162 L66 648 C66 720 120 779 186 779 L195 779 C226 779 256 766 279 742 C293 726 304 706 310 685 L340 692 C333 719 319 744 301 763 C273 793 235 810 195 810 L186 810 C102 810 35 738 35 648 L35 162 C35 72 102 0 186 0 L195 0 C279 0 346 72 346 162 L346 384 L173 384 L173 353 L173 353 Z M211 41 L172 41 L172 -3 L190 -3 L190 -3 C190 -24 178 -21 178 -21 L178 -38 C211 -38 211 -3 211 -3 L211 41 L211 41 Z " />
<glyph glyph-name="gcommaaccent" unicode="&#x123;" horiz-adv-x="357" d="M161 831 L161 785 L200 785 L200 831 L182 831 L182 831 C182 850 194 849 194 849 L194 864 C161 864 161 831 161 831 L161 831 Z M167 359 L276 359 L276 207 C276 149 235 102 185 102 L176 102 C126 102 85 149 85 207 L85 606 C85 664 126 710 176 710 L185 710 C208 710 230 700 247 680 C259 668 268 652 272 635 L302 642 C296 665 286 685 271 702 C248 727 217 742 185 742 L176 742 C109 742 54 680 54 606 L54 207 C54 131 109 71 176 71 L185 71 C252 71 307 131 307 207 L307 390 L167 390 L167 359 L167 359 Z " />
<glyph glyph-name="Hcircumflex" unicode="&#x124;" horiz-adv-x="406" d="M301 388 L66 388 L66 809 L35 809 L35 0 L66 0 L66 356 L301 356 L301 1 L333 1 L333 809 L301 809 L301 388 L301 388 Z M47 950 L67 926 L192 1033 L315 931 L335 956 L192 1074 L47 950 L47 950 Z " />
<glyph glyph-name="hcircumflex" unicode="&#x125;" horiz-adv-x="367" d="M28 816 L48 792 L173 899 L296 797 L316 822 L173 940 L28 816 L28 816 Z M268 390 L85 390 L85 742 L54 742 L54 71 L85 71 L85 359 L268 359 L268 71 L299 71 L299 742 L268 742 L268 390 L268 390 Z " />
<glyph glyph-name="Hbar" unicode="&#x126;" horiz-adv-x="554" d="M40 509 L481 509 L481 544 L40 544 L40 509 Z M376 388 L141 388 L141 809 L110 809 L110 0 L141 0 L141 356 L376 356 L376 1 L408 1 L408 809 L376 809 L376 388 L376 388 Z " />
<glyph glyph-name="hbar" unicode="&#x127;" horiz-adv-x="367" d="M169 583 C129 583 93 563 69 530 L69 811 L38 811 L38 432 L38 0 L69 0 L69 432 C69 498 115 552 169 552 C224 552 269 498 269 432 L269 0 L301 0 L301 432 C301 516 242 583 169 583 L169 583 Z M-8 669 L296 669 L296 702 L-8 702 L-8 669 L-8 669 Z " />
<glyph glyph-name="Itilde" unicode="&#x128;" horiz-adv-x="145" d="M35 0 L66 0 L66 810 L35 810 L35 0 L35 0 Z M79 952 C30 984 -28 1018 -128 918 L-106 895 C-23 979 17 954 62 925 C88 909 114 894 146 894 C179 894 218 909 268 958 L245 981 C163 900 126 922 79 952 L79 952 Z " />
<glyph glyph-name="itilde" unicode="&#x129;" horiz-adv-x="196" d="M-56 709 L98 709 L98 67 L130 67 L130 740 L-56 740 L-56 709 L-56 709 Z M61 850 C12 882 -46 916 -146 816 L-124 793 C-41 877 -1 852 44 823 C70 807 96 792 128 792 C161 792 200 807 250 856 L227 879 C145 798 108 820 61 850 L61 850 Z " />
<glyph glyph-name="imacron" unicode="&#x12b;" horiz-adv-x="196" d="M-56 709 L98 709 L98 67 L130 67 L130 740 L-56 740 L-56 709 L-56 709 Z M44 713 L-79 766 L-91 736 L44 679 L182 738 L170 767 L44 713 L44 713 Z " />
<glyph glyph-name="Iogonek" unicode="&#x12e;" horiz-adv-x="145" d="M35 0 L66 0 L66 810 L35 810 L35 0 L35 0 Z M28 -127 C28 -118 34 -112 42 -100 C55 -85 72 -63 72 -25 L41 -25 C41 -52 29 -67 18 -81 C7 -94 -3 -108 -3 -127 C-3 -168 39 -195 99 -195 L99 -164 C64 -164 28 -151 28 -127 L28 -127 Z " />
<glyph glyph-name="iogonek" unicode="&#x12f;" horiz-adv-x="139" d="M54 0 L85 0 L85 583 L54 583 L54 0 L54 0 Z M54 670 L85 670 L85 706 L54 706 L54 670 L54 670 Z M28 -127 C28 -118 34 -112 42 -100 C55 -85 72 -63 72 -25 L41 -25 C41 -52 29 -67 18 -81 C7 -94 -3 -108 -3 -127 C-3 -168 39 -195 99 -195 L99 -164 C64 -164 28 -151 28 -127 L28 -127 Z " />
<glyph glyph-name="Idotaccent" unicode="&#x130;" horiz-adv-x="145" d="M35 0 L66 0 L66 810 L35 810 L35 0 L35 0 Z M64 1006 C78 1006 91 1018 91 1034 C91 1050 78 1063 64 1063 C48 1063 35 1050 35 1034 C35 1018 48 1006 64 1006 L64 1006 Z " />
<glyph glyph-name="dotlessi" unicode="&#x131;" horiz-adv-x="196" d="M-56 709 L98 709 L98 67 L130 67 L130 740 L-56 740 L-56 709 L-56 709 Z " />
<glyph glyph-name="Jcircumflex" unicode="&#x134;" horiz-adv-x="407" d="M306 156 C306 88 252 31 186 31 C120 31 66 88 66 156 L66 350 L35 350 L35 156 C35 70 103 0 186 0 C269 0 337 70 337 156 L337 810 L306 810 L306 156 L306 156 Z M188 950 L208 926 L333 1033 L456 931 L476 956 L333 1074 L188 950 L188 950 Z " />
<glyph glyph-name="jcircumflex" unicode="&#x135;" horiz-adv-x="369" d="M72 817 L92 793 L217 900 L340 798 L360 823 L217 941 L72 817 L72 817 Z M275 227 C275 159 233 102 180 102 C128 102 85 158 85 227 L85 368 L54 368 L54 227 C54 141 110 71 180 71 C250 71 307 141 307 227 L307 742 L275 742 L275 227 L275 227 Z " />
<glyph glyph-name="Kcommaaccent" unicode="&#x136;" horiz-adv-x="434" d="M377 811 L340 811 L66 383 L66 811 L35 811 L35 0 L66 0 L66 324 L167 482 L348 0 L382 0 L189 515 L377 811 L377 811 Z M211 41 L172 41 L172 -3 L190 -3 L190 -3 C190 -24 178 -21 178 -21 L178 -38 C211 -38 211 -3 211 -3 L211 41 L211 41 Z " />
<glyph glyph-name="kcommaaccent" unicode="&#x137;" horiz-adv-x="416" d="M221 117 L182 117 L182 73 L200 73 L200 73 C200 52 188 55 188 55 L188 38 C221 38 221 73 221 73 L221 117 L221 117 Z M337 742 L85 345 L85 742 L54 742 L54 71 L85 71 L85 286 L186 444 L328 71 L361 71 L208 478 L374 742 L337 742 L337 742 Z " />
<glyph glyph-name="kgreenlandic" unicode="&#x138;" horiz-adv-x="419" d="M337 742 L85 345 L85 742 L54 742 L54 71 L85 71 L85 286 L186 444 L328 71 L361 71 L208 478 L374 742 L337 742 L337 742 Z " />
<glyph glyph-name="Lacute" unicode="&#x139;" horiz-adv-x="335" d="M66 811 L35 811 L35 0 L259 0 L259 31 L66 31 L66 811 L66 811 Z M58 921 L85 921 L103 1010 L68 1010 L58 921 L58 921 Z " />
<glyph glyph-name="lacute" unicode="&#x13a;" horiz-adv-x="139" d="M54 0 L86 0 L86 811 L54 811 L54 0 L54 0 Z M48 882 L75 882 L93 971 L58 971 L48 882 L48 882 Z " />
<glyph glyph-name="Lcommaaccent" unicode="&#x13b;" horiz-adv-x="335" d="M66 811 L35 811 L35 0 L259 0 L259 31 L66 31 L66 811 L66 811 Z M170 41 L131 41 L131 -3 L149 -3 L149 -3 C149 -24 137 -21 137 -21 L137 -38 C170 -38 170 -3 170 -3 L170 41 L170 41 Z " />
<glyph glyph-name="lcommaaccent" unicode="&#x13c;" horiz-adv-x="139" d="M54 0 L86 0 L86 811 L54 811 L54 0 L54 0 Z M90 41 L51 41 L51 -3 L69 -3 L69 -3 C69 -24 57 -21 57 -21 L57 -38 C90 -38 90 -3 90 -3 L90 41 L90 41 Z " />
<glyph glyph-name="Lcaron" unicode="&#x13d;" horiz-adv-x="335" d="M66 811 L35 811 L35 0 L259 0 L259 31 L66 31 L66 811 L66 811 Z M85 980 L46 980 L46 943 L64 943 L64 943 C64 926 52 927 52 927 L52 914 C85 914 85 943 85 943 L85 980 L85 980 Z " />
<glyph glyph-name="lcaron" unicode="&#x13e;" horiz-adv-x="264" d="M54 0 L86 0 L86 811 L54 811 L54 0 L54 0 Z M158 811 L119 811 L119 774 L137 774 L137 774 C137 757 125 758 125 758 L125 745 C158 745 158 774 158 774 L158 811 L158 811 Z " />
<glyph glyph-name="Lslash" unicode="&#x141;" horiz-adv-x="367" d="M85 808 L54 808 L54 1 L278 1 L278 32 L85 32 L85 808 Z M40 392 L200 392 L200 425 L40 425 L40 392 Z " />
<glyph glyph-name="lslash" unicode="&#x142;" horiz-adv-x="266" d="M105 0 L137 0 L137 811 L105 811 L105 0 L105 0 Z M28 386 L239 386 L239 422 L28 422 L28 386 L28 386 Z " />
<glyph glyph-name="Nacute" unicode="&#x143;" horiz-adv-x="430" d="M70 812 L37 812 L37 812 L37 0 L69 0 L69 719 L310 0 L345 0 L345 0 L345 811 L312 811 L312 90 L70 812 Z M184 921 L211 921 L229 1010 L194 1010 L184 921 L184 921 Z " />
<glyph glyph-name="nacute" unicode="&#x144;" horiz-adv-x="372" d="M176 779 L203 779 L221 868 L186 868 L176 779 L176 779 Z M324 742 L293 742 L293 159 L94 742 L61 742 L60 742 L60 742 L60 742 L60 71 L54 71 L54 71 L91 71 L91 650 L289 71 L324 71 L324 742 L324 742 Z " />
<glyph glyph-name="Ncommaaccent" unicode="&#x145;" horiz-adv-x="430" d="M70 812 L37 812 L37 812 L37 0 L69 0 L69 719 L310 0 L345 0 L345 0 L345 811 L312 811 L312 90 L70 812 Z M199 41 L160 41 L160 -3 L178 -3 L178 -3 C178 -24 166 -21 166 -21 L166 -38 C199 -38 199 -3 199 -3 L199 41 L199 41 Z " />
<glyph glyph-name="ncommaaccent" unicode="&#x146;" horiz-adv-x="372" d="M166 583 C126 583 90 563 66 530 L66 583 L35 583 L35 433 L35 1 L35 0 L66 0 L66 1 L66 433 C66 498 112 552 166 552 C221 552 265 498 265 433 L265 0 L298 0 L298 433 C298 516 239 583 166 583 L166 583 Z M187 41 L148 41 L148 -3 L166 -3 L166 -3 C166 -24 154 -21 154 -21 L154 -38 C187 -38 187 -3 187 -3 L187 41 L187 41 Z " />
<glyph glyph-name="Ncaron" unicode="&#x147;" horiz-adv-x="430" d="M70 812 L37 812 L37 812 L37 0 L69 0 L69 719 L310 0 L345 0 L345 0 L345 811 L312 811 L312 90 L70 812 Z M221 997 L98 1050 L86 1020 L221 963 L359 1022 L347 1051 L221 997 L221 997 Z " />
<glyph glyph-name="ncaron" unicode="&#x148;" horiz-adv-x="372" d="M192 807 L69 860 L57 830 L192 773 L330 832 L318 861 L192 807 L192 807 Z M324 742 L293 742 L293 159 L94 742 L61 742 L60 742 L60 742 L60 742 L60 71 L54 71 L54 71 L91 71 L91 650 L289 71 L324 71 L324 742 L324 742 Z " />
<glyph glyph-name="Eng" unicode="&#x14a;" horiz-adv-x="430" d="M313 -155 C313 -223 259 -280 193 -280 C127 -280 73 -223 73 -155 L73 -106 L42 -106 L42 -155 C42 -241 110 -311 193 -311 C276 -311 344 -241 344 -155 L344 496 L313 496 L313 -155 Z M70 812 L37 812 L37 812 L37 0 L69 0 L69 719 L310 0 L345 0 L345 0 L345 811 L312 811 L312 90 L70 812 Z " />
<glyph glyph-name="eng" unicode="&#x14b;" horiz-adv-x="407" d="M293 1 C293 -68 249 -124 194 -124 C172 -124 152 -115 135 -100 L113 -122 C136 -144 165 -156 194 -156 C266 -156 325 -85 325 1 L325 396 L293 396 L293 1 L293 1 Z M293 0 L326 0 L293 0 Z M324 742 L293 742 L293 159 L94 742 L61 742 L60 742 L60 742 L60 742 L60 71 L54 71 L54 71 L91 71 L91 650 L289 71 L324 71 L324 742 L324 742 Z " />
<glyph glyph-name="Omacron" unicode="&#x14c;" horiz-adv-x="414" d="M195 811 L186 811 C102 811 35 744 35 661 L36 150 C36 67 103 0 187 0 L197 0 C280 0 347 67 347 150 L346 661 C346 744 279 811 195 811 L195 811 Z M197 31 L187 31 C121 31 67 84 67 150 L66 661 C66 726 120 780 186 780 L195 780 C261 780 315 726 315 661 L316 150 C316 84 262 31 197 31 L197 31 Z M176 881 L53 934 L41 904 L176 847 L314 906 L302 935 L176 881 L176 881 Z " />
<glyph glyph-name="omacron" unicode="&#x14d;" horiz-adv-x="367" d="M178 824 L55 877 L43 847 L178 790 L316 849 L304 878 L178 824 L178 824 Z M181 742 C112 742 54 675 54 592 L54 221 C54 138 112 71 181 71 C251 71 308 138 308 221 L308 592 C308 675 251 742 181 742 L181 742 Z M277 221 C277 155 234 102 181 102 C128 102 85 155 85 221 L85 592 C85 657 128 711 181 711 C234 711 277 657 277 592 L277 221 L277 221 Z " />
<glyph glyph-name="Ohungarumlaut" unicode="&#x150;" horiz-adv-x="414" d="M195 811 L186 811 C102 811 35 744 35 661 L36 150 C36 67 103 0 187 0 L197 0 C280 0 347 67 347 150 L346 661 C346 744 279 811 195 811 L195 811 Z M197 31 L187 31 C121 31 67 84 67 150 L66 661 C66 726 120 780 186 780 L195 780 C261 780 315 726 315 661 L316 150 C316 84 262 31 197 31 L197 31 Z M123 948 L150 948 L168 1036 L133 1036 L123 948 L123 948 Z M171 948 L198 948 L216 1036 L180 1036 L171 948 L171 948 Z " />
<glyph glyph-name="ohungarumlaut" unicode="&#x151;" horiz-adv-x="367" d="M145 795 L172 795 L190 883 L155 883 L145 795 L145 795 Z M193 795 L220 795 L238 883 L202 883 L193 795 L193 795 Z M181 742 C112 742 54 675 54 592 L54 221 C54 138 112 71 181 71 C251 71 308 138 308 221 L308 592 C308 675 251 742 181 742 L181 742 Z M277 221 C277 155 234 102 181 102 C128 102 85 155 85 221 L85 592 C85 657 128 711 181 711 C234 711 277 657 277 592 L277 221 L277 221 Z " />
<glyph glyph-name="OE" unicode="&#x152;" horiz-adv-x="608" d="M560 780 L560 811 L335 811 L335 749 C307 785 263 809 214 809 L205 809 C121 809 54 742 54 659 L55 151 C55 68 122 1 206 1 L216 1 C264 1 307 24 335 60 L335 1 L560 1 L560 32 L366 32 L366 150 C366 150 366 151 366 151 L366 157 L366 353 L511 353 L511 385 L366 385 L366 780 L560 780 L560 780 Z M216 32 L206 32 C140 32 86 85 86 151 L85 659 C85 724 139 778 205 778 L214 778 C280 778 334 724 334 659 L335 157 L335 150 C334 84 281 32 216 32 L216 32 Z " />
<glyph glyph-name="oe" unicode="&#x153;" horiz-adv-x="602" d="M317 310 L547 310 L547 415 C547 509 488 584 415 584 C367 584 325 551 302 502 C281 551 236 584 185 584 C113 584 54 517 54 434 L54 151 C54 68 113 1 185 1 C236 1 281 35 302 84 C325 34 367 1 415 1 C488 1 547 76 547 169 L515 169 C515 94 470 32 415 32 C366 32 323 84 317 151 C317 151 317 151 317 151 L317 310 L317 310 Z M415 552 C470 552 515 491 515 415 L515 341 L317 341 L317 433 C323 500 366 552 415 552 L415 552 Z M284 151 C284 85 240 32 185 32 C131 32 85 85 85 151 L85 434 C85 500 131 553 185 553 C240 553 284 500 284 434 L284 151 L284 151 Z " />
<glyph glyph-name="Racute" unicode="&#x154;" horiz-adv-x="401" d="M247 328 C295 353 328 406 328 468 L328 656 C328 742 265 811 187 811 L35 811 L35 0 L67 0 L67 313 L179 313 C245 313 299 259 299 193 L299 0 L330 0 L330 193 C330 252 297 302 247 328 L247 328 Z M67 344 L67 780 L187 780 C247 780 297 725 297 656 L297 468 C297 400 247 344 187 344 L67 344 L67 344 Z M168 921 L195 921 L213 1010 L178 1010 L168 921 L168 921 Z " />
<glyph glyph-name="racute" unicode="&#x155;" horiz-adv-x="348" d="M149 777 L176 777 L194 866 L159 866 L149 777 L149 777 Z M232 333 C270 354 296 400 296 452 L296 611 C296 683 245 743 180 743 L54 743 L54 742 L54 710 L54 352 L54 320 L54 71 L54 71 L85 71 L85 71 L85 320 L170 320 C223 320 268 267 268 201 L268 71 L299 71 L299 201 C299 258 271 308 232 333 L232 333 Z M85 352 L85 710 L180 710 C227 710 265 666 265 611 L265 452 C265 396 227 352 180 352 L85 352 L85 352 Z " />
<glyph glyph-name="Rcommaaccent" unicode="&#x156;" horiz-adv-x="401" d="M247 328 C295 353 328 406 328 468 L328 656 C328 742 265 811 187 811 L35 811 L35 0 L67 0 L67 313 L179 313 C245 313 299 259 299 193 L299 0 L330 0 L330 193 C330 252 297 302 247 328 L247 328 Z M67 344 L67 780 L187 780 C247 780 297 725 297 656 L297 468 C297 400 247 344 187 344 L67 344 L67 344 Z M187 41 L148 41 L148 -3 L166 -3 L166 -3 C166 -24 154 -21 154 -21 L154 -38 C187 -38 187 -3 187 -3 L187 41 L187 41 Z " />
<glyph glyph-name="rcommaaccent" unicode="&#x157;" horiz-adv-x="346" d="M193 114 L154 114 L154 70 L172 70 L172 70 C172 49 160 52 160 52 L160 35 C193 35 193 70 193 70 L193 114 L193 114 Z M232 333 C270 354 296 400 296 452 L296 611 C296 683 245 743 180 743 L54 743 L54 742 L54 710 L54 352 L54 320 L54 71 L54 71 L85 71 L85 71 L85 320 L170 320 C223 320 268 267 268 201 L268 71 L299 71 L299 201 C299 258 271 308 232 333 L232 333 Z M85 352 L85 710 L180 710 C227 710 265 666 265 611 L265 452 C265 396 227 352 180 352 L85 352 L85 352 Z " />
<glyph glyph-name="Rcaron" unicode="&#x158;" horiz-adv-x="401" d="M247 328 C295 353 328 406 328 468 L328 656 C328 742 265 811 187 811 L35 811 L35 0 L67 0 L67 313 L179 313 C245 313 299 259 299 193 L299 0 L330 0 L330 193 C330 252 297 302 247 328 L247 328 Z M67 344 L67 780 L187 780 C247 780 297 725 297 656 L297 468 C297 400 247 344 187 344 L67 344 L67 344 Z M205 997 L82 1050 L70 1020 L205 963 L343 1022 L331 1051 L205 997 L205 997 Z " />
<glyph glyph-name="rcaron" unicode="&#x159;" horiz-adv-x="325" d="M161 810 L38 863 L26 833 L161 776 L299 835 L287 864 L161 810 L161 810 Z M232 333 C270 354 296 400 296 452 L296 611 C296 683 245 743 180 743 L54 743 L54 742 L54 710 L54 352 L54 320 L54 71 L54 71 L85 71 L85 71 L85 320 L170 320 C223 320 268 267 268 201 L268 71 L299 71 L299 201 C299 258 271 308 232 333 L232 333 Z M85 352 L85 710 L180 710 C227 710 265 666 265 611 L265 452 C265 396 227 352 180 352 L85 352 L85 352 Z " />
<glyph glyph-name="Sacute" unicode="&#x15a;" horiz-adv-x="425" d="M198 421 C130 487 65 551 66 656 C67 725 121 779 189 779 C255 779 309 720 309 647 L341 647 C341 737 273 811 189 811 C103 811 36 743 35 656 C34 538 106 467 177 398 C246 331 311 265 309 156 C307 77 263 31 189 31 C123 31 69 90 69 163 L36 163 C36 73 105 0 189 0 C280 0 339 59 341 156 C343 278 270 352 198 421 L198 421 Z M182 921 L209 921 L227 1010 L192 1010 L182 921 L182 921 Z " />
<glyph glyph-name="sacute" unicode="&#x15b;" horiz-adv-x="344" d="M175 784 L202 784 L220 873 L185 873 L175 784 L175 784 Z M191 419 C137 473 85 527 85 612 C86 667 128 709 181 709 C233 709 275 662 275 604 L307 604 C307 679 251 742 181 742 C110 742 55 684 54 612 C53 514 112 454 169 398 C224 342 277 291 275 202 C274 138 240 102 181 102 C130 102 86 149 86 208 L55 208 C55 132 112 71 181 71 C257 71 305 120 307 202 C308 304 250 363 191 419 L191 419 Z " />
<glyph glyph-name="Scircumflex" unicode="&#x15c;" horiz-adv-x="425" d="M198 421 C130 487 65 551 66 656 C67 725 121 779 189 779 C255 779 309 720 309 647 L341 647 C341 737 273 811 189 811 C103 811 36 743 35 656 C34 538 106 467 177 398 C246 331 311 265 309 156 C307 77 263 31 189 31 C123 31 69 90 69 163 L36 163 C36 73 105 0 189 0 C280 0 339 59 341 156 C343 278 270 352 198 421 L198 421 Z M57 950 L77 926 L202 1033 L325 931 L345 956 L202 1074 L57 950 L57 950 Z " />
<glyph glyph-name="scircumflex" unicode="&#x15d;" horiz-adv-x="344" d="M32 781 L52 757 L177 864 L300 762 L320 787 L177 905 L32 781 L32 781 Z M191 419 C137 473 85 527 85 612 C86 667 128 709 181 709 C233 709 275 662 275 604 L307 604 C307 679 251 742 181 742 C110 742 55 684 54 612 C53 514 112 454 169 398 C224 342 277 291 275 202 C274 138 240 102 181 102 C130 102 86 149 86 208 L55 208 C55 132 112 71 181 71 C257 71 305 120 307 202 C308 304 250 363 191 419 L191 419 Z " />
<glyph glyph-name="Scedilla" unicode="&#x15e;" horiz-adv-x="425" d="M198 421 C130 487 65 551 66 656 C67 725 121 779 189 779 C255 779 309 720 309 647 L341 647 C341 737 273 811 189 811 C103 811 36 743 35 656 C34 538 106 467 177 398 C246 331 311 265 309 156 C307 77 263 31 189 31 C123 31 69 90 69 163 L36 163 C36 73 105 0 189 0 C280 0 339 59 341 156 C343 278 270 352 198 421 L198 421 Z M221 25 L190 25 C190 -13 207 -35 220 -50 C230 -62 234 -68 234 -77 C234 -101 198 -114 164 -114 L164 -145 C224 -145 266 -118 266 -77 C266 -58 255 -44 245 -31 C233 -17 221 -2 221 25 L221 25 Z " />
<glyph glyph-name="scedilla" unicode="&#x15f;" horiz-adv-x="344" d="M180 25 L149 25 C149 -13 166 -35 179 -50 C189 -62 193 -68 193 -77 C193 -101 157 -114 123 -114 L123 -145 C183 -145 225 -118 225 -77 C225 -58 214 -44 204 -31 C192 -17 180 -2 180 25 L180 25 Z M191 419 C137 473 85 527 85 612 C86 667 128 709 181 709 C233 709 275 662 275 604 L307 604 C307 679 251 742 181 742 C110 742 55 684 54 612 C53 514 112 454 169 398 C224 342 277 291 275 202 C274 138 240 102 181 102 C130 102 86 149 86 208 L55 208 C55 132 112 71 181 71 C257 71 305 120 307 202 C308 304 250 363 191 419 L191 419 Z " />
<glyph glyph-name="Scaron" unicode="&#x160;" horiz-adv-x="425" d="M198 421 C130 487 65 551 66 656 C67 725 121 779 189 779 C255 779 309 720 309 647 L341 647 C341 737 273 811 189 811 C103 811 36 743 35 656 C34 538 106 467 177 398 C246 331 311 265 309 156 C307 77 263 31 189 31 C123 31 69 90 69 163 L36 163 C36 73 105 0 189 0 C280 0 339 59 341 156 C343 278 270 352 198 421 L198 421 Z M218 997 L95 1050 L83 1020 L218 963 L356 1022 L344 1051 L218 997 L218 997 Z " />
<glyph glyph-name="scaron" unicode="&#x161;" horiz-adv-x="344" d="M167 307 C115 354 67 397 67 470 C68 516 108 552 157 552 C191 552 221 534 236 504 L264 518 C244 559 203 584 157 584 C90 584 37 534 36 470 C35 384 91 332 145 283 C198 236 247 191 246 115 C244 40 184 31 157 31 C121 31 89 53 76 88 L46 76 C64 30 108 0 157 0 C229 0 276 43 277 115 C280 204 222 257 167 307 L167 307 Z M179 773 L56 826 L44 796 L179 739 L317 798 L305 827 L179 773 L179 773 Z " />
<glyph glyph-name="Tcommaaccent" unicode="&#x162;" horiz-adv-x="382" d="M35 780 L156 780 L156 0 L187 0 L187 780 L307 780 L307 811 L35 811 L35 780 Z M199 41 L160 41 L160 -3 L178 -3 L178 -3 C178 -24 166 -21 166 -21 L166 -38 C199 -38 199 -3 199 -3 L199 41 L199 41 Z " />
<glyph glyph-name="tcommaaccent" unicode="&#x163;" horiz-adv-x="328" d="M54 712 L151 712 L151 71 L182 71 L182 712 L277 712 L277 743 L54 743 L54 712 L54 712 Z M187 113 L148 113 L148 69 L166 69 L166 69 C166 48 154 51 154 51 L154 34 C187 34 187 69 187 69 L187 113 L187 113 Z " />
<glyph glyph-name="Tcaron" unicode="&#x164;" horiz-adv-x="382" d="M35 780 L156 780 L156 0 L187 0 L187 780 L307 780 L307 811 L35 811 L35 780 Z M195 997 L72 1050 L60 1020 L195 963 L333 1022 L321 1051 L195 997 L195 997 Z " />
<glyph glyph-name="tcaron" unicode="&#x165;" horiz-adv-x="326" d="M196 852 L157 852 L157 815 L175 815 L175 815 C175 798 163 799 163 799 L163 786 C196 786 196 815 196 815 L196 852 L196 852 Z M54 712 L151 712 L151 71 L182 71 L182 712 L277 712 L277 743 L54 743 L54 712 L54 712 Z " />
<glyph glyph-name="Tbar" unicode="&#x166;" horiz-adv-x="347" d="M35 780 L156 780 L156 0 L187 0 L187 780 L307 780 L307 811 L35 811 L35 780 Z M36 548 L318 548 L318 581 L36 581 L36 548 Z " />
<glyph glyph-name="tbar" unicode="&#x167;" horiz-adv-x="343" d="M237 31 C182 31 137 89 137 158 L137 551 L268 551 L268 583 L137 583 L137 719 L105 719 L105 583 L41 583 L41 551 L105 551 L105 158 C105 71 164 0 237 0 C266 0 294 11 317 34 L296 56 C278 40 257 31 237 31 L237 31 Z M39 374 L304 374 L304 406 L39 406 L39 374 L39 374 Z " />
<glyph glyph-name="Utilde" unicode="&#x168;" horiz-adv-x="422" d="M315 150 C315 84 261 31 195 31 L186 31 C120 31 66 84 66 150 L66 811 L35 811 L35 150 C35 67 102 0 186 0 L195 0 C279 0 346 67 346 150 L346 811 L315 811 L315 150 L315 150 Z M218 952 C169 984 111 1018 11 918 L33 895 C116 979 156 954 201 925 C227 909 253 894 285 894 C318 894 357 909 407 958 L384 981 C302 900 265 922 218 952 L218 952 Z " />
<glyph glyph-name="utilde" unicode="&#x169;" horiz-adv-x="360" d="M201 854 C152 886 94 920 -6 820 L16 797 C99 881 139 856 184 827 C210 811 236 796 268 796 C301 796 340 811 390 860 L367 883 C285 802 248 824 201 854 L201 854 Z M282 221 C282 155 238 102 184 102 C130 102 85 155 85 221 L85 743 L54 743 L54 221 C54 138 113 71 184 71 C256 71 313 138 313 221 L313 743 L282 743 L282 221 L282 221 Z " />
<glyph glyph-name="Umacron" unicode="&#x16a;" horiz-adv-x="422" d="M315 150 C315 84 261 31 195 31 L186 31 C120 31 66 84 66 150 L66 811 L35 811 L35 150 C35 67 102 0 186 0 L195 0 C279 0 346 67 346 150 L346 811 L315 811 L315 150 L315 150 Z M200 881 L77 934 L65 904 L200 847 L338 906 L326 935 L200 881 L200 881 Z " />
<glyph glyph-name="umacron" unicode="&#x16b;" horiz-adv-x="367" d="M183 803 L60 856 L48 826 L183 769 L321 828 L309 857 L183 803 L183 803 Z M282 221 C282 155 238 102 184 102 C130 102 85 155 85 221 L85 743 L54 743 L54 221 C54 138 113 71 184 71 C256 71 313 138 313 221 L313 743 L282 743 L282 221 L282 221 Z " />
<glyph glyph-name="Ubreve" unicode="&#x16c;" horiz-adv-x="422" d="M315 150 C315 84 261 31 195 31 L186 31 C120 31 66 84 66 150 L66 811 L35 811 L35 150 C35 67 102 0 186 0 L195 0 C279 0 346 67 346 150 L346 811 L315 811 L315 150 L315 150 Z M198 918 C144 918 99 970 99 1036 L68 1036 C68 954 126 885 198 885 C272 885 330 954 330 1036 L298 1036 C298 970 254 918 198 918 L198 918 Z " />
<glyph glyph-name="ubreve" unicode="&#x16d;" horiz-adv-x="351" d="M181 783 C127 783 82 835 82 901 L51 901 C51 819 109 750 181 750 C255 750 313 819 313 901 L281 901 C281 835 237 783 181 783 L181 783 Z M282 221 C282 155 238 102 184 102 C130 102 85 155 85 221 L85 743 L54 743 L54 221 C54 138 113 71 184 71 C256 71 313 138 313 221 L313 743 L282 743 L282 221 L282 221 Z " />
<glyph glyph-name="Uring" unicode="&#x16e;" horiz-adv-x="422" d="M315 150 C315 84 261 31 195 31 L186 31 C120 31 66 84 66 150 L66 811 L35 811 L35 150 C35 67 102 0 186 0 L195 0 C279 0 346 67 346 150 L346 811 L315 811 L315 150 L315 150 Z M215 1021 C175 1021 143 988 143 949 C143 909 175 877 215 877 C255 877 288 909 288 949 C288 988 255 1021 215 1021 L215 1021 Z M215 908 C193 908 174 926 174 949 C174 972 193 990 215 990 C237 990 257 972 257 949 C257 926 237 908 215 908 L215 908 Z " />
<glyph glyph-name="uring" unicode="&#x16f;" horiz-adv-x="367" d="M186 909 C146 909 114 876 114 837 C114 797 146 765 186 765 C226 765 259 797 259 837 C259 876 226 909 186 909 L186 909 Z M186 796 C164 796 145 814 145 837 C145 860 164 878 186 878 C208 878 228 860 228 837 C228 814 208 796 186 796 L186 796 Z M282 221 C282 155 238 102 184 102 C130 102 85 155 85 221 L85 743 L54 743 L54 221 C54 138 113 71 184 71 C256 71 313 138 313 221 L313 743 L282 743 L282 221 L282 221 Z " />
<glyph glyph-name="Uhungarumlaut" unicode="&#x170;" horiz-adv-x="422" d="M315 150 C315 84 261 31 195 31 L186 31 C120 31 66 84 66 150 L66 811 L35 811 L35 150 C35 67 102 0 186 0 L195 0 C279 0 346 67 346 150 L346 811 L315 811 L315 150 L315 150 Z M126 948 L153 948 L171 1036 L136 1036 L126 948 L126 948 Z M174 948 L201 948 L219 1036 L183 1036 L174 948 L174 948 Z " />
<glyph glyph-name="uhungarumlaut" unicode="&#x171;" horiz-adv-x="367" d="M147 787 L174 787 L192 875 L157 875 L147 787 L147 787 Z M195 787 L222 787 L240 875 L204 875 L195 787 L195 787 Z M282 221 C282 155 238 102 184 102 C130 102 85 155 85 221 L85 743 L54 743 L54 221 C54 138 113 71 184 71 C256 71 313 138 313 221 L313 743 L282 743 L282 221 L282 221 Z " />
<glyph glyph-name="Uogonek" unicode="&#x172;" horiz-adv-x="410" d="M334 150 C334 84 280 31 214 31 L205 31 C139 31 85 84 85 150 L85 811 L54 811 L54 150 C54 67 121 0 205 0 L214 0 C298 0 365 67 365 150 L365 811 L334 811 L334 150 L334 150 Z M180 -77 C180 -68 186 -62 194 -50 C207 -35 224 -13 224 25 L193 25 C193 -2 181 -17 170 -31 C159 -44 149 -58 149 -77 C149 -118 191 -145 251 -145 L251 -114 C216 -114 180 -101 180 -77 L180 -77 Z " />
<glyph glyph-name="uogonek" unicode="&#x173;" horiz-adv-x="367" d="M285 541 L285 151 C285 85 240 31 185 31 C131 31 85 85 85 151 L85 583 L54 583 L54 151 C54 67 113 0 185 0 C225 0 261 20 285 53 L285 0 L317 0 L317 151 L317 541 L317 583 L285 583 L285 541 L285 541 Z M257 -125 C257 -116 263 -110 271 -98 C284 -83 301 -61 301 -23 L270 -23 C270 -50 258 -65 247 -79 C236 -92 226 -106 226 -125 C226 -166 268 -193 328 -193 L328 -162 C293 -162 257 -149 257 -125 L257 -125 Z " />
<glyph glyph-name="Ydieresis" unicode="&#x178;" horiz-adv-x="442" d="M67 811 L35 811 L185 305 L185 0 L216 0 L216 307 L360 811 L328 811 L199 365 L67 811 Z M150 870 L189 870 L189 917 L150 917 L150 870 L150 870 Z M214 870 L253 870 L253 917 L214 917 L214 870 L214 870 Z " />
<glyph glyph-name="Zacute" unicode="&#x179;" horiz-adv-x="438" d="M54 811 L54 779 L293 779 L35 0 L324 0 L324 0 L324 31 L78 31 L336 811 L54 811 Z M188 921 L215 921 L233 1010 L198 1010 L188 921 L188 921 Z " />
<glyph glyph-name="zacute" unicode="&#x17a;" horiz-adv-x="364" d="M68 583 L68 551 L253 551 L54 0 L289 0 L289 0 L289 31 L98 31 L298 583 L68 583 L68 583 Z M149 697 L176 697 L194 786 L159 786 L149 697 L149 697 Z " />
<glyph glyph-name="Zdotaccent" unicode="&#x17b;" horiz-adv-x="438" d="M54 811 L54 779 L293 779 L35 0 L324 0 L324 0 L324 31 L78 31 L336 811 L54 811 Z M230 928 C244 928 257 940 257 956 C257 972 244 985 230 985 C214 985 201 972 201 956 C201 940 214 928 230 928 L230 928 Z " />
<glyph glyph-name="zdotaccent" unicode="&#x17c;" horiz-adv-x="364" d="M68 583 L68 551 L253 551 L54 0 L289 0 L289 0 L289 31 L98 31 L298 583 L68 583 L68 583 Z M194 782 C208 782 221 794 221 810 C221 826 208 839 194 839 C178 839 165 826 165 810 C165 794 178 782 194 782 L194 782 Z " />
<glyph glyph-name="Zcaron" unicode="&#x17d;" horiz-adv-x="438" d="M54 811 L54 779 L293 779 L35 0 L324 0 L324 0 L324 31 L78 31 L336 811 L54 811 Z M200 927 L77 980 L65 950 L200 893 L338 952 L326 981 L200 927 L200 927 Z " />
<glyph glyph-name="zcaron" unicode="&#x17e;" horiz-adv-x="364" d="M68 583 L68 551 L253 551 L54 0 L289 0 L289 0 L289 31 L98 31 L298 583 L68 583 L68 583 Z M187 773 L64 826 L52 796 L187 739 L325 798 L313 827 L187 773 L187 773 Z " />
<glyph glyph-name="florin" unicode="&#x192;" horiz-adv-x="364" d="M130 646 L130 515 L40 515 L40 484 L130 484 L130 161 C130 84 89 31 52 31 L52 -1 C80 -1 108 17 130 47 C150 78 162 118 162 161 L162 484 L281 484 L281 515 L162 515 L162 646 C162 718 206 776 262 776 C282 776 302 767 320 751 L342 773 C318 796 290 808 262 808 C188 808 130 736 130 646 L130 646 Z " />
<glyph glyph-name="Scommaaccent" unicode="&#x218;" horiz-adv-x="425" d="M198 421 C130 487 65 551 66 656 C67 725 121 779 189 779 C255 779 309 720 309 647 L341 647 C341 737 273 811 189 811 C103 811 36 743 35 656 C34 538 106 467 177 398 C246 331 311 265 309 156 C307 77 263 31 189 31 C123 31 69 90 69 163 L36 163 C36 73 105 0 189 0 C280 0 339 59 341 156 C343 278 270 352 198 421 L198 421 Z M206 41 L167 41 L167 -3 L185 -3 L185 -3 C185 -24 173 -21 173 -21 L173 -38 C206 -38 206 -3 206 -3 L206 41 L206 41 Z " />
<glyph glyph-name="scommaaccent" unicode="&#x219;" horiz-adv-x="344" d="M199 28 L160 28 L160 -16 L178 -16 L178 -16 C178 -37 166 -34 166 -34 L166 -51 C199 -51 199 -16 199 -16 L199 28 L199 28 Z M191 419 C137 473 85 527 85 612 C86 667 128 709 181 709 C233 709 275 662 275 604 L307 604 C307 679 251 742 181 742 C110 742 55 684 54 612 C53 514 112 454 169 398 C224 342 277 291 275 202 C274 138 240 102 181 102 C130 102 86 149 86 208 L55 208 C55 132 112 71 181 71 C257 71 305 120 307 202 C308 304 250 363 191 419 L191 419 Z " />
<glyph glyph-name="circumflex" unicode="&#x2c6;" horiz-adv-x="391" d="M40 726 L60 702 L185 809 L308 707 L328 732 L185 850 L40 726 L40 726 Z " />
<glyph glyph-name="caron" unicode="&#x2c7;" horiz-adv-x="347" d="M175 773 L52 826 L40 796 L175 739 L313 798 L301 827 L175 773 L175 773 Z " />
<glyph glyph-name="breve" unicode="&#x2d8;" horiz-adv-x="374" d="M170 694 C116 694 71 746 71 812 L40 812 C40 730 98 661 170 661 C244 661 302 730 302 812 L270 812 C270 746 226 694 170 694 L170 694 Z " />
<glyph glyph-name="dotaccent" unicode="&#x2d9;" horiz-adv-x="145" d="M64 782 C78 782 91 794 91 810 C91 826 78 839 64 839 C48 839 35 826 35 810 C35 794 48 782 64 782 L64 782 Z " />
<glyph glyph-name="ring" unicode="&#x2da;" horiz-adv-x="223" d="M112 797 C72 797 40 764 40 725 C40 685 72 653 112 653 C152 653 185 685 185 725 C185 764 152 797 112 797 L112 797 Z M112 684 C90 684 71 702 71 725 C71 748 90 766 112 766 C134 766 154 748 154 725 C154 702 134 684 112 684 L112 684 Z " />
<glyph glyph-name="ogonek" unicode="&#x2db;" horiz-adv-x="186" d="M71 -77 C71 -68 77 -62 85 -50 C98 -35 115 -13 115 25 L84 25 C84 -2 72 -17 61 -31 C50 -44 40 -58 40 -77 C40 -118 82 -145 142 -145 L142 -114 C107 -114 71 -101 71 -77 L71 -77 Z " />
<glyph glyph-name="tilde" unicode="&#x2dc;" horiz-adv-x="500" d="M247 728 C198 760 140 794 40 694 L62 671 C145 755 185 730 230 701 C256 685 282 670 314 670 C347 670 386 685 436 734 L413 757 C331 676 294 698 247 728 L247 728 Z " />
<glyph glyph-name="hungarumlaut" unicode="&#x2dd;" horiz-adv-x="224" d="M40 724 L67 724 L85 812 L50 812 L40 724 L40 724 Z M88 724 L115 724 L133 812 L97 812 L88 724 L88 724 Z " />
<glyph glyph-name="tonos" unicode="&#x384;" horiz-adv-x="146" d="M31 662 L74 662 L114 794 L55 794 L31 662 L31 662 Z " />
<glyph glyph-name="dieresistonos" unicode="&#x385;" horiz-adv-x="280" d="M40 721 L79 721 L79 768 L40 768 L40 721 L40 721 Z M104 721 L143 721 L143 768 L104 768 L104 721 L104 721 Z " />
<glyph glyph-name="Alphatonos" unicode="&#x386;" horiz-adv-x="434" d="M210 810 L54 1 L86 1 L133 247 L319 247 L366 1 L397 1 L246 810 L210 810 Z M140 280 L228 734 L313 280 L140 280 Z M66 761 L93 761 L111 850 L76 850 L66 761 L66 761 Z " />
<glyph glyph-name="Epsilontonos" unicode="&#x388;" horiz-adv-x="335" d="M54 1 L280 1 L280 32 L85 32 L85 353 L230 353 L230 385 L85 385 L85 780 L280 780 L280 811 L54 811 L54 1 Z M-79 756 L-52 756 L-34 845 L-69 845 L-79 756 L-79 756 Z " />
<glyph glyph-name="Etatonos" unicode="&#x389;" horiz-adv-x="406" d="M320 388 L85 388 L85 809 L54 809 L54 1 L85 1 L85 356 L320 356 L320 1 L352 1 L352 809 L320 809 L320 388 Z M-69 791 L-42 791 L-24 880 L-59 880 L-69 791 L-69 791 Z " />
<glyph glyph-name="Iotatonos" unicode="&#x38a;" horiz-adv-x="145" d="M54 1 L85 1 L85 809 L54 809 L54 1 Z M-66 788 L-39 788 L-21 877 L-56 877 L-66 788 L-66 788 Z " />
<glyph glyph-name="Omicrontonos" unicode="&#x38c;" horiz-adv-x="414" d="M214 809 L205 809 C121 809 54 742 54 659 L55 151 C55 68 122 1 206 1 L216 1 C299 1 366 68 366 151 L365 659 C365 742 298 809 214 809 L214 809 Z M216 32 L206 32 C140 32 86 85 86 151 L85 659 C85 724 139 778 205 778 L214 778 C280 778 334 724 334 659 L335 151 C335 85 281 32 216 32 L216 32 Z M-27 746 L0 746 L18 835 L-17 835 L-27 746 L-27 746 Z " />
<glyph glyph-name="Upsilontonos" unicode="&#x38e;" horiz-adv-x="442" d="M218 365 L86 811 L54 811 L204 305 L204 2 L204 1 L235 1 L235 2 L235 307 L379 811 L347 811 L218 365 Z M-67 783 L-40 783 L-22 872 L-57 872 L-67 783 L-67 783 Z " />
<glyph glyph-name="Omegatonos" unicode="&#x38f;" horiz-adv-x="824" d="M670 434 C659 497 625 556 577 600 C528 646 469 671 413 671 C355 671 298 646 248 600 C199 556 167 497 155 434 C133 318 169 197 268 56 L40 56 L40 24 L330 24 L311 49 C203 197 164 313 186 430 C208 542 311 640 413 640 C514 640 618 542 638 430 C660 313 622 197 514 49 L496 24 L785 24 L785 56 L557 56 C655 197 691 318 670 434 L670 434 Z " />
<glyph glyph-name="iotadieresistonos" unicode="&#x390;" horiz-adv-x="376" d="M40 723 L79 723 L79 762 L40 762 L40 723 Z M212 723 L251 723 L251 762 L212 762 L212 723 Z M280 190 C269 180 253 174 237 174 C204 174 169 199 169 244 L169 723 L63 723 L63 692 L138 692 L138 244 C138 178 189 142 237 142 C262 142 285 152 301 168 C321 187 330 213 330 244 L299 244 C299 222 293 204 280 190 L280 190 Z M131 767 L158 767 L176 856 L141 856 L131 767 L131 767 Z " />
<glyph glyph-name="Alpha" unicode="&#x391;" horiz-adv-x="434" d="M210 810 L54 1 L86 1 L133 247 L319 247 L366 1 L397 1 L246 810 L210 810 Z M140 280 L228 734 L313 280 L140 280 Z " />
<glyph glyph-name="Beta" unicode="&#x392;" horiz-adv-x="382" d="M240 505 C281 532 308 584 308 644 L308 646 L307 655 C306 742 250 810 181 810 L54 810 L54 798 L54 779 L54 515 L54 484 L54 34 L54 1 L54 1 L85 1 L85 1 L194 1 C271 1 334 73 334 162 L334 354 C334 425 295 484 240 505 L240 505 Z M85 779 L181 779 C233 779 276 722 276 654 L276 653 L277 643 C277 575 234 520 182 520 L85 520 L85 779 Z M302 162 C302 91 253 34 194 34 L85 34 L85 484 L194 484 C253 484 302 426 302 354 L302 162 Z " />
<glyph glyph-name="Gamma" unicode="&#x393;" horiz-adv-x="331" d="M290 812 L40 812 L40 1 L71 1 L71 780 L290 780 L290 812 Z " />
<glyph glyph-name="&amp;#x394;" unicode="&#x394;" horiz-adv-x="482" d="M230 654 L227 666 L202 666 L40 2 L390 2 L230 654 L230 654 Z M215 584 L349 34 L80 34 L215 584 L215 584 Z " />
<glyph glyph-name="&amp;#x2206;" unicode="&#x2206;" horiz-adv-x="482" d="M230 654 L227 666 L202 666 L40 2 L390 2 L230 654 L230 654 Z M215 584 L349 34 L80 34 L215 584 L215 584 Z " />
<glyph glyph-name="Epsilon" unicode="&#x395;" horiz-adv-x="335" d="M54 1 L280 1 L280 32 L85 32 L85 353 L230 353 L230 385 L85 385 L85 780 L280 780 L280 811 L54 811 L54 1 Z " />
<glyph glyph-name="Zeta" unicode="&#x396;" horiz-adv-x="438" d="M322 810 L73 810 L73 778 L312 778 L54 1 L71 1 L71 1 L88 1 L343 1 L343 1 L343 32 L97 32 L355 810 L322 810 Z " />
<glyph glyph-name="Eta" unicode="&#x397;" horiz-adv-x="406" d="M320 388 L85 388 L85 809 L54 809 L54 1 L85 1 L85 356 L320 356 L320 1 L352 1 L352 809 L320 809 L320 388 Z " />
<glyph glyph-name="Theta" unicode="&#x398;" horiz-adv-x="428" d="M214 811 L205 811 C121 811 54 744 54 661 L55 150 C55 67 122 0 206 0 L216 0 C299 0 366 67 366 150 L365 661 C365 744 298 811 214 811 L214 811 Z M216 31 L206 31 C140 31 86 84 86 150 L85 661 C85 726 139 780 205 780 L214 780 C280 780 334 726 334 661 L335 150 C335 84 281 31 216 31 L216 31 Z M84 392 L345 392 L345 425 L84 425 L84 392 L84 392 Z " />
<glyph glyph-name="Iota" unicode="&#x399;" horiz-adv-x="145" d="M54 1 L85 1 L85 809 L54 809 L54 1 Z " />
<glyph glyph-name="Kappa" unicode="&#x39a;" horiz-adv-x="434" d="M395 810 L358 810 L85 383 L85 810 L54 810 L54 1 L85 1 L85 324 L186 482 L367 1 L401 1 L208 515 L395 810 Z " />
<glyph glyph-name="Lambda" unicode="&#x39b;" horiz-adv-x="425" d="M342 1 L374 1 L230 799 L228 810 L200 810 L198 799 L54 1 L86 1 L214 710 L342 1 Z " />
<glyph glyph-name="Mu" unicode="&#x39c;" horiz-adv-x="516" d="M382 811 L234 311 L88 811 L54 811 L54 811 L54 0 L85 0 L85 707 L222 242 L247 242 L383 704 L383 0 L414 0 L414 811 L414 811 L414 811 L382 811 Z " />
<glyph glyph-name="Nu" unicode="&#x39d;" horiz-adv-x="430" d="M331 90 L89 810 L85 810 L58 810 L56 810 L56 810 L56 1 L54 1 L54 1 L85 1 L85 1 L88 1 L88 716 L329 1 L331 1 L331 1 L336 1 L364 1 L364 1 L364 809 L331 809 L331 90 Z " />
<glyph glyph-name="Xi" unicode="&#x39e;" horiz-adv-x="438" d="M87 385 L375 385 L375 418 L87 418 L87 385 L87 385 Z M40 776 L422 776 L422 809 L40 809 L40 776 L40 776 Z M40 4 L422 4 L422 37 L40 37 L40 4 L40 4 Z " />
<glyph glyph-name="Omicron" unicode="&#x39f;" horiz-adv-x="414" d="M214 809 L205 809 C121 809 54 742 54 659 L55 151 C55 68 122 1 206 1 L216 1 C299 1 366 68 366 151 L365 659 C365 742 298 809 214 809 L214 809 Z M216 32 L206 32 C140 32 86 85 86 151 L85 659 C85 724 139 778 205 778 L214 778 C280 778 334 724 334 659 L335 151 C335 85 281 32 216 32 L216 32 Z " />
<glyph glyph-name="Pi" unicode="&#x3a0;" horiz-adv-x="547" d="M419 708 L388 708 L388 707 L179 707 L179 708 L148 708 L148 707 L40 707 L40 674 L148 674 L148 43 L179 43 L179 674 L388 674 L388 43 L419 43 L419 674 L540 674 L540 707 L419 707 L419 708 L419 708 Z " />
<glyph glyph-name="Rho" unicode="&#x3a1;" horiz-adv-x="421" d="M206 811 L54 811 L53 0 L84 0 L85 311 L206 311 C283 311 346 380 346 466 L346 656 C346 742 283 811 206 811 L206 811 Z M314 466 C314 397 266 342 206 342 L85 342 L85 780 L206 780 C266 780 314 725 314 656 L314 466 L314 466 Z " />
<glyph glyph-name="Sigma" unicode="&#x3a3;" horiz-adv-x="438" d="M205 317 L40 5 L382 5 L382 36 L92 36 L241 317 L92 598 L382 598 L382 629 L40 629 L205 317 L205 317 Z " />
<glyph glyph-name="Tau" unicode="&#x3a4;" horiz-adv-x="359" d="M54 780 L175 780 L175 0 L206 0 L206 780 L326 780 L326 811 L54 811 L54 780 Z " />
<glyph glyph-name="Upsilon" unicode="&#x3a5;" horiz-adv-x="442" d="M218 365 L86 811 L54 811 L204 305 L204 2 L204 1 L235 1 L235 2 L235 307 L379 811 L347 811 L218 365 Z " />
<glyph glyph-name="Phi" unicode="&#x3a6;" horiz-adv-x="419" d="M366 151 L365 659 C365 738 302 804 223 809 L223 887 L192 887 L192 808 C114 802 54 737 54 659 L55 151 C55 73 115 8 192 2 L192 -68 L223 -68 L223 1 C302 5 366 71 366 151 L366 151 Z M86 151 L85 659 C85 719 132 770 192 776 L192 34 C133 41 86 90 86 151 L86 151 Z M223 32 L223 778 C284 773 334 720 334 659 L335 151 C335 88 284 36 223 32 L223 32 Z " />
<glyph glyph-name="Chi" unicode="&#x3a7;" horiz-adv-x="456" d="M346 811 L217 432 L88 811 L54 811 L200 384 L68 0 L102 0 L217 335 L331 0 L365 0 L233 384 L379 811 L346 811 L346 811 Z " />
<glyph glyph-name="Psi" unicode="&#x3a8;" horiz-adv-x="424" d="M326 808 L326 493 C326 426 276 371 214 364 L214 804 L186 804 L186 364 C124 371 73 426 73 493 L73 808 L47 808 L47 493 C47 412 108 343 186 337 L186 0 L214 0 L214 337 C292 343 353 412 353 493 L353 808 L326 808 L326 808 Z " />
<glyph glyph-name="&amp;#x3a9;" unicode="&#x3a9;" horiz-adv-x="804" d="M670 410 C659 473 625 532 577 576 C528 622 469 647 413 647 C355 647 298 622 248 576 C199 532 167 473 155 410 C133 294 169 173 268 32 L40 32 L40 0 L330 0 L311 25 C203 173 164 289 186 406 C208 518 311 616 413 616 C514 616 618 518 638 406 C660 289 622 173 514 25 L496 0 L785 0 L785 32 L557 32 C655 173 691 294 670 410 L670 410 Z " />
<glyph glyph-name="&amp;#x2126;" unicode="&#x2126;" horiz-adv-x="804" d="M670 410 C659 473 625 532 577 576 C528 622 469 647 413 647 C355 647 298 622 248 576 C199 532 167 473 155 410 C133 294 169 173 268 32 L40 32 L40 0 L330 0 L311 25 C203 173 164 289 186 406 C208 518 311 616 413 616 C514 616 618 518 638 406 C660 289 622 173 514 25 L496 0 L785 0 L785 32 L557 32 C655 173 691 294 670 410 L670 410 Z " />
<glyph glyph-name="Iotadieresis" unicode="&#x3aa;" horiz-adv-x="145" d="M54 1 L85 1 L85 809 L54 809 L54 1 Z M-22 945 L17 945 L17 992 L-22 992 L-22 945 L-22 945 Z M42 945 L81 945 L81 992 L42 992 L42 945 L42 945 Z " />
<glyph glyph-name="Upsilondieresis" unicode="&#x3ab;" horiz-adv-x="446" d="M218 365 L86 811 L54 811 L204 305 L204 2 L204 1 L235 1 L235 2 L235 307 L379 811 L347 811 L218 365 Z M167 901 L206 901 L206 948 L167 948 L167 901 L167 901 Z M231 901 L270 901 L270 948 L231 948 L231 901 L231 901 Z " />
<glyph glyph-name="alphatonos" unicode="&#x3ac;" horiz-adv-x="676" d="M608 282 L577 282 C577 211 556 181 508 181 C469 181 449 241 431 315 C438 330 445 345 452 362 C502 477 523 613 523 688 L492 688 C492 615 470 486 424 374 C422 370 421 367 419 364 C403 432 388 501 359 556 C323 624 276 657 214 657 C162 657 116 624 84 564 C55 512 40 444 40 375 C40 232 106 140 208 140 C286 140 354 187 409 276 C430 202 455 150 508 150 C575 150 608 194 608 282 L608 282 Z M208 171 C164 171 130 192 106 231 C83 267 71 319 71 375 C71 439 86 501 112 549 C131 584 163 626 214 626 C326 626 360 482 389 355 C392 343 395 331 397 319 C356 243 295 171 208 171 L208 171 Z M306 767 L333 767 L351 856 L316 856 L306 767 L306 767 Z " />
<glyph glyph-name="epsilontonos" unicode="&#x3ad;" horiz-adv-x="394" d="M270 292 C270 226 226 174 170 174 C116 174 71 226 71 292 L71 340 L71 404 L292 404 L292 436 L71 436 L71 511 L71 559 C71 625 116 679 170 679 C226 679 270 625 270 559 L302 559 C302 643 244 710 170 710 C98 710 40 643 40 559 L40 511 L40 340 L40 292 C40 210 98 142 170 142 C244 142 302 210 302 292 L270 292 L270 292 Z M166 767 L193 767 L211 856 L176 856 L166 767 L166 767 Z " />
<glyph glyph-name="etatonos" unicode="&#x3ae;" horiz-adv-x="372" d="M185 582 C145 582 109 562 85 529 L85 583 L54 583 L54 432 L54 2 L54 1 L85 1 L85 2 L85 432 C85 497 131 551 185 551 C240 551 284 497 284 432 L284 -83 L317 -83 L317 432 C317 515 258 582 185 582 L185 582 Z M154 697 L181 697 L199 786 L164 786 L154 697 L154 697 Z " />
<glyph glyph-name="iotatonos" unicode="&#x3af;" horiz-adv-x="334" d="M257 190 C246 180 230 174 214 174 C181 174 146 199 146 244 L146 723 L40 723 L40 692 L115 692 L115 244 C115 178 166 142 214 142 C239 142 262 152 278 168 C298 187 307 213 307 244 L276 244 C276 222 270 204 257 190 L257 190 Z M135 767 L162 767 L180 856 L145 856 L135 767 L135 767 Z " />
<glyph glyph-name="upsilondieresistonos" unicode="&#x3b0;" horiz-adv-x="516" d="M148 723 L187 723 L187 762 L148 762 L148 723 L148 723 Z M344 723 L383 723 L383 762 L344 762 L344 723 L344 723 Z M244 767 L271 767 L289 856 L254 856 L244 767 L244 767 Z M246 146 C310 146 364 178 403 240 C479 356 485 556 418 708 L389 694 C452 553 446 364 377 256 C354 220 312 178 247 177 C242 180 216 204 187 417 C173 534 164 648 164 649 L162 669 L52 631 L62 601 L134 626 C137 586 145 494 158 403 C188 177 218 146 246 146 L246 146 Z " />
<glyph glyph-name="alpha" unicode="&#x3b1;" horiz-adv-x="676" d="M608 212 L577 212 C577 141 556 111 508 111 C469 111 449 171 431 245 C438 260 445 275 452 292 C502 407 523 543 523 618 L492 618 C492 545 470 416 424 304 C422 300 421 297 419 294 C403 362 388 431 359 486 C323 554 276 587 214 587 C162 587 116 554 84 494 C55 442 40 374 40 305 C40 162 106 70 208 70 C286 70 354 117 409 206 C430 132 455 80 508 80 C575 80 608 124 608 212 L608 212 Z M208 101 C164 101 130 122 106 161 C83 197 71 249 71 305 C71 369 86 431 112 479 C131 514 163 556 214 556 C326 556 360 412 389 285 C392 273 395 261 397 249 C356 173 295 101 208 101 L208 101 Z " />
<glyph glyph-name="beta" unicode="&#x3b2;" horiz-adv-x="444" d="M373 246 C373 344 348 418 298 462 C277 479 256 490 236 497 C236 497 238 497 239 498 C290 524 322 569 329 624 C341 720 298 767 270 785 C227 816 163 820 113 793 C66 769 40 725 40 673 L40 -160 L71 -160 L71 673 C71 727 106 754 127 764 C167 786 217 784 252 760 C289 734 305 688 298 628 C283 523 175 508 161 505 C161 505 160 505 160 505 L163 474 C163 474 163 474 164 474 C173 475 229 479 277 438 C320 400 342 335 342 246 C342 168 326 113 294 82 C258 46 204 47 166 48 C160 48 154 49 149 49 L149 17 C154 17 158 17 164 17 C206 16 270 14 317 60 C355 97 373 158 373 246 L373 246 Z " />
<glyph glyph-name="gamma" unicode="&#x3b3;" horiz-adv-x="572" d="M72 490 C71 490 68 529 89 552 C101 564 116 570 138 570 C166 570 191 558 212 535 C284 457 310 274 317 114 C300 -47 313 -168 314 -173 L346 -172 C347 -161 355 -34 348 115 C364 259 408 461 532 611 L508 630 C414 517 364 377 337 251 C323 376 293 494 235 557 C208 587 175 601 138 601 C107 601 83 592 66 574 C35 539 40 488 40 486 L72 490 L72 490 Z " />
<glyph glyph-name="delta" unicode="&#x3b4;" horiz-adv-x="404" d="M53 155 C78 104 134 74 209 74 C271 74 320 106 341 160 C367 232 337 320 263 384 C122 507 132 568 138 585 C145 604 169 616 203 616 C290 616 313 569 314 567 L329 573 L343 580 C342 582 312 647 203 647 C155 647 120 628 108 596 C94 556 112 504 158 446 L149 453 C53 334 18 228 53 155 L53 155 Z M172 430 C191 408 215 384 242 360 C306 304 332 230 311 171 C295 129 258 105 209 105 C148 105 101 129 82 168 C53 230 85 324 172 430 L172 430 Z " />
<glyph glyph-name="epsilon" unicode="&#x3b5;" horiz-adv-x="394" d="M270 222 C270 156 226 104 170 104 C116 104 71 156 71 222 L71 270 L71 334 L292 334 L292 366 L71 366 L71 441 L71 489 C71 555 116 609 170 609 C226 609 270 555 270 489 L302 489 C302 573 244 640 170 640 C98 640 40 573 40 489 L40 441 L40 270 L40 222 C40 140 98 72 170 72 C244 72 302 140 302 222 L270 222 L270 222 Z " />
<glyph glyph-name="zeta" unicode="&#x3b6;" horiz-adv-x="547" d="M292 72 C302 72 312 72 323 72 C409 72 460 40 460 8 C460 -7 450 -20 432 -31 C415 -40 383 -52 329 -52 L329 -84 C378 -84 419 -75 448 -58 C475 -42 491 -19 491 8 C491 56 433 105 323 105 C312 105 301 105 292 105 C223 104 178 104 152 130 C119 166 113 257 130 476 C133 520 140 560 154 594 C194 591 245 602 304 629 C398 674 403 714 398 735 C390 764 355 780 311 777 C263 772 215 746 179 702 C161 682 146 658 134 632 C127 634 121 638 115 641 C65 676 72 762 72 764 L40 766 C40 761 32 662 97 615 C104 610 113 605 122 603 C109 566 101 525 98 478 C80 243 88 153 130 108 C163 72 217 72 292 72 L292 72 Z M203 682 C234 718 274 741 313 744 C343 748 365 738 367 728 C371 716 358 689 290 658 C241 635 199 624 166 626 C176 647 188 666 203 682 L203 682 Z " />
<glyph glyph-name="eta" unicode="&#x3b7;" horiz-adv-x="372" d="M185 582 C145 582 109 562 85 529 L85 583 L54 583 L54 432 L54 2 L54 1 L85 1 L85 2 L85 432 C85 497 131 551 185 551 C240 551 284 497 284 432 L284 -83 L317 -83 L317 432 C317 515 258 582 185 582 L185 582 Z " />
<glyph glyph-name="theta" unicode="&#x3b8;" horiz-adv-x="359" d="M185 584 C113 584 54 517 54 434 L54 151 C54 68 113 1 185 1 C258 1 317 68 317 151 L317 434 C317 517 258 584 185 584 L185 584 Z M284 151 C284 85 240 32 185 32 C131 32 85 85 85 151 L85 434 C85 500 131 553 185 553 C240 553 284 500 284 434 L284 151 Z M64 284 L296 284 L296 317 L64 317 L64 284 Z " />
<glyph glyph-name="iota" unicode="&#x3b9;" horiz-adv-x="334" d="M257 120 C246 110 230 104 214 104 C181 104 146 129 146 174 L146 653 L40 653 L40 622 L115 622 L115 174 C115 108 166 72 214 72 C239 72 262 82 278 98 C298 117 307 143 307 174 L276 174 C276 152 270 134 257 120 L257 120 Z " />
<glyph glyph-name="kappa" unicode="&#x3ba;" horiz-adv-x="391" d="" />
<glyph glyph-name="lambda" unicode="&#x3bb;" horiz-adv-x="634" d="M323 525 C295 599 271 664 248 706 C202 792 150 795 124 788 C77 776 40 719 40 660 L71 660 C71 705 98 749 131 758 C162 765 193 741 221 690 C244 651 266 587 294 514 C302 489 308 473 319 447 L151 70 L186 70 L335 405 C401 236 484 68 599 68 L599 99 C480 99 390 345 323 525 L323 525 Z " />
<glyph glyph-name="nu" unicode="&#x3bd;" horiz-adv-x="398" d="M86 742 L54 742 L174 71 L203 71 L323 742 L290 742 L188 168 L86 742 Z " />
<glyph glyph-name="xi" unicode="&#x3be;" horiz-adv-x="552" d="M323 117 C312 117 301 117 292 117 C223 116 178 116 152 142 C126 171 116 233 122 365 L353 365 L353 398 L124 398 C125 425 127 455 130 488 C133 532 140 572 154 606 C194 603 245 614 304 641 C398 686 403 726 398 747 C390 776 355 792 311 789 C263 784 215 758 179 714 C161 694 146 670 134 644 C127 646 121 650 115 653 C65 688 72 774 72 776 L40 778 C40 773 32 674 97 627 C104 622 113 617 122 614 C109 578 101 537 98 490 C80 255 88 165 130 120 C163 84 217 84 292 84 C302 84 312 84 323 84 C409 84 460 52 460 20 C460 5 450 -8 432 -19 C415 -28 383 -40 329 -40 L329 -72 C378 -72 419 -63 448 -46 C475 -30 491 -7 491 20 C491 68 433 117 323 117 L323 117 Z M203 694 C234 730 274 753 313 756 C343 760 365 750 367 740 C371 728 358 701 290 670 C241 647 199 636 166 638 C176 659 188 678 203 694 L203 694 Z " />
<glyph glyph-name="omicron" unicode="&#x3bf;" horiz-adv-x="398" d="M86 742 L54 742 L174 71 L203 71 L323 742 L290 742 L188 168 L86 742 Z " />
<glyph glyph-name="pi" unicode="&#x3c0;" horiz-adv-x="646" d="M314 497 C246 474 181 452 55 521 L40 493 C97 462 144 448 184 444 L184 43 L215 43 L215 443 C257 444 292 456 325 468 C356 479 386 488 424 491 L424 43 L455 43 L455 490 C492 486 535 473 589 443 L605 470 C462 548 388 522 314 497 L314 497 Z " />
<glyph glyph-name="rho" unicode="&#x3c1;" horiz-adv-x="359" d="M181 742 L54 742 L54 365 L54 333 L54 71 L85 71 L85 333 L181 333 C246 333 299 390 299 461 L299 613 C299 684 246 742 181 742 L181 742 Z M268 461 C268 408 229 365 181 365 L85 365 L85 710 L181 710 C229 710 268 667 268 613 L268 461 L268 461 Z " />
<glyph glyph-name="sigma1" unicode="&#x3c2;" horiz-adv-x="532" d="M232 627 C181 622 134 593 97 545 C62 500 42 442 40 386 C38 322 59 264 100 218 C148 165 221 130 316 114 C359 107 390 83 397 50 C403 20 391 -10 365 -27 C343 -43 280 -68 162 14 L144 -12 C214 -61 268 -75 308 -75 C346 -75 370 -63 383 -54 C419 -30 437 14 427 56 C418 102 378 136 320 146 C90 183 70 324 71 384 C74 490 149 587 234 596 C296 602 343 588 376 556 C436 497 426 392 426 390 L442 388 L457 387 C457 392 468 508 398 578 C359 617 302 634 232 627 L232 627 Z " />
<glyph glyph-name="sigma" unicode="&#x3c3;" horiz-adv-x="442" d="M170 70 C244 70 302 137 302 220 L302 440 C302 488 282 531 251 558 L457 558 L457 590 L170 590 C98 590 40 522 40 440 L40 220 C40 137 98 70 170 70 L170 70 Z M71 440 C71 504 116 558 170 558 C226 558 270 504 270 440 L270 220 C270 155 226 101 170 101 C116 101 71 155 71 220 L71 440 L71 440 Z " />
<glyph glyph-name="tau" unicode="&#x3c4;" horiz-adv-x="196" d="M-56 709 L98 709 L98 67 L130 67 L130 740 L-56 740 L-56 709 L-56 709 Z " />
<glyph glyph-name="upsilon" unicode="&#x3c5;" horiz-adv-x="491" d="M234 76 C298 76 352 108 391 170 C467 286 473 486 406 638 L377 624 C440 483 434 294 365 186 C342 150 300 108 235 107 C230 110 204 134 175 347 C161 464 152 578 152 579 L150 599 L40 561 L50 531 L122 556 C125 516 133 424 146 333 C176 107 206 76 234 76 L234 76 Z " />
<glyph glyph-name="phi" unicode="&#x3c6;" horiz-adv-x="374" d="M202 583 L202 653 L170 653 L170 583 C106 575 54 511 54 434 L54 151 C54 74 106 11 170 2 L170 -59 L202 -59 L202 2 C266 12 317 74 317 151 L317 434 C317 511 266 574 202 583 L202 583 Z M85 151 L85 434 C85 494 122 544 170 552 L170 34 C122 42 85 91 85 151 L85 151 Z M284 151 C284 92 248 43 202 34 L202 552 C248 542 284 493 284 434 L284 151 L284 151 Z " />
<glyph glyph-name="chi" unicode="&#x3c7;" horiz-adv-x="450" d="M362 653 L327 653 L216 414 L103 653 L68 653 L199 377 L54 70 L89 70 L216 341 L344 70 L379 70 L234 377 L362 653 L362 653 Z " />
<glyph glyph-name="psi" unicode="&#x3c8;" horiz-adv-x="419" d="M326 580 L326 265 C326 198 276 143 214 136 L214 576 L186 576 L186 136 C124 143 73 198 73 265 L73 580 L47 580 L47 265 C47 184 108 115 186 109 L186 -228 L214 -228 L214 109 C292 115 353 184 353 265 L353 580 L326 580 L326 580 Z " />
<glyph glyph-name="omega" unicode="&#x3c9;" horiz-adv-x="730" d="M492 88 C564 88 623 131 654 207 C679 268 684 344 666 420 C647 504 604 581 540 645 L518 622 C646 496 668 323 625 219 C599 155 551 119 492 119 C475 119 461 126 446 141 C414 174 396 242 385 314 C395 404 385 506 372 592 L341 591 C340 581 334 442 353 312 C347 252 331 200 300 164 C275 135 241 119 198 119 C155 119 119 146 96 191 C72 239 65 305 77 376 C90 456 126 536 179 605 L155 624 C25 456 19 275 67 177 C96 119 142 88 198 88 C251 88 293 107 324 143 C344 167 360 197 370 232 C382 185 400 144 424 119 C444 99 467 88 492 88 L492 88 Z " />
<glyph glyph-name="iotadieresis" unicode="&#x3ca;" horiz-adv-x="334" d="M257 190 C246 180 230 174 214 174 C181 174 146 199 146 244 L146 723 L40 723 L40 692 L115 692 L115 244 C115 178 166 142 214 142 C239 142 262 152 278 168 C298 187 307 213 307 244 L276 244 C276 222 270 204 257 190 L257 190 Z M12 791 L51 791 L51 838 L12 838 L12 791 L12 791 Z M76 791 L115 791 L115 838 L76 838 L76 791 L76 791 Z " />
<glyph glyph-name="upsilondieresis" unicode="&#x3cb;" horiz-adv-x="491" d="M234 146 C298 146 352 178 391 240 C467 356 473 556 406 708 L377 694 C440 553 434 364 365 256 C342 220 300 178 235 177 C230 180 204 204 175 417 C161 534 152 648 152 649 L150 669 L40 631 L50 601 L122 626 C125 586 133 494 146 403 C176 177 206 146 234 146 L234 146 Z M150 791 L189 791 L189 838 L150 838 L150 791 L150 791 Z M214 791 L253 791 L253 838 L214 838 L214 791 L214 791 Z " />
<glyph glyph-name="omicrontonos" unicode="&#x3cc;" horiz-adv-x="367" d="M152 767 L179 767 L197 856 L162 856 L152 767 L152 767 Z " />
<glyph glyph-name="upsilontonos" unicode="&#x3cd;" horiz-adv-x="509" d="M234 76 C298 76 352 108 391 170 C467 286 473 486 406 638 L377 624 C440 483 434 294 365 186 C342 150 300 108 235 107 C230 110 204 134 175 347 C161 464 152 578 152 579 L150 599 L40 561 L50 531 L122 556 C125 516 133 424 146 333 C176 107 206 76 234 76 L234 76 Z M233 737 L260 737 L278 826 L243 826 L233 737 L233 737 Z " />
<glyph glyph-name="omegatonos" unicode="&#x3ce;" horiz-adv-x="773" d="M330 834 L341 738 L368 738 L374 834 L330 834 Z M492 158 C564 158 623 201 654 277 C679 338 684 414 666 490 C647 574 604 651 540 715 L518 692 C646 566 668 393 625 289 C599 225 551 189 492 189 C475 189 461 196 446 211 C414 244 396 312 385 384 C395 474 385 576 372 662 L341 661 C340 651 334 512 353 382 C347 322 331 270 300 234 C275 205 241 189 198 189 C155 189 119 216 96 261 C72 309 65 375 77 446 C90 526 126 606 179 675 L155 694 C25 526 19 345 67 247 C96 189 142 158 198 158 C251 158 293 177 324 213 C344 237 360 267 370 302 C382 255 400 214 424 189 C444 169 467 158 492 158 L492 158 Z " />
<glyph glyph-name="afii10023" unicode="&#x401;" horiz-adv-x="335" d="M54 1 L280 1 L280 32 L85 32 L85 353 L230 353 L230 385 L85 385 L85 780 L280 780 L280 811 L54 811 L54 1 Z M98 913 L137 913 L137 960 L98 960 L98 913 L98 913 Z M162 913 L201 913 L201 960 L162 960 L162 913 L162 913 Z " />
<glyph glyph-name="afii10051" unicode="&#x402;" horiz-adv-x="407" d="M245 554 C205 554 170 534 146 503 L146 778 L283 778 L283 809 L40 809 L40 778 L114 778 L114 415 C114 412 114 408 114 404 L114 186 L114 186 L114 2 L146 2 L146 414 C150 475 193 523 245 523 C300 523 344 469 344 404 L344 170 C344 101 296 36 245 36 L245 4 C320 4 377 92 377 170 L377 404 C377 487 318 554 245 554 L245 554 Z " />
<glyph glyph-name="afii10052" unicode="&#x403;" horiz-adv-x="328" d="M290 812 L40 812 L40 1 L71 1 L71 780 L290 780 L290 812 Z M148 853 L175 853 L193 942 L158 942 L148 853 L148 853 Z M148 853 L175 853 L193 942 L158 942 L148 853 L148 853 Z " />
<glyph glyph-name="afii10053" unicode="&#x404;" horiz-adv-x="394" d="M170 809 L40 809 L40 778 L170 778 C234 778 286 725 286 659 L286 541 C286 478 248 422 203 422 L103 422 L103 421 L103 391 L103 390 L203 390 C248 390 286 335 286 271 L286 154 C286 88 234 35 170 35 L40 35 L40 4 L170 4 C252 4 318 71 318 154 L318 271 C318 330 292 382 253 406 C292 431 318 482 318 541 L318 659 C318 742 252 809 170 809 L170 809 Z " />
<glyph glyph-name="afii10054" unicode="&#x405;" horiz-adv-x="428" d="M217 421 C149 487 84 551 85 656 C86 725 140 779 208 779 C274 779 328 720 328 647 L360 647 C360 737 292 811 208 811 C122 811 55 743 54 656 C53 538 125 467 196 398 C265 331 330 265 328 156 C326 77 282 31 208 31 C142 31 88 90 88 163 L55 163 C55 73 124 0 208 0 C299 0 358 59 360 156 C362 278 289 352 217 421 L217 421 Z " />
<glyph glyph-name="afii10055" unicode="&#x406;" horiz-adv-x="175" d="M54 0 L85 0 L85 810 L54 810 L54 0 L54 0 Z " />
<glyph glyph-name="Yi" unicode="&#x407;" horiz-adv-x="175" d="M54 0 L85 0 L85 810 L54 810 L54 0 L54 0 Z M22 834 L61 834 L61 881 L22 881 L22 834 L22 834 Z M86 834 L125 834 L125 881 L86 881 L86 834 L86 834 Z " />
<glyph glyph-name="afii10057" unicode="&#x408;" horiz-adv-x="424" d="M325 157 C325 89 271 32 205 32 C139 32 85 89 85 157 L85 350 L54 350 L54 157 C54 71 122 1 205 1 C288 1 356 71 356 157 L356 808 L325 808 L325 157 Z " />
<glyph glyph-name="afii10058" unicode="&#x409;" horiz-adv-x="694" d="M448 552 L348 552 L348 810 L324 810 L316 810 L200 810 L200 104 C200 58 167 34 133 34 C116 34 102 40 91 50 C78 64 71 82 71 104 L40 104 C40 73 49 47 68 28 C85 12 108 2 133 2 C181 2 232 38 232 104 L232 779 L316 779 L316 1 L332 1 L348 1 L448 1 C520 1 578 68 578 151 L578 401 C578 484 520 552 448 552 L448 552 Z M547 151 C547 86 502 32 448 32 L348 32 L348 520 L448 520 C502 520 547 467 547 401 L547 151 L547 151 Z " />
<glyph glyph-name="afii10059" unicode="&#x40a;" horiz-adv-x="683" d="M452 552 L373 552 L373 810 L341 810 L341 552 L232 552 L232 810 L200 810 L200 104 C200 58 167 34 133 34 C116 34 102 40 91 50 C78 64 71 82 71 104 L40 104 C40 73 49 47 68 28 C85 12 108 2 133 2 C181 2 232 38 232 104 L232 520 L341 520 L341 4 L358 4 L373 4 L473 4 C545 4 604 72 604 155 L604 401 C604 484 536 552 452 552 L452 552 Z M572 155 C572 89 528 36 473 36 L373 36 L373 520 L452 520 C518 520 572 467 572 401 L572 155 L572 155 Z " />
<glyph glyph-name="afii10060" unicode="&#x40b;" horiz-adv-x="448" d="M253 468 C214 468 178 448 154 416 L154 633 L307 633 L307 664 L40 664 L40 633 L122 633 L122 317 L122 87 L122 74 L154 74 L154 87 L154 317 C154 383 198 437 253 437 C308 437 353 383 353 317 L353 75 L384 75 L384 317 C384 401 325 468 253 468 L253 468 Z " />
<glyph glyph-name="afii10061" unicode="&#x40c;" horiz-adv-x="434" d="M395 810 L358 810 L85 383 L85 810 L54 810 L54 1 L85 1 L85 324 L186 482 L367 1 L401 1 L208 515 L395 810 Z M186 921 L213 921 L231 1010 L196 1010 L186 921 L186 921 Z " />
<glyph glyph-name="afii10062" unicode="&#x40e;" horiz-adv-x="448" d="M218 365 L86 811 L54 811 L204 305 L204 2 L204 1 L235 1 L235 2 L235 307 L379 811 L347 811 L218 365 Z M218 862 C164 862 119 914 119 980 L88 980 C88 898 146 829 218 829 C292 829 350 898 350 980 L318 980 C318 914 274 862 218 862 L218 862 Z " />
<glyph glyph-name="afii10145" unicode="&#x40f;" horiz-adv-x="523" d="M389 224 L71 224 L71 810 L40 810 L40 193 L215 193 L215 4 L246 4 L246 193 L421 193 L421 810 L389 810 L389 224 L389 224 Z " />
<glyph glyph-name="afii10017" unicode="&#x410;" horiz-adv-x="434" d="M210 810 L54 1 L86 1 L133 247 L319 247 L366 1 L397 1 L246 810 L210 810 Z M140 280 L228 734 L313 280 L140 280 Z " />
<glyph glyph-name="afii10018" unicode="&#x411;" horiz-adv-x="413" d="M163 429 L71 429 L71 674 L239 674 L239 706 L40 706 L40 429 L40 429 L40 398 L40 398 L40 74 L55 74 L71 74 L170 74 C244 74 302 142 302 225 L302 279 C302 362 240 429 163 429 L163 429 Z M270 225 C270 159 226 106 170 106 L71 106 L71 398 L163 398 C222 398 270 345 270 279 L270 225 L270 225 Z " />
<glyph glyph-name="afii10019" unicode="&#x412;" horiz-adv-x="382" d="M240 505 C281 532 308 584 308 644 L308 646 L307 655 C306 742 250 810 181 810 L54 810 L54 798 L54 779 L54 515 L54 484 L54 34 L54 1 L54 1 L85 1 L85 1 L194 1 C271 1 334 73 334 162 L334 354 C334 425 295 484 240 505 L240 505 Z M85 779 L181 779 C233 779 276 722 276 654 L276 653 L277 643 C277 575 234 520 182 520 L85 520 L85 779 Z M302 162 C302 91 253 34 194 34 L85 34 L85 484 L194 484 C253 484 302 426 302 354 L302 162 Z " />
<glyph glyph-name="afii10020" unicode="&#x413;" horiz-adv-x="432" d="M362 812 L40 812 L40 1 L71 1 L71 780 L362 780 L362 812 L362 812 Z " />
<glyph glyph-name="afii10021" unicode="&#x414;" horiz-adv-x="745" d="M607 811 L248 811 L248 796 C248 704 239 550 210 418 C186 305 139 169 55 169 L40 169 L40 5 L71 5 L71 138 L626 138 L626 5 L659 5 L659 169 L607 169 L607 811 L607 811 Z M576 169 L133 169 C179 210 215 292 241 412 C268 538 278 685 280 780 L576 780 L576 169 L576 169 Z " />
<glyph glyph-name="afii10022" unicode="&#x415;" horiz-adv-x="335" d="M54 1 L280 1 L280 32 L85 32 L85 353 L230 353 L230 385 L85 385 L85 780 L280 780 L280 811 L54 811 L54 1 Z " />
<glyph glyph-name="afii10024" unicode="&#x416;" horiz-adv-x="755" d="M522 515 L709 810 L672 810 L401 384 L401 810 L400 810 L370 810 L368 810 L368 384 L97 810 L60 810 L247 515 L54 1 L88 1 L269 482 L368 325 L368 1 L370 1 L400 1 L401 1 L401 325 L500 482 L682 1 L715 1 L522 515 L522 515 Z " />
<glyph glyph-name="afii10025" unicode="&#x417;" horiz-adv-x="407" d="M187 809 C106 809 40 742 40 659 L40 541 C40 482 66 431 104 406 C66 382 40 330 40 271 L40 154 C40 71 106 4 187 4 L318 4 L318 35 L187 35 C124 35 72 88 72 154 L72 271 C72 335 109 390 155 390 L254 390 L254 391 L254 421 L254 422 L155 422 C109 422 72 478 72 541 L72 659 C72 725 124 778 187 778 L318 778 L318 809 L187 809 L187 809 Z " />
<glyph glyph-name="afii10026" unicode="&#x418;" horiz-adv-x="430" d="M86 809 L54 809 L54 1 L54 1 L82 1 L86 1 L86 1 L89 1 L330 716 L330 1 L332 1 L332 1 L364 1 L364 1 L361 1 L361 810 L361 810 L360 810 L332 810 L329 810 L86 90 L86 809 Z " />
<glyph glyph-name="afii10027" unicode="&#x419;" horiz-adv-x="369" d="M182 803 C128 803 83 855 83 921 L52 921 C52 839 110 770 182 770 C256 770 314 839 314 921 L282 921 C282 855 238 803 182 803 L182 803 Z M54 742 L85 742 L85 159 L284 742 L317 742 L318 742 L318 742 L318 742 L318 71 L324 71 L324 71 L287 71 L287 650 L89 71 L54 71 L54 742 L54 742 Z " />
<glyph glyph-name="afii10028" unicode="&#x41a;" horiz-adv-x="434" d="M395 810 L358 810 L85 383 L85 810 L54 810 L54 1 L85 1 L85 324 L186 482 L367 1 L401 1 L208 515 L395 810 Z " />
<glyph glyph-name="afii10029" unicode="&#x41b;" horiz-adv-x="577" d="M168 637 L151 637 L151 192 C151 115 108 50 55 50 L40 50 L40 19 L55 19 C126 19 184 97 184 192 L184 606 L460 606 L460 2 L491 2 L491 637 L184 637 L168 637 L168 637 Z " />
<glyph glyph-name="afii10030" unicode="&#x41c;" horiz-adv-x="478" d="M406 812 L392 812 L382 812 L234 311 L88 812 L79 812 L61 812 L54 812 L54 812 L54 1 L85 1 L85 707 L218 254 L222 242 L247 242 L251 254 L383 704 L383 1 L414 1 L414 812 L414 812 L414 812 L406 812 Z " />
<glyph glyph-name="afii10031" unicode="&#x41d;" horiz-adv-x="406" d="M320 388 L85 388 L85 809 L54 809 L54 1 L85 1 L85 356 L320 356 L320 1 L352 1 L352 809 L320 809 L320 388 Z " />
<glyph glyph-name="afii10032" unicode="&#x41e;" horiz-adv-x="428" d="M214 811 L205 811 C121 811 54 744 54 661 L55 150 C55 67 122 0 206 0 L216 0 C299 0 366 67 366 150 L365 661 C365 744 298 811 214 811 L214 811 Z M216 31 L206 31 C140 31 86 84 86 150 L85 661 C85 726 139 780 205 780 L214 780 C280 780 334 726 334 661 L335 150 C335 84 281 31 216 31 L216 31 Z " />
<glyph glyph-name="afii10033" unicode="&#x41f;" horiz-adv-x="478" d="M404 809 L388 809 L89 809 L66 809 L58 809 L58 2 L89 2 L89 778 L388 778 L388 2 L419 2 L419 809 L404 809 L404 809 Z " />
<glyph glyph-name="afii10034" unicode="&#x420;" horiz-adv-x="421" d="M206 811 L54 811 L53 0 L84 0 L85 311 L206 311 C283 311 346 380 346 466 L346 656 C346 742 283 811 206 811 L206 811 Z M314 466 C314 397 266 342 206 342 L85 342 L85 780 L206 780 C266 780 314 725 314 656 L314 466 L314 466 Z " />
<glyph glyph-name="afii10035" unicode="&#x421;" horiz-adv-x="421" d="M205 778 L214 778 C245 778 275 764 298 740 C312 725 323 704 329 683 L359 691 C352 718 338 743 320 762 C292 792 254 810 214 810 L205 810 C121 810 54 737 54 647 L54 162 C54 72 121 0 205 0 L214 0 C277 0 335 43 356 107 L326 118 C308 66 264 31 214 31 L205 31 C139 31 85 90 85 162 L85 647 C85 719 139 778 205 778 L205 778 Z " />
<glyph glyph-name="afii10036" unicode="&#x422;" horiz-adv-x="359" d="M54 780 L175 780 L175 0 L206 0 L206 780 L326 780 L326 811 L54 811 L54 780 Z " />
<glyph glyph-name="afii10037" unicode="&#x423;" horiz-adv-x="398" d="M285 220 C285 155 240 101 185 101 C131 101 86 155 86 220 L86 653 L54 653 L54 220 C54 137 113 70 185 70 C225 70 261 90 285 123 L285 63 C285 -7 240 -62 185 -62 C165 -62 144 -54 126 -38 L105 -61 C129 -82 156 -94 185 -94 C258 -94 317 -24 317 63 L317 220 L317 654 L285 654 L285 220 Z " />
<glyph glyph-name="afii10038" unicode="&#x424;" horiz-adv-x="414" d="M366 151 L365 659 C365 738 302 804 223 809 L223 887 L192 887 L192 808 C114 802 54 737 54 659 L55 151 C55 73 115 8 192 2 L192 -68 L223 -68 L223 1 C302 5 366 71 366 151 L366 151 Z M86 151 L85 659 C85 719 132 770 192 776 L192 34 C133 41 86 90 86 151 L86 151 Z M223 32 L223 778 C284 773 334 720 334 659 L335 151 C335 88 284 36 223 32 L223 32 Z " />
<glyph glyph-name="afii10039" unicode="&#x425;" horiz-adv-x="456" d="M346 811 L217 432 L88 811 L54 811 L200 384 L68 0 L102 0 L217 335 L331 0 L365 0 L233 384 L379 811 L346 811 L346 811 Z " />
<glyph glyph-name="afii10040" unicode="&#x426;" horiz-adv-x="611" d="M409 793 L377 793 L377 34 L337 34 L71 34 L71 793 L40 793 L40 2 L337 2 L409 2 L494 2 L494 -126 L526 -126 L526 34 L409 34 L409 793 L409 793 Z " />
<glyph glyph-name="afii10041" unicode="&#x427;" horiz-adv-x="451" d="M355 803 L355 410 C355 344 302 292 236 292 L191 292 C125 292 71 344 71 410 L71 810 L40 810 L40 410 C40 328 107 260 191 260 L236 260 C284 260 328 283 355 318 L355 2 L386 2 L386 410 L386 803 L386 812 L355 812 L355 803 L355 803 Z " />
<glyph glyph-name="afii10042" unicode="&#x428;" horiz-adv-x="583" d="M475 34 L289 34 L289 811 L257 811 L257 34 L71 34 L71 809 L40 809 L40 2 L506 2 L506 809 L475 809 L475 34 L475 34 Z " />
<glyph glyph-name="afii10043" unicode="&#x429;" horiz-adv-x="706" d="M506 809 L475 809 L475 34 L455 34 L289 34 L289 811 L257 811 L257 34 L71 34 L71 809 L40 809 L40 2 L455 2 L506 2 L586 2 L586 -126 L617 -126 L617 34 L506 34 L506 809 L506 809 Z " />
<glyph glyph-name="afii10044" unicode="&#x42a;" horiz-adv-x="491" d="M266 457 L174 457 L174 810 L40 810 L40 779 L143 779 L143 457 L143 457 L143 425 L143 425 L143 4 L158 4 L174 4 L274 4 C346 4 404 72 404 155 L404 306 C404 389 343 457 266 457 L266 457 Z M373 155 C373 89 329 36 274 36 L174 36 L174 425 L266 425 C325 425 373 372 373 306 L373 155 L373 155 Z " />
<glyph glyph-name="afii10045" unicode="&#x42b;" horiz-adv-x="516" d="M164 457 L73 457 L73 810 L42 810 L42 457 L42 457 L42 425 L42 425 L42 1 L58 1 L73 1 L173 1 C245 1 304 68 304 151 L304 306 C304 389 241 457 164 457 L164 457 Z M272 151 C272 86 228 32 173 32 L73 32 L73 425 L164 425 C224 425 272 372 272 306 L272 151 Z M342 0 L373 0 L373 810 L342 810 L342 0 L342 0 Z " />
<glyph glyph-name="afii10046" unicode="&#x42c;" horiz-adv-x="398" d="M164 457 L73 457 L73 810 L42 810 L42 457 L42 457 L42 425 L42 425 L42 1 L58 1 L73 1 L173 1 C245 1 304 68 304 151 L304 306 C304 389 241 457 164 457 L164 457 Z M272 151 C272 86 228 32 173 32 L73 32 L73 425 L164 425 C224 425 272 372 272 306 L272 151 Z " />
<glyph glyph-name="afii10047" unicode="&#x42d;" horiz-adv-x="473" d="M348 613 L348 550 L348 415 L48 415 L48 384 L348 384 L348 277 L348 198 C348 107 286 34 209 34 C133 34 71 107 71 198 L40 198 C40 90 115 1 209 1 C302 1 379 90 379 198 L379 277 L379 550 L379 613 C379 721 302 809 209 809 C115 809 40 721 40 613 L71 613 C71 704 133 778 209 778 C286 778 348 704 348 613 L348 613 Z " />
<glyph glyph-name="afii10048" unicode="&#x42e;" horiz-adv-x="572" d="M347 810 C275 810 216 743 216 660 L216 419 L71 419 L71 811 L40 811 L40 2 L71 2 L71 388 L216 388 L216 155 C216 71 275 4 347 4 C419 4 478 71 478 155 L478 660 C478 743 419 810 347 810 L347 810 Z M446 155 C446 89 402 35 347 35 C292 35 247 89 247 155 L247 660 C247 726 292 779 347 779 C402 779 446 726 446 660 L446 155 L446 155 Z " />
<glyph glyph-name="afii10049" unicode="&#x42f;" horiz-adv-x="424" d="M144 328 C94 302 61 252 61 193 L61 0 L92 0 L92 193 C92 259 146 313 212 313 L324 313 L324 0 L356 0 L356 811 L204 811 C126 811 63 742 63 656 L63 468 C63 406 96 353 144 328 L144 328 Z M324 344 L204 344 C144 344 94 400 94 468 L94 656 C94 725 144 780 204 780 L324 780 L324 344 Z " />
<glyph glyph-name="afii10065" unicode="&#x430;" horiz-adv-x="396" d="M184 743 L54 71 L86 71 L125 279 L271 279 L310 71 L341 71 L216 743 L184 743 Z M265 310 L131 310 L199 637 L265 310 L265 310 Z " />
<glyph glyph-name="afii10066" unicode="&#x431;" horiz-adv-x="394" d="M179 741 C102 741 40 672 40 588 L40 325 L40 231 L40 222 C40 138 102 71 179 71 C256 71 318 138 318 222 L318 222 C318 225 318 228 318 231 L318 325 C318 409 256 476 179 476 C136 476 96 454 71 421 L71 588 C71 656 119 708 179 708 C238 708 287 656 287 588 L318 588 C318 672 256 741 179 741 L179 741 Z M71 231 L71 325 C71 391 119 445 179 445 C238 445 287 391 287 325 L287 231 C287 165 238 112 179 112 C119 112 71 165 71 231 L71 231 Z " />
<glyph glyph-name="afii10067" unicode="&#x432;" horiz-adv-x="337" d="M210 478 C220 485 228 494 235 504 C253 532 264 569 264 605 C264 681 217 742 160 742 L55 742 L55 742 L54 742 L54 490 L54 486 L54 459 L54 455 L54 104 L54 72 L54 71 L169 71 C233 71 284 131 284 203 L284 356 C284 412 253 459 210 478 L210 478 Z M85 711 L160 711 C199 711 233 661 233 605 C233 545 197 490 158 490 L85 490 L85 711 L85 711 Z M253 203 C253 148 215 104 169 104 L85 104 L85 455 L169 455 C215 455 253 411 253 356 L253 203 L253 203 Z " />
<glyph glyph-name="afii10068" unicode="&#x433;" horiz-adv-x="341" d="M269 654 L40 654 L40 75 L71 75 L71 623 L269 623 L269 654 L269 654 Z " />
<glyph glyph-name="afii10069" unicode="&#x434;" horiz-adv-x="643" d="M517 707 L214 707 L214 692 C214 635 206 509 181 396 C161 306 122 198 55 198 L40 198 L40 75 L71 75 L71 167 L528 167 L528 75 L560 75 L560 198 L517 198 L517 707 L517 707 Z M486 198 L127 198 C163 233 192 297 212 390 C236 496 244 612 245 676 L486 676 L486 198 L486 198 Z " />
<glyph glyph-name="afii10070" unicode="&#x435;" horiz-adv-x="295" d="M54 76 L240 76 L240 107 L85 107 L85 364 L199 364 L199 396 L85 396 L85 712 L240 712 L240 743 L54 743 L54 76 L54 76 Z " />
<glyph glyph-name="afii10072" unicode="&#x436;" horiz-adv-x="616" d="M613 653 L572 653 L348 374 L348 880 L347 880 L317 880 L316 880 L316 374 L91 653 L50 653 L204 462 L56 71 L90 71 L227 434 L316 323 L316 71 L317 71 L347 71 L348 71 L348 323 L437 434 L574 71 L607 71 L460 462 L613 653 L613 653 Z " />
<glyph glyph-name="afii10073" unicode="&#x437;" horiz-adv-x="379" d="M176 636 L40 636 L40 605 L176 605 C242 605 295 551 295 485 L295 450 C295 384 256 331 208 331 L103 331 L103 330 L103 299 L103 299 L208 299 C256 299 295 245 295 180 L295 154 C295 88 244 35 180 35 L49 35 L49 4 L180 4 C262 4 328 71 328 154 L328 180 C328 239 300 290 260 314 C300 340 328 391 328 450 L328 485 C328 569 259 636 176 636 L176 636 Z " />
<glyph glyph-name="afii10074" unicode="&#x438;" horiz-adv-x="407" d="M54 742 L54 71 L89 71 L287 650 L287 71 L324 71 L324 71 L318 71 L318 742 L318 742 L318 742 L317 742 L284 742 L85 159 L85 742 L54 742 L54 742 Z " />
<glyph glyph-name="afii10075" unicode="&#x439;" horiz-adv-x="383" d="M180 694 C126 694 81 746 81 812 L50 812 C50 730 108 661 180 661 C254 661 312 730 312 812 L280 812 C280 746 236 694 180 694 L180 694 Z " />
<glyph glyph-name="afii10076" unicode="&#x43a;" horiz-adv-x="391" d="M337 742 L85 345 L85 742 L54 742 L54 71 L85 71 L85 286 L186 444 L328 71 L361 71 L208 478 L374 742 L337 742 L337 742 Z " />
<glyph glyph-name="afii10077" unicode="&#x43b;" horiz-adv-x="586" d="M152 650 L152 248 C152 209 142 173 122 146 C104 120 80 106 56 106 L41 106 L41 75 L56 75 C126 75 184 153 184 248 L184 618 L460 618 L460 70 L491 70 L491 650 L152 650 L152 650 Z " />
<glyph glyph-name="afii10078" unicode="&#x43c;" horiz-adv-x="428" d="M366 742 L366 742 L332 742 L212 339 L91 742 L59 742 L60 72 L54 72 L54 72 L60 72 L60 71 L92 71 L92 630 L196 285 L199 272 L224 272 L228 285 L334 638 L334 72 L372 72 L372 72 L366 72 L366 742 L366 742 Z " />
<glyph glyph-name="afii10079" unicode="&#x43d;" horiz-adv-x="352" d="M268 390 L85 390 L85 742 L54 742 L54 71 L85 71 L85 359 L268 359 L268 71 L299 71 L299 742 L268 742 L268 390 L268 390 Z " />
<glyph glyph-name="afii10080" unicode="&#x43e;" horiz-adv-x="374" d="M181 742 C112 742 54 675 54 592 L54 221 C54 138 112 71 181 71 C251 71 308 138 308 221 L308 592 C308 675 251 742 181 742 L181 742 Z M277 221 C277 155 234 102 181 102 C128 102 85 155 85 221 L85 592 C85 657 128 711 181 711 C234 711 277 657 277 592 L277 221 L277 221 Z " />
<glyph glyph-name="afii10081" unicode="&#x43f;" horiz-adv-x="416" d="M356 741 L340 741 L65 741 L42 741 L34 741 L34 71 L65 71 L65 710 L340 710 L340 71 L371 71 L371 741 L356 741 L356 741 Z " />
<glyph glyph-name="afii10082" unicode="&#x440;" horiz-adv-x="359" d="M181 742 L54 742 L54 365 L54 333 L54 71 L85 71 L85 333 L181 333 C246 333 299 390 299 461 L299 613 C299 684 246 742 181 742 L181 742 Z M268 461 C268 408 229 365 181 365 L85 365 L85 710 L181 710 C229 710 268 667 268 613 L268 461 L268 461 Z " />
<glyph glyph-name="afii10083" unicode="&#x441;" horiz-adv-x="359" d="M178 711 L185 711 C209 711 232 700 248 681 C260 667 269 652 272 635 L304 642 C298 665 287 685 271 702 C248 727 217 742 185 742 L178 742 C109 742 54 681 54 605 L54 207 C54 131 109 71 178 71 L185 71 C236 71 283 107 301 161 L271 171 C258 130 223 102 185 102 L178 102 C127 102 85 149 85 207 L85 605 C85 663 127 711 178 711 L178 711 Z " />
<glyph glyph-name="afii10084" unicode="&#x442;" horiz-adv-x="328" d="M54 712 L151 712 L151 71 L182 71 L182 712 L277 712 L277 743 L54 743 L54 712 L54 712 Z " />
<glyph glyph-name="afii10085" unicode="&#x443;" horiz-adv-x="391" d="M193 382 L86 742 L54 742 L178 322 L178 72 L178 71 L210 71 L210 72 L210 324 L329 742 L296 742 L193 382 L193 382 Z " />
<glyph glyph-name="afii10086" unicode="&#x444;" horiz-adv-x="596" d="M402 620 C365 620 330 600 306 570 L306 896 L275 896 L275 557 C251 594 212 620 169 620 C97 620 38 551 38 468 L38 222 C38 140 97 72 169 72 C212 72 251 96 275 134 L275 -94 L306 -94 L306 120 C330 90 365 72 402 72 C475 72 534 140 534 222 L534 468 C534 551 475 620 402 620 L402 620 Z M269 222 C269 156 224 104 169 104 C114 104 70 156 70 222 L70 468 C70 534 114 587 169 587 C224 587 269 534 269 468 L269 222 L269 222 Z M502 222 C502 156 457 104 402 104 C356 104 318 141 306 191 L306 500 C318 550 356 587 402 587 C457 587 502 534 502 468 L502 222 L502 222 Z " />
<glyph glyph-name="afii10087" unicode="&#x445;" horiz-adv-x="450" d="M362 583 L327 583 L216 344 L103 583 L68 583 L199 307 L54 0 L89 0 L216 271 L344 0 L379 0 L234 307 L362 583 L362 583 Z " />
<glyph glyph-name="afii10088" unicode="&#x446;" horiz-adv-x="527" d="M358 653 L325 653 L325 104 L294 104 L71 104 L71 653 L40 653 L40 72 L294 72 L358 72 L425 72 L425 -56 L456 -56 L456 104 L358 104 L358 653 L358 653 Z " />
<glyph glyph-name="afii10089" unicode="&#x447;" horiz-adv-x="418" d="M318 683 L318 386 C318 321 264 267 199 267 L191 267 C125 267 71 321 71 386 L71 693 L40 693 L40 386 C40 303 107 236 191 236 L199 236 C247 236 290 258 318 294 L318 72 L349 72 L349 386 L349 683 L349 692 L318 692 L318 683 L318 683 Z " />
<glyph glyph-name="afii10090" unicode="&#x448;" horiz-adv-x="596" d="M475 105 L289 105 L289 658 L257 658 L257 105 L71 105 L71 656 L40 656 L40 74 L506 74 L506 656 L475 656 L475 105 L475 105 Z " />
<glyph glyph-name="afii10091" unicode="&#x449;" horiz-adv-x="659" d="M506 654 L475 654 L475 104 L450 104 L289 104 L289 657 L257 657 L257 104 L71 104 L71 654 L40 654 L40 72 L450 72 L506 72 L581 72 L581 -56 L613 -56 L613 104 L506 104 L506 654 L506 654 Z " />
<glyph glyph-name="afii10092" unicode="&#x44a;" horiz-adv-x="496" d="M266 381 L174 381 L174 706 L40 706 L40 675 L143 675 L143 381 L143 381 L143 350 L143 350 L143 71 L158 71 L174 71 L274 71 C346 71 404 138 404 221 L404 231 C404 314 343 381 266 381 L266 381 Z M373 221 C373 156 329 102 274 102 L174 102 L174 350 L266 350 C325 350 373 297 373 231 L373 221 L373 221 Z " />
<glyph glyph-name="afii10093" unicode="&#x44b;" horiz-adv-x="464" d="M164 419 L73 419 L73 652 L42 652 L42 419 L42 419 L42 387 L42 387 L42 71 L58 71 L73 71 L173 71 C245 71 304 138 304 221 L304 268 C304 351 241 419 164 419 L164 419 Z M272 221 C272 156 228 102 173 102 L73 102 L73 387 L164 387 C224 387 272 334 272 268 L272 221 Z M402 70 L434 70 L434 654 L402 654 L402 70 L402 70 Z " />
<glyph glyph-name="afii10094" unicode="&#x44c;" horiz-adv-x="378" d="M164 457 L73 457 L73 810 L42 810 L42 457 L42 457 L42 425 L42 425 L42 1 L58 1 L73 1 L173 1 C245 1 304 68 304 151 L304 306 C304 389 241 457 164 457 L164 457 Z M272 151 C272 86 228 32 173 32 L73 32 L73 425 L164 425 C224 425 272 372 272 306 L272 151 L272 151 Z " />
<glyph glyph-name="afii10095" unicode="&#x44d;" horiz-adv-x="404" d="M271 555 L271 473 L271 398 L50 398 L50 366 L271 366 L271 286 L271 222 C271 156 226 104 172 104 C116 104 72 156 72 222 L40 222 C40 140 98 71 172 71 C244 71 302 140 302 222 L302 286 L302 473 L302 555 C302 639 244 706 172 706 C98 706 40 639 40 555 L72 555 C72 621 116 675 172 675 C226 675 271 621 271 555 L271 555 Z " />
<glyph glyph-name="afii10096" unicode="&#x44e;" horiz-adv-x="522" d="M326 705 C259 705 204 638 204 555 L204 399 L71 399 L71 705 L40 705 L40 72 L71 72 L71 368 L204 368 L204 224 C204 141 259 74 326 74 C395 74 450 141 450 224 L450 555 C450 638 395 705 326 705 L326 705 Z M419 224 C419 159 377 105 326 105 C276 105 235 159 235 224 L235 555 C235 621 276 674 326 674 C377 674 419 621 419 555 L419 224 L419 224 Z " />
<glyph glyph-name="afii10097" unicode="&#x44f;" horiz-adv-x="359" d="M121 333 C82 308 54 258 54 201 L54 71 L85 71 L85 201 C85 267 130 320 183 320 L268 320 L268 71 L268 71 L299 71 L299 71 L299 320 L299 352 L299 710 L299 742 L299 743 L173 743 C108 743 57 683 57 611 L57 452 C57 400 83 354 121 333 L121 333 Z M268 352 L173 352 C126 352 88 396 88 452 L88 611 C88 666 126 710 173 710 L268 710 L268 352 Z " />
<glyph glyph-name="afii10071" unicode="&#x451;" horiz-adv-x="287" d="M100 786 L139 786 L139 833 L100 833 L100 786 L100 786 Z M164 786 L203 786 L203 833 L164 833 L164 786 L164 786 Z M54 76 L240 76 L240 107 L85 107 L85 364 L199 364 L199 396 L85 396 L85 712 L240 712 L240 743 L54 743 L54 76 L54 76 Z " />
<glyph glyph-name="afii10099" unicode="&#x452;" horiz-adv-x="448" d="M253 556 C214 556 178 535 154 503 L154 677 L307 677 L307 708 L154 708 L154 810 L122 810 L122 708 L40 708 L40 677 L122 677 L122 406 L122 13 L122 4 L154 4 L154 13 L154 406 C154 470 198 524 253 524 C308 524 353 470 353 406 L353 43 C353 -22 302 -76 242 -76 L242 -107 C320 -107 384 -40 384 43 L384 406 C384 488 325 556 253 556 L253 556 Z " />
<glyph glyph-name="afii10100" unicode="&#x453;" horiz-adv-x="295" d="M256 739 L77 739 L77 740 L46 740 L46 70 L77 70 L77 708 L256 708 L256 739 L256 739 Z M136 812 L163 812 L181 901 L146 901 L136 812 L136 812 Z " />
<glyph glyph-name="afii10101" unicode="&#x454;" horiz-adv-x="362" d="M191 706 C108 706 40 639 40 555 L40 520 C40 461 67 410 107 384 C67 360 40 309 40 250 L40 224 C40 141 106 74 187 74 L318 74 L318 105 L187 105 C124 105 72 158 72 224 L72 250 C72 315 112 369 160 369 L264 369 L264 369 L264 400 L264 401 L160 401 C112 401 72 454 72 520 L72 555 C72 621 125 675 191 675 L328 675 L328 706 L191 706 L191 706 Z " />
<glyph glyph-name="afii10102" unicode="&#x455;" horiz-adv-x="366" d="M191 419 C137 473 85 527 85 612 C86 667 128 709 181 709 C233 709 275 662 275 604 L307 604 C307 679 251 742 181 742 C110 742 55 684 54 612 C53 514 112 454 169 398 C224 342 277 291 275 202 C274 138 240 102 181 102 C130 102 86 149 86 208 L55 208 C55 132 112 71 181 71 C257 71 305 120 307 202 C308 304 250 363 191 419 L191 419 Z " />
<glyph glyph-name="afii10103" unicode="&#x456;" horiz-adv-x="132" d="M54 71 L85 71 L85 743 L54 743 L54 71 L54 71 Z " />
<glyph glyph-name="afii10104" unicode="&#x457;" horiz-adv-x="196" d="M-56 709 L98 709 L98 67 L130 67 L130 740 L-56 740 L-56 709 L-56 709 Z M-5 787 L34 787 L34 834 L-5 834 L-5 787 L-5 787 Z M59 787 L98 787 L98 834 L59 834 L59 787 L59 787 Z " />
<glyph glyph-name="afii10105" unicode="&#x458;" horiz-adv-x="203" d="M78 744 L109 744 L109 779 L78 779 L78 744 L78 744 Z M78 62 C78 -8 34 -63 -22 -63 C-43 -63 -64 -55 -80 -39 L-102 -62 C-79 -84 -50 -96 -22 -96 C50 -96 109 -25 109 62 L109 653 L78 653 L78 62 L78 62 Z " />
<glyph glyph-name="afii10106" unicode="&#x459;" horiz-adv-x="694" d="M454 527 L354 527 L354 694 L324 694 L323 694 L200 694 L200 174 C200 128 167 104 133 104 C116 104 102 110 91 120 C78 134 71 152 71 174 L40 174 C40 143 49 117 68 98 C85 82 108 72 133 72 C181 72 232 108 232 174 L232 663 L323 663 L323 74 L338 74 L354 74 L454 74 C526 74 584 142 584 225 L584 376 C584 459 526 527 454 527 L454 527 Z M553 225 C553 159 509 106 454 106 L354 106 L354 495 L454 495 C509 495 553 442 553 376 L553 225 L553 225 Z " />
<glyph glyph-name="afii10107" unicode="&#x45a;" horiz-adv-x="680" d="M452 527 L373 527 L373 694 L341 694 L341 527 L232 527 L232 693 L200 693 L200 174 C200 128 167 104 133 104 C116 104 102 110 91 120 C78 134 71 152 71 174 L40 174 C40 143 49 117 68 98 C85 82 108 72 133 72 C181 72 232 108 232 174 L232 495 L341 495 L341 74 L358 74 L373 74 L473 74 C545 74 604 142 604 225 L604 376 C604 459 536 527 452 527 L452 527 Z M572 225 C572 159 528 106 473 106 L373 106 L373 495 L452 495 C518 495 572 442 572 376 L572 225 L572 225 Z " />
<glyph glyph-name="afii10108" unicode="&#x45b;" horiz-adv-x="446" d="M253 556 C214 556 178 535 154 503 L154 689 L307 689 L307 720 L154 720 L154 810 L122 810 L122 720 L40 720 L40 689 L122 689 L122 406 L122 13 L122 4 L154 4 L154 13 L154 406 C154 470 198 524 253 524 C308 524 353 470 353 406 L353 5 L384 5 L384 406 C384 488 325 556 253 556 L253 556 Z " />
<glyph glyph-name="afii10109" unicode="&#x45c;" horiz-adv-x="390" d="M164 697 L191 697 L209 786 L174 786 L164 697 L164 697 Z " />
<glyph glyph-name="afii10110" unicode="&#x45e;" horiz-adv-x="374" d="M193 382 L86 742 L54 742 L178 322 L178 72 L178 71 L210 71 L210 72 L210 324 L329 742 L296 742 L193 382 L193 382 Z M206 799 C152 799 107 851 107 917 L76 917 C76 835 134 766 206 766 C280 766 338 835 338 917 L306 917 C306 851 262 799 206 799 L206 799 Z " />
<glyph glyph-name="afii10193" unicode="&#x45f;" horiz-adv-x="523" d="M389 294 L71 294 L71 694 L40 694 L40 263 L215 263 L215 74 L246 74 L246 263 L421 263 L421 694 L389 694 L389 294 L389 294 Z " />
<glyph glyph-name="afii10050" unicode="&#x490;" horiz-adv-x="464" d="M347 718 L40 718 L40 1 L71 1 L71 685 L379 685 L379 810 L347 810 L347 718 L347 718 Z " />
<glyph glyph-name="afii10098" unicode="&#x491;" horiz-adv-x="457" d="M346 626 L38 626 L38 6 L70 6 L70 595 L377 595 L377 720 L346 720 L346 626 L346 626 Z " />
<glyph glyph-name="endash" unicode="&#x2013;" horiz-adv-x="430" d="M40 392 L395 392 L395 425 L40 425 L40 392 L40 392 Z " />
<glyph glyph-name="emdash" unicode="&#x2014;" horiz-adv-x="619" d="M40 392 L563 392 L563 425 L40 425 L40 392 L40 392 Z " />
<glyph glyph-name="afii00208" unicode="&#x2015;" horiz-adv-x="619" d="M40 320 L563 320 L563 353 L40 353 L40 320 L40 320 Z " />
<glyph glyph-name="quoteleft" unicode="&#x2018;" horiz-adv-x="130" d="M40 784 L40 738 L79 738 L79 784 L61 784 L61 784 C61 803 73 802 73 802 L73 817 C40 817 40 784 40 784 L40 784 Z " />
<glyph glyph-name="quoteright" unicode="&#x2019;" horiz-adv-x="124" d="M79 811 L40 811 L40 774 L58 774 L58 774 C58 757 46 758 46 758 L46 745 C79 745 79 774 79 774 L79 811 L79 811 Z " />
<glyph glyph-name="quotesinglbase" unicode="&#x201a;" horiz-adv-x="128" d="M79 116 L40 116 L40 70 L58 70 C58 52 47 52 46 52 L46 34 C79 34 79 70 79 70 L79 116 Z " />
<glyph glyph-name="quotedblleft" unicode="&#x201c;" horiz-adv-x="214" d="M91 784 L91 738 L131 738 L131 784 L113 784 L113 784 C113 803 125 802 125 802 L125 817 C91 817 91 784 91 784 L91 784 Z M40 784 L40 738 L79 738 L79 784 L61 784 L61 784 C61 803 73 802 73 802 L73 817 C40 817 40 784 40 784 L40 784 Z " />
<glyph glyph-name="quotedblright" unicode="&#x201d;" horiz-adv-x="199" d="M79 817 L40 817 L40 773 L58 773 L58 773 C58 752 46 755 46 755 L46 738 C79 738 79 773 79 773 L79 817 L79 817 Z M131 817 L91 817 L91 773 L109 773 L109 773 C109 752 97 755 97 755 L97 738 C132 738 131 773 131 773 L131 817 L131 817 Z " />
<glyph glyph-name="quotedblbase" unicode="&#x201e;" horiz-adv-x="205" d="M132 116 L92 116 L92 70 L110 70 C110 52 100 52 98 52 L98 34 C132 34 132 69 132 70 L132 116 Z M79 116 L40 116 L40 70 L58 70 C58 52 47 52 46 52 L46 34 C79 34 79 70 79 70 L79 116 Z " />
<glyph glyph-name="dagger" unicode="&#x2020;" horiz-adv-x="372" d="M223 805 L192 805 L192 601 L40 601 L40 570 L192 570 L192 -1 L223 -1 L223 570 L364 570 L364 601 L223 601 L223 805 L223 805 Z " />
<glyph glyph-name="daggerdbl" unicode="&#x2021;" horiz-adv-x="374" d="M223 805 L192 805 L192 601 L40 601 L40 570 L192 570 L192 392 L40 392 L40 361 L192 361 L192 -1 L223 -1 L223 361 L364 361 L364 392 L223 392 L223 570 L364 570 L364 601 L223 601 L223 805 L223 805 Z " />
<glyph glyph-name="bullet" unicode="&#x2022;" horiz-adv-x="145" d="M64 458 C44 458 29 442 29 424 C29 406 44 390 64 390 C80 390 97 406 97 424 C97 442 80 458 64 458 L64 458 Z " />
<glyph glyph-name="onedotenleader" unicode="&#x2024;" horiz-adv-x="118" d="M40 5 L79 5 L79 44 L40 44 L40 5 L40 5 Z " />
<glyph glyph-name="twodotenleader" unicode="&#x2025;" horiz-adv-x="235" d="M40 5 L79 5 L79 44 L40 44 L40 5 L40 5 Z M157 5 L197 5 L197 44 L157 44 L157 5 L157 5 Z " />
<glyph glyph-name="ellipsis" unicode="&#x2026;" horiz-adv-x="325" d="M40 72 L79 72 L79 119 L40 119 L40 72 L40 72 Z M104 72 L143 72 L143 119 L104 119 L104 72 L104 72 Z M169 72 L208 72 L208 119 L169 119 L169 72 L169 72 Z " />
<glyph glyph-name="perthousand" unicode="&#x2030;" horiz-adv-x="1147" d="M302 566 L302 661 C302 744 244 812 170 812 C98 812 40 744 40 661 L40 566 C40 482 98 415 170 415 C244 415 302 482 302 566 L302 566 Z M170 446 C116 446 71 500 71 566 L71 661 C71 727 116 780 170 780 C226 780 270 727 270 661 L270 566 C270 500 226 446 170 446 L170 446 Z M515 398 C443 398 384 330 384 247 L384 152 C384 68 443 1 515 1 C588 1 647 68 647 152 L647 247 C647 330 588 398 515 398 L515 398 Z M614 152 C614 86 570 32 515 32 C461 32 415 86 415 152 L415 247 C415 313 461 367 515 367 C570 367 614 313 614 247 L614 152 L614 152 Z M857 398 C785 398 726 330 726 247 L726 152 C726 68 785 1 857 1 C930 1 989 68 989 152 L989 247 C989 330 930 398 857 398 L857 398 Z M956 152 C956 86 912 32 857 32 C803 32 757 86 757 152 L757 247 C757 313 803 367 857 367 C912 367 956 313 956 247 L956 152 L956 152 Z M470 811 L187 6 L218 6 L503 811 L470 811 L470 811 Z " />
<glyph glyph-name="guilsinglleft" unicode="&#x2039;" horiz-adv-x="259" d="M193 581 L167 598 L40 395 L166 187 L193 203 L77 394 L193 581 L193 581 Z " />
<glyph glyph-name="guilsinglright" unicode="&#x203a;" horiz-adv-x="266" d="M40 581 L156 394 L40 203 L67 187 L193 395 L66 598 L40 581 L40 581 Z " />
<glyph glyph-name="fraction" unicode="&#x2044;" horiz-adv-x="173" d="M323 804 L40 -1 L77 -1 L361 804 L323 804 Z " />
<glyph glyph-name="zerosuperior" unicode="&#x2070;" horiz-adv-x="304" d="M170 918 L133 918 C90 918 55 882 55 839 L55 559 C55 515 90 480 133 480 L170 480 C214 480 250 515 250 559 L250 839 C250 882 214 918 170 918 L170 918 Z M218 559 C218 533 197 511 170 511 L133 511 C108 511 86 533 86 559 L86 839 C86 865 108 886 133 886 L170 886 C197 886 218 865 218 839 L218 559 L218 559 Z " />
<glyph glyph-name="foursuperior" unicode="&#x2074;" horiz-adv-x="323" d="M214 918 L182 918 L55 632 L182 632 L182 480 L214 480 L214 632 L265 632 L265 664 L214 664 L214 918 L214 918 Z M182 664 L103 664 L182 841 L182 664 L182 664 Z " />
<glyph glyph-name="fivesuperior" unicode="&#x2075;" horiz-adv-x="278" d="M178 781 C156 797 130 800 97 793 L97 886 L214 886 L214 918 L66 918 L66 749 L86 757 C118 768 143 768 160 755 C184 738 197 697 197 636 C197 578 186 511 140 511 C124 511 107 523 96 544 C90 558 86 574 86 589 L55 589 C55 569 60 547 68 530 C84 498 112 480 140 480 C167 480 190 493 204 517 C220 544 228 583 228 636 C228 709 211 757 178 781 L178 781 Z " />
<glyph glyph-name="sixsuperior" unicode="&#x2076;" horiz-adv-x="263" d="M132 887 C157 887 179 858 179 824 L210 824 C210 876 175 918 132 918 C90 918 55 876 55 824 L55 688 L55 572 L55 564 C55 546 61 529 71 516 C85 494 107 480 132 480 C157 480 180 494 193 516 C204 529 210 546 210 564 L210 688 C210 731 175 767 132 767 C115 767 100 761 86 751 L86 824 C86 858 107 887 132 887 L132 887 Z M132 736 C157 736 179 714 179 688 L179 572 C179 558 174 544 168 534 C158 523 146 516 132 516 C119 516 106 523 97 534 C90 544 86 558 86 572 L86 688 C86 714 107 736 132 736 L132 736 Z " />
<glyph glyph-name="sevensuperior" unicode="&#x2077;" horiz-adv-x="300" d="M236 918 L55 918 L55 886 L202 886 C170 828 98 686 98 480 L130 480 C130 696 215 848 236 886 L236 918 L236 918 Z " />
<glyph glyph-name="eightsuperior" unicode="&#x2078;" horiz-adv-x="278" d="M186 766 C205 780 217 805 217 833 C217 878 182 918 140 918 C98 918 64 878 64 833 C64 805 76 780 95 766 C71 751 55 726 55 696 L55 559 C55 515 90 480 133 480 L148 480 C191 480 226 515 226 559 L226 696 C226 726 210 751 186 766 L186 766 Z M140 886 C166 886 186 862 186 833 C186 804 166 780 140 780 C115 780 95 804 95 833 C95 862 115 886 140 886 L140 886 Z M194 559 C194 533 173 511 148 511 L133 511 C108 511 86 533 86 559 L86 696 C86 722 108 744 133 744 L148 744 C173 744 194 722 194 696 L194 559 L194 559 Z " />
<glyph glyph-name="ninesuperior" unicode="&#x2079;" horiz-adv-x="257" d="M132 918 C132 918 132 918 132 918 L132 918 L132 918 C90 918 55 881 55 838 L55 713 C55 670 90 634 132 634 C150 634 166 640 179 649 L179 572 C179 539 157 511 132 511 C108 511 86 539 86 572 L55 572 C55 521 90 480 132 480 C175 480 210 521 210 572 L210 713 L210 824 L210 838 C210 881 175 918 132 918 L132 918 Z M132 666 C107 666 86 686 86 713 L86 824 C86 857 108 887 132 887 C132 887 132 887 132 887 C157 887 179 857 179 824 L179 713 C179 686 157 666 132 666 L132 666 Z " />
<glyph glyph-name="parenleftsuperior" unicode="&#x207d;" horiz-adv-x="184" d="M132 869 C115 869 129 869 111 869 C40 710 40 521 111 360 C129 360 115 360 132 360 C61 521 61 710 132 869 L132 869 Z " />
<glyph glyph-name="parenrightsuperior" unicode="&#x207e;" horiz-adv-x="178" d="M44 869 C116 710 116 521 44 360 C61 360 47 360 65 360 C136 521 136 710 65 869 C47 869 61 869 44 869 L44 869 Z " />
<glyph glyph-name="nsuperior" unicode="&#x207f;" horiz-adv-x="253" d="M191 742 L176 742 L176 445 L75 742 L58 742 L57 742 L57 742 L57 742 L57 400 L54 400 L54 400 L73 400 L73 695 L174 400 L191 400 L191 742 L191 742 Z " />
<glyph glyph-name="zeroinferior" unicode="&#x2080;" horiz-adv-x="304" d="M170 287 L133 287 C90 287 55 251 55 208 L55 -72 C55 -116 90 -151 133 -151 L170 -151 C214 -151 250 -116 250 -72 L250 208 C250 251 214 287 170 287 L170 287 Z M218 -72 C218 -98 197 -120 170 -120 L133 -120 C108 -120 86 -98 86 -72 L86 208 C86 234 108 254 133 254 L170 254 C197 254 218 234 218 208 L218 -72 L218 -72 Z " />
<glyph glyph-name="oneinferior" unicode="&#x2081;" horiz-adv-x="191" d="M89 287 L55 248 L78 227 L95 246 L95 -151 L126 -151 L126 287 L89 287 L89 287 Z " />
<glyph glyph-name="twoinferior" unicode="&#x2082;" horiz-adv-x="265" d="M227 182 C227 240 188 286 140 286 C94 286 55 236 55 176 L86 176 C86 218 112 254 140 254 C170 254 196 222 196 182 C196 118 163 77 128 35 C92 -10 54 -56 55 -136 L55 -151 L227 -151 L227 -120 L86 -120 C90 -61 121 -24 154 16 C190 60 228 106 227 182 L227 182 Z " />
<glyph glyph-name="threeinferior" unicode="&#x2083;" horiz-adv-x="284" d="M133 160 L224 287 L55 287 L55 254 L163 254 L74 131 L106 131 C162 131 196 83 196 0 C196 -78 167 -120 140 -120 C112 -120 86 -84 86 -41 L55 -41 C55 -102 94 -151 140 -151 C191 -151 227 -89 227 0 C227 89 193 145 133 160 L133 160 Z " />
<glyph glyph-name="fourinferior" unicode="&#x2084;" horiz-adv-x="323" d="M214 287 L182 287 L55 1 L182 1 L182 -151 L214 -151 L214 1 L265 1 L265 32 L214 32 L214 287 L214 287 Z M182 32 L103 32 L182 210 L182 32 L182 32 Z " />
<glyph glyph-name="fiveinferior" unicode="&#x2085;" horiz-adv-x="430" d="M178 150 C156 166 130 169 97 162 L97 254 L214 254 L214 287 L66 287 L66 118 L86 126 C118 137 143 137 160 124 C184 107 197 66 197 5 C197 -53 186 -120 140 -120 C124 -120 107 -108 96 -88 C90 -73 86 -58 86 -42 L55 -42 C55 -62 60 -84 68 -101 C84 -133 112 -151 140 -151 C167 -151 190 -138 204 -114 C220 -88 228 -48 228 5 C228 78 211 126 178 150 L178 150 Z " />
<glyph glyph-name="sixinferior" unicode="&#x2086;" horiz-adv-x="263" d="M132 256 C157 256 179 227 179 193 L210 193 C210 245 175 287 132 287 C90 287 55 245 55 193 L55 56 L55 -59 L55 -67 C55 -85 61 -102 71 -115 C85 -137 107 -151 132 -151 C157 -151 180 -137 193 -115 C204 -102 210 -85 210 -67 L210 56 C210 100 175 136 132 136 C115 136 100 130 86 120 L86 193 C86 227 107 256 132 256 L132 256 Z M132 104 C157 104 179 83 179 56 L179 -59 C179 -73 174 -88 168 -97 C158 -108 146 -115 132 -115 C119 -115 106 -108 97 -97 C90 -88 86 -73 86 -59 L86 56 C86 83 107 104 132 104 L132 104 Z " />
<glyph glyph-name="seveninferior" unicode="&#x2087;" horiz-adv-x="300" d="M236 287 L55 287 L55 254 L202 254 C170 197 98 55 98 -151 L130 -151 C130 65 215 217 236 254 L236 287 L236 287 Z " />
<glyph glyph-name="eightinferior" unicode="&#x2088;" horiz-adv-x="424" d="M186 134 C205 149 217 174 217 202 C217 247 182 287 140 287 C98 287 64 247 64 202 C64 174 76 149 95 134 C71 120 55 95 55 65 L55 -72 C55 -116 90 -151 133 -151 L148 -151 C191 -151 226 -116 226 -72 L226 65 C226 95 210 120 186 134 L186 134 Z M140 254 C166 254 186 230 186 202 C186 173 166 149 140 149 C115 149 95 173 95 202 C95 230 115 254 140 254 L140 254 Z M194 -72 C194 -98 173 -120 148 -120 L133 -120 C108 -120 86 -98 86 -72 L86 65 C86 91 108 113 133 113 L148 113 C173 113 194 91 194 65 L194 -72 L194 -72 Z " />
<glyph glyph-name="nineinferior" unicode="&#x2089;" horiz-adv-x="257" d="M132 287 C132 287 132 287 132 287 L132 287 L132 287 C90 287 55 250 55 206 L55 82 C55 38 90 2 132 2 C150 2 166 8 179 18 L179 -59 C179 -92 157 -120 132 -120 C108 -120 86 -92 86 -59 L55 -59 C55 -110 90 -151 132 -151 C175 -151 210 -110 210 -59 L210 82 L210 193 L210 206 C210 250 175 287 132 287 L132 287 Z M132 35 C107 35 86 55 86 82 L86 193 C86 226 108 256 132 256 C132 256 132 256 132 256 C157 256 179 226 179 193 L179 82 C179 55 157 35 132 35 L132 35 Z " />
<glyph glyph-name="parenleftinferior" unicode="&#x208d;" horiz-adv-x="167" d="M114 360 C100 360 111 360 97 360 C40 230 40 77 97 -52 C111 -52 100 -52 114 -52 C56 77 56 230 114 360 L114 360 Z " />
<glyph glyph-name="parenrightinferior" unicode="&#x208e;" horiz-adv-x="156" d="M40 360 C97 230 97 77 40 -52 C54 -52 43 -52 57 -52 C114 77 114 230 57 360 C43 360 54 360 40 360 L40 360 Z " />
<glyph glyph-name="colonmonetary" unicode="&#x20a1;" horiz-adv-x="422" d="M359 691 C355 706 349 719 342 732 L370 840 L331 840 L313 769 C305 778 295 785 284 791 L298 840 L259 840 L251 805 C239 809 226 810 214 810 L205 810 C121 810 54 737 54 647 L54 162 C54 137 59 113 68 91 L36 -37 L73 -37 L96 50 C104 41 114 32 124 25 L108 -37 L145 -37 L157 8 C172 2 188 0 205 0 L214 0 C277 0 335 43 356 107 L326 118 C308 66 264 31 214 31 L205 31 C191 31 178 34 164 38 L330 683 L359 691 L359 691 Z M85 162 L85 647 C85 719 139 778 205 778 L214 778 C223 778 233 776 242 774 L85 156 C85 158 85 160 85 162 L85 162 Z M106 89 L276 758 C284 754 292 748 298 740 C300 738 302 736 304 733 L132 58 C122 67 113 77 106 89 L106 89 Z " />
<glyph glyph-name="Euro" unicode="&#x20ac;" horiz-adv-x="460" d="M252 779 L260 779 C326 779 380 720 380 648 L412 648 C412 738 344 810 260 810 L252 810 C168 810 101 738 101 648 L101 514 L40 514 L40 482 L101 482 L101 334 L40 334 L40 302 L101 302 L101 166 C101 76 168 4 252 4 L260 4 C344 4 412 76 412 166 L380 166 C380 94 326 35 260 35 L252 35 C186 35 132 94 132 166 L132 302 L376 302 L376 334 L132 334 L132 482 L376 482 L376 514 L132 514 L132 648 C132 720 186 779 252 779 L252 779 Z " />
<glyph glyph-name="afii61352" unicode="&#x2116;" horiz-adv-x="797" d="M331 90 L89 810 L85 810 L58 810 L56 810 L56 810 L56 1 L54 1 L54 1 L85 1 L85 1 L88 1 L88 716 L329 1 L331 1 L331 1 L336 1 L364 1 L364 1 L364 809 L331 809 L331 90 Z M593 788 C521 788 462 721 462 638 L462 355 C462 272 521 205 593 205 C666 205 725 272 725 355 L725 638 C725 721 666 788 593 788 L593 788 Z M692 355 C692 289 648 236 593 236 C539 236 493 289 493 355 L493 638 C493 704 539 757 593 757 C648 757 692 704 692 638 L692 355 Z M460 116 L719 116 L719 149 L460 149 L460 116 Z " />
<glyph glyph-name="trademark" unicode="&#x2122;" horiz-adv-x="355" d="M319 818 L319 818 L316 818 L307 818 L302 818 L242 614 L181 818 L178 818 L164 818 L164 815 L164 481 L162 481 L162 481 L164 481 L164 480 L181 480 L181 762 L234 588 L235 581 L248 581 L250 588 L304 766 L304 481 L307 481 L307 481 L323 481 L323 481 L319 481 L319 818 L319 818 Z M30 802 L79 802 L79 480 L95 480 L95 802 L143 802 L143 817 L30 817 L30 802 L30 802 Z " />
<glyph glyph-name="onethird" unicode="&#x2153;" horiz-adv-x="508" d="M365 311 L455 438 L286 438 L286 406 L394 406 L305 282 L336 282 C394 282 426 234 426 151 C426 73 397 31 371 31 C342 31 317 67 317 110 L286 110 C286 49 324 0 371 0 C422 0 457 62 457 151 C457 240 424 296 365 311 L365 311 Z M76 809 L42 770 L65 749 L82 768 L82 371 L113 371 L113 809 L76 809 L76 809 Z M361 804 L77 -1 L40 -1 L323 804 L361 804 Z " />
<glyph glyph-name="twothirds" unicode="&#x2154;" horiz-adv-x="565" d="M425 311 L515 438 L346 438 L346 406 L454 406 L365 282 L396 282 C454 282 486 234 486 151 C486 73 457 31 431 31 C402 31 377 67 377 110 L346 110 C346 49 384 0 431 0 C482 0 517 62 517 151 C517 240 484 296 425 311 L425 311 Z M214 706 C212 763 174 809 126 809 C79 809 41 760 41 700 L72 700 C72 742 97 778 126 778 C157 778 181 745 181 706 C182 641 150 600 115 558 C78 514 40 467 41 388 L41 372 L212 372 L212 403 L73 403 C77 462 107 499 139 539 C176 583 214 629 214 706 L214 706 Z M441 804 L157 -1 L120 -1 L403 804 L441 804 Z " />
<glyph glyph-name="oneeighth" unicode="&#x215b;" horiz-adv-x="481" d="M89 810 L55 772 L78 750 L95 769 L95 372 L126 372 L126 810 L89 810 L89 810 Z M382 286 C401 300 413 325 413 353 C413 398 378 438 336 438 C294 438 259 398 259 353 C259 325 271 300 290 286 C266 271 251 246 251 216 L251 79 C251 35 286 0 329 0 L343 0 C386 0 421 35 421 79 L421 216 C421 246 406 271 382 286 L382 286 Z M336 406 C361 406 382 382 382 353 C382 324 361 300 336 300 C311 300 290 324 290 353 C290 382 311 406 336 406 L336 406 Z M390 79 C390 53 368 31 343 31 L329 31 C304 31 282 53 282 79 L282 216 C282 242 304 264 329 264 L343 264 C368 264 390 242 390 216 L390 79 L390 79 Z M361 804 L77 -1 L40 -1 L323 804 L361 804 Z " />
<glyph glyph-name="threeeighths" unicode="&#x215c;" horiz-adv-x="481" d="M418 286 C437 300 449 325 449 353 C449 398 414 438 372 438 C330 438 295 398 295 353 C295 325 307 300 326 286 C302 271 287 246 287 216 L287 79 C287 35 322 0 365 0 L379 0 C422 0 457 35 457 79 L457 216 C457 246 442 271 418 286 L418 286 Z M372 406 C397 406 418 382 418 353 C418 324 397 300 372 300 C347 300 326 324 326 353 C326 382 347 406 372 406 L372 406 Z M426 79 C426 53 404 31 379 31 L365 31 C340 31 318 53 318 79 L318 216 C318 242 340 264 365 264 L379 264 C404 264 426 242 426 216 L426 79 Z M137 680 L227 808 L58 808 L58 776 L166 776 L77 652 L108 652 C166 652 198 605 198 521 C198 443 169 402 143 402 C114 402 89 437 89 480 L58 480 C58 419 96 370 143 370 C194 370 229 432 229 521 C229 610 196 667 137 680 L137 680 Z M411 804 L127 -1 L90 -1 L373 804 L411 804 Z " />
<glyph glyph-name="fiveeighths" unicode="&#x215d;" horiz-adv-x="492" d="M406 286 C425 300 437 325 437 353 C437 398 402 438 360 438 C318 438 283 398 283 353 C283 325 295 300 314 286 C290 271 275 246 275 216 L275 79 C275 35 310 0 353 0 L367 0 C410 0 445 35 445 79 L445 216 C445 246 430 271 406 286 L406 286 Z M360 406 C385 406 406 382 406 353 C406 324 385 300 360 300 C335 300 314 324 314 353 C314 382 335 406 360 406 L360 406 Z M414 79 C414 53 392 31 367 31 L353 31 C328 31 306 53 306 79 L306 216 C306 242 328 264 353 264 L367 264 C392 264 414 242 414 216 L414 79 Z M160 671 C139 686 112 690 79 683 L79 776 L197 776 L197 808 L48 808 L48 640 L70 647 C101 658 125 658 142 646 C166 628 179 587 179 526 C179 469 169 401 122 401 C106 401 89 414 79 434 C72 448 68 463 68 479 L37 479 C37 458 42 438 50 420 C67 389 94 370 122 370 C150 370 172 383 187 407 C203 433 210 473 210 526 C210 599 193 648 160 671 L160 671 Z M411 804 L127 -1 L90 -1 L373 804 L411 804 Z " />
<glyph glyph-name="seveneighths" unicode="&#x215e;" horiz-adv-x="492" d="M406 286 C425 300 437 325 437 353 C437 398 402 438 360 438 C318 438 283 398 283 353 C283 325 295 300 314 286 C290 271 275 246 275 216 L275 79 C275 35 310 0 353 0 L367 0 C410 0 445 35 445 79 L445 216 C445 246 430 271 406 286 L406 286 Z M360 406 C385 406 406 382 406 353 C406 324 385 300 360 300 C335 300 314 324 314 353 C314 382 335 406 360 406 L360 406 Z M414 79 C414 53 392 31 367 31 L353 31 C328 31 306 53 306 79 L306 216 C306 242 328 264 353 264 L367 264 C392 264 414 242 414 216 L414 79 Z M236 810 L55 810 L55 778 L202 778 C170 720 98 578 98 372 L130 372 C130 588 215 740 236 778 L236 810 Z M404 804 L120 -1 L83 -1 L366 804 L404 804 Z " />
<glyph glyph-name="partialdiff" unicode="&#x2202;" horiz-adv-x="478" d="M317 784 C240 784 166 715 150 631 L181 631 C193 698 252 751 311 751 C371 751 409 698 397 631 L368 467 C349 500 313 522 270 522 C193 522 119 455 104 371 L73 197 C73 194 73 191 72 188 L72 188 C58 104 108 37 185 37 C262 37 336 104 350 188 L352 197 L383 371 L428 631 C444 715 394 784 317 784 L317 784 Z M320 197 C310 131 252 78 192 78 C133 78 94 131 104 197 L136 371 C148 437 206 491 265 491 C325 491 364 437 352 371 L320 197 L320 197 Z " />
<glyph glyph-name="product" unicode="&#x220f;" horiz-adv-x="466" d="M404 809 L388 809 L89 809 L66 809 L58 809 L58 2 L89 2 L89 778 L388 778 L388 2 L419 2 L419 809 L404 809 L404 809 Z " />
<glyph glyph-name="summation" unicode="&#x2211;" horiz-adv-x="438" d="M205 291 L40 1 L382 1 L382 29 L92 29 L241 291 L92 552 L382 552 L382 581 L40 581 L205 291 L205 291 Z " />
<glyph glyph-name="minus" unicode="&#x2212;" horiz-adv-x="539" d="M40 392 L416 392 L416 425 L40 425 L40 392 Z " />
<glyph glyph-name="radical" unicode="&#x221a;" horiz-adv-x="662" d="M179 349 L340 -26 L617 821 L587 830 L335 62 L193 394 L40 310 L55 282 L179 349 L179 349 Z " />
<glyph glyph-name="infinity" unicode="&#x221e;" horiz-adv-x="683" d="M523 497 C504 497 485 492 466 484 L324 424 C278 444 235 462 203 476 L186 484 C166 492 146 497 127 497 C76 497 40 461 40 407 C40 380 48 358 65 342 C80 326 102 318 128 318 C146 318 166 322 186 330 L324 390 C368 371 408 354 439 341 L464 330 C485 322 504 317 522 317 C522 317 522 317 522 317 C548 317 570 325 586 342 C602 358 611 380 611 407 C611 461 576 497 523 497 L523 497 Z M173 360 C157 353 142 349 128 349 C110 349 97 354 86 364 C77 374 71 389 71 407 C71 444 92 466 127 466 C142 466 157 462 173 455 L191 448 C216 436 250 422 284 407 L173 360 L173 360 Z M564 364 C554 354 540 349 522 349 C522 349 522 349 522 349 C509 349 493 353 478 359 L451 370 C427 380 397 392 365 407 L478 455 C493 462 509 466 523 466 C558 466 580 444 580 407 C580 389 574 374 564 364 L564 364 Z " />
<glyph glyph-name="integral" unicode="&#x222b;" horiz-adv-x="353" d="M119 607 L119 155 C119 84 77 35 40 35 L40 4 C68 4 96 20 118 48 C138 77 150 115 150 155 L150 607 C150 673 194 727 250 727 C271 727 292 719 308 703 L330 726 C307 748 278 758 250 758 C178 758 119 690 119 607 L119 607 Z " />
<glyph glyph-name="approxequal" unicode="&#x2248;" horiz-adv-x="486" d="M230 438 C256 422 282 406 316 406 C348 406 386 421 436 470 L413 493 C331 412 295 436 247 464 C198 496 142 532 40 430 L62 408 C145 491 185 467 230 438 L230 438 Z M62 240 C145 324 185 299 230 270 C256 254 282 238 316 238 C348 238 386 254 436 304 L413 325 C331 244 295 268 247 296 C198 329 142 364 40 263 L62 240 Z " />
<glyph glyph-name="notequal" unicode="&#x2260;" horiz-adv-x="356" d="M292 586 L263 599 L214 491 L40 491 L40 460 L199 460 L144 340 L40 340 L40 308 L130 308 L92 228 L121 215 L164 308 L344 308 L344 340 L179 340 L234 460 L344 460 L344 491 L248 491 L292 586 L292 586 Z " />
<glyph glyph-name="lessequal" unicode="&#x2264;" horiz-adv-x="366" d="M276 259 L160 451 L276 637 L250 654 L122 451 L248 244 L276 259 L276 259 Z M364 166 L40 166 L40 134 L364 134 L364 166 L364 166 Z " />
<glyph glyph-name="greaterequal" unicode="&#x2265;" horiz-adv-x="367" d="M127 259 L155 244 L281 451 L154 654 L127 637 L244 451 L127 259 Z M40 166 L40 134 L364 134 L364 166 L40 166 Z " />
<glyph glyph-name="lozenge" unicode="&#x25ca;" horiz-adv-x="390" d="M188 690 L169 690 L40 426 L169 157 L188 157 L318 420 L193 680 L188 690 L188 690 Z M179 209 L74 426 L179 638 L283 420 L179 209 L179 209 Z " />
<glyph glyph-name="fi" unicode="&#xfb01;" horiz-adv-x="448" d="M379 1 L410 1 L410 581 L379 581 L379 1 L379 1 Z M280 810 C206 810 148 738 148 649 L148 583 L55 583 L55 552 L148 552 L148 1 L180 1 L180 552 L276 552 L276 583 L180 583 L180 649 C180 721 224 779 280 779 C300 779 320 770 338 754 C364 728 379 690 379 649 L410 649 C410 700 391 745 360 776 C336 798 308 810 280 810 L280 810 Z " />
<glyph glyph-name="fl" unicode="&#xfb02;" horiz-adv-x="432" d="M277 810 C205 810 146 738 146 649 L146 583 L54 583 L54 552 L146 552 L146 1 L178 1 L178 552 L274 552 L274 583 L178 583 L178 649 C178 720 223 778 277 778 C299 778 319 769 336 752 C362 728 377 690 377 649 L377 1 L409 1 L409 649 C409 698 390 745 359 775 C335 798 307 810 277 810 L277 810 Z " />
</font>
</svg>
